<?xml version="1.0" standalone="no"?>
<!DOCTYPE svg PUBLIC "-//W3C//DTD SVG 20010904//EN"
 "http://www.w3.org/TR/2001/REC-SVG-20010904/DTD/svg10.dtd">
<svg version="1.0" xmlns="http://www.w3.org/2000/svg"
 width="195.000000pt" height="195.000000pt" viewBox="0 0 195.000000 195.000000"
 preserveAspectRatio="xMidYMid meet">
<metadata>
Created by potrace 1.14, written by Peter Selinger 2001-2017
</metadata>
<g transform="translate(0.000000,195.000000) scale(0.100000,-0.100000)"
fill="#000000" stroke="none">
<path d="M563 1584 c-136 -67 -199 -219 -159 -385 42 -179 126 -300 453 -646
l127 -134 84 83 c116 116 286 305 355 396 121 162 183 343 158 462 -16 77 -63
155 -117 193 -62 44 -98 55 -175 56 -54 1 -76 -4 -126 -29 -56 -28 -135 -99
-160 -144 -9 -17 -18 -11 -83 57 -56 59 -84 81 -126 97 -79 29 -166 27 -231
-6z m232 -59 c37 -18 125 -98 125 -113 0 -4 -35 -8 -78 -8 -42 -1 -114 -7
-160 -13 -112 -16 -215 -13 -207 6 3 8 5 19 5 24 0 19 77 93 115 111 50 23
143 20 200 -7z m578 12 c71 -30 137 -112 137 -171 0 -24 -2 -25 -27 -15 -42
16 -122 27 -246 35 -62 3 -129 9 -150 13 l-39 6 41 47 c76 86 196 121 284 85z"/>
</g>
</svg>
