<?xml version="1.0" encoding="utf-8"?>
<!-- Generator: Adobe Illustrator 16.0.4, SVG Export Plug-In . SVG Version: 6.00 Build 0)  -->
<!DOCTYPE svg PUBLIC "-//W3C//DTD SVG 1.1//EN" "http://www.w3.org/Graphics/SVG/1.1/DTD/svg11.dtd">
<svg version="1.1" id="Layer_1" xmlns="http://www.w3.org/2000/svg" xmlns:xlink="http://www.w3.org/1999/xlink" x="0px" y="0px"
	 width="331.045px" height="100px" viewBox="171.711 -0.681 331.045 100" enable-background="new 171.711 -0.681 331.045 100"
	 xml:space="preserve">
<g>
	<g>
		<path fill="#88DBDF" d="M237.277,48.948c-10.938,0-15.54,7.589-15.637,7.751c-0.002,0.003-0.007,0.011-0.007,0.011v-7.764V44.48
			v-8.783v-0.002c0.002,0.002,0.005,0.005,0.005,0.005c1.155,1.497,2.492,2.843,3.978,4.005c0.005,0.007,0.01,0.01,0.018,0.015
			c0.486,0.381,0.993,0.744,1.512,1.084c0.047,0.031,0.096,0.062,0.143,0.091c0.272,0.175,0.545,0.345,0.822,0.508
			c0.104,0.06,0.208,0.122,0.317,0.181c0.198,0.114,0.403,0.224,0.609,0.332c0.151,0.081,0.302,0.159,0.455,0.236
			c0.129,0.062,0.256,0.125,0.384,0.186c0.23,0.108,0.463,0.214,0.701,0.315c0.108,0.05,0.22,0.093,0.332,0.139
			c0.225,0.093,0.451,0.185,0.681,0.268c0.106,0.04,0.21,0.078,0.314,0.116c0.233,0.083,0.465,0.163,0.698,0.236
			c0.092,0.03,0.183,0.06,0.272,0.088c0.277,0.084,0.555,0.163,0.832,0.234c0.099,0.028,0.198,0.053,0.297,0.078
			c0.283,0.071,0.565,0.136,0.85,0.196c0.092,0.02,0.186,0.036,0.282,0.054c0.233,0.046,0.468,0.087,0.701,0.126
			c0.124,0.019,0.242,0.041,0.361,0.058c0.25,0.034,0.499,0.066,0.75,0.095c0.138,0.014,0.274,0.032,0.413,0.042
			c0.252,0.025,0.51,0.042,0.763,0.06c0.172,0.01,0.345,0.015,0.52,0.021c0.121,0.007,0.242,0.009,0.366,0.01
			c0.149,0.003,0.292,0.007,0.441,0.007c6.204,0,11.819-2.513,15.894-6.569l-3.156-3.154c-2.448,2.433-5.593,4.171-9.101,4.886
			c-0.176,0.035-0.354,0.063-0.53,0.094c-0.111,0.02-0.225,0.043-0.34,0.061c-0.901,0.139-1.826,0.213-2.767,0.213
			c-9.023,0-16.478-6.629-17.816-15.278v-0.107v-5.323v-0.12c1.339-8.65,8.793-15.276,17.817-15.276
			c4.993,0,9.515,2.028,12.784,5.305l3.159-3.158c-3.434-3.443-7.979-5.774-13.052-6.426c-0.939-0.12-1.892-0.188-2.862-0.188
			c-5.05,0-9.714,1.664-13.473,4.471c-0.005,0.003-0.01,0.007-0.013,0.01c-0.552,0.414-1.081,0.851-1.592,1.311
			c-0.037,0.035-0.074,0.068-0.113,0.103c-0.228,0.209-0.453,0.424-0.676,0.646c-0.047,0.046-0.091,0.091-0.136,0.138
			c-0.223,0.222-0.438,0.448-0.648,0.679c-0.025,0.028-0.049,0.058-0.074,0.085c-0.206,0.225-0.404,0.456-0.597,0.688
			c-0.027,0.033-0.057,0.064-0.082,0.097c-0.148,0.182-0.294,0.369-0.436,0.556V8.215c-0.005,0.002-0.005,0.003-0.007,0.006v-8.785
			v-0.118h-4.825v0.118v9.126v0.002v11.258c0,0.003,0,0.005,0,0.008v4.401c0,0.003,0,0.006,0,0.01v11.078v0.001v9.16v4.466v9.244
			v11.26c0,0.005,0,0.007,0,0.009v4.4c0,0.002,0,0.007,0,0.009v11.079v9.151v0.128h4.708v-0.128v-24.69
			c0-0.309,0.034-0.779,0.124-1.359c0.629-4.238,3.934-14.518,15.518-14.518c13.171,0,15.994,13.173,15.994,17.288v23.279v0.129
			h4.468v-0.129V71.881C257.619,58.354,248.329,48.948,237.277,48.948z"/>
		<path d="M212.161-0.681v9.217c-0.498-0.685-1.024-1.359-1.612-2.007c-3.892-4.284-8.697-6.645-14.403-7.091
			c-0.666-0.053-1.341-0.086-2.032-0.086s-1.367,0.033-2.033,0.086c-5.734,0.448-10.548,2.822-14.444,7.129
			c-3.937,4.352-5.908,9.484-5.924,15.398c0,0.022-0.001,0.044-0.001,0.064c0,0.021,0.001,0.039,0.001,0.061
			c0.017,5.967,2.104,11.187,6.264,15.654c4.174,4.484,9.551,6.725,16.138,6.725c6.558,0,11.925-2.241,16.101-6.725
			c0.717-0.773,1.351-1.577,1.945-2.396v9.132v4.466v9.215c-0.497-0.683-1.023-1.356-1.611-2c-4.344-4.787-9.823-7.179-16.434-7.179
			c-6.637,0-12.127,2.407-16.477,7.214c-3.936,4.349-5.908,9.481-5.924,15.398c0,0.021-0.001,0.04-0.001,0.065
			c0,0.019,0.001,0.039,0.001,0.059c0.016,5.967,2.104,11.19,6.263,15.656c4.174,4.481,9.551,6.724,16.137,6.724
			c6.559,0,11.924-2.242,16.103-6.724c0.717-0.773,1.351-1.581,1.944-2.398v9.252h4.771V-0.681H212.161L212.161-0.681z
			 M194.267,40.098c-9.979,0-18.068-8.087-18.068-18.067c0-9.978,8.088-18.065,18.068-18.065c9.183,0,16.745,6.855,17.895,15.726
			v4.681C211.012,33.243,203.449,40.098,194.267,40.098z M194.269,89.725c-9.981,0-18.068-8.086-18.068-18.066
			s8.087-18.064,18.068-18.064c9.183,0,16.743,6.852,17.892,15.726V74C211.012,82.87,203.452,89.725,194.269,89.725z"/>
	</g>
	<g>
		<path d="M283.378,5.569V20.44h-1.886v-2.556c-0.802,0.975-1.702,1.709-2.7,2.201c-0.998,0.492-2.089,0.738-3.273,0.738
			c-2.105,0-3.902-0.763-5.392-2.29c-1.49-1.526-2.235-3.383-2.235-5.569c0-2.141,0.752-3.973,2.255-5.495s3.312-2.283,5.427-2.283
			c1.221,0,2.326,0.26,3.314,0.779c0.989,0.519,1.856,1.298,2.604,2.337V5.569H283.378L283.378,5.569z M275.731,7.031
			c-1.065,0-2.048,0.262-2.949,0.785c-0.901,0.523-1.619,1.259-2.15,2.205c-0.533,0.946-0.799,1.948-0.799,3.004
			c0,1.046,0.269,2.048,0.806,3.003s1.258,1.7,2.164,2.232c0.906,0.533,1.877,0.798,2.915,0.798c1.047,0,2.039-0.263,2.976-0.791
			c0.938-0.529,1.659-1.243,2.164-2.144c0.505-0.902,0.758-1.916,0.758-3.044c0-1.72-0.567-3.158-1.7-4.315
			C278.782,7.609,277.387,7.031,275.731,7.031z"/>
		<path d="M286.856,5.569h1.913v6.944c0,1.695,0.091,2.861,0.274,3.499c0.274,0.912,0.796,1.631,1.567,2.16
			c0.771,0.529,1.69,0.792,2.758,0.792c1.067,0,1.974-0.257,2.717-0.772c0.743-0.515,1.257-1.191,1.54-2.03
			c0.192-0.574,0.288-1.79,0.288-3.649V5.569h1.955v7.299c0,2.05-0.239,3.595-0.717,4.634c-0.479,1.039-1.198,1.852-2.16,2.439
			s-2.167,0.882-3.615,0.882s-2.659-0.294-3.629-0.882c-0.971-0.588-1.695-1.408-2.173-2.46c-0.478-1.053-0.717-2.636-0.717-4.75
			V5.569L286.856,5.569z"/>
		<path d="M310.806,7.195l-1.23,1.271c-1.023-0.992-2.024-1.489-3.001-1.489c-0.622,0-1.153,0.205-1.596,0.615
			c-0.443,0.41-0.665,0.889-0.665,1.435c0,0.483,0.183,0.943,0.548,1.381c0.365,0.447,1.132,0.97,2.301,1.571
			c1.424,0.738,2.392,1.449,2.904,2.132c0.502,0.693,0.753,1.472,0.753,2.338c0,1.221-0.429,2.255-1.287,3.103
			c-0.858,0.847-1.93,1.271-3.217,1.271c-0.858,0-1.677-0.187-2.457-0.56c-0.781-0.375-1.426-0.889-1.938-1.545l1.203-1.367
			c0.977,1.103,2.014,1.654,3.11,1.654c0.767,0,1.42-0.246,1.959-0.738c0.539-0.492,0.808-1.071,0.808-1.736
			c0-0.546-0.178-1.033-0.534-1.462c-0.356-0.419-1.16-0.947-2.411-1.586c-1.342-0.692-2.256-1.376-2.74-2.05
			c-0.483-0.674-0.726-1.444-0.726-2.31c0-1.13,0.386-2.069,1.157-2.816c0.771-0.747,1.745-1.121,2.923-1.121
			C308.041,5.186,309.419,5.856,310.806,7.195z"/>
		<path d="M315.287,0.046h1.914v5.523h3.035v1.654h-3.035v13.218h-1.914V7.223h-2.61V5.569h2.61V0.046z"/>
		<path d="M321.964,5.569h1.955v2.173c0.583-0.856,1.198-1.497,1.845-1.92c0.647-0.423,1.321-0.635,2.023-0.635
			c0.528,0,1.093,0.168,1.695,0.505l-0.999,1.614c-0.401-0.173-0.737-0.261-1.012-0.261c-0.637,0-1.252,0.263-1.845,0.787
			s-1.044,1.337-1.354,2.439c-0.237,0.847-0.355,2.561-0.355,5.14v5.029h-1.955L321.964,5.569L321.964,5.569z"/>
		<path d="M331.802-0.555c0.435,0,0.808,0.155,1.116,0.465c0.308,0.31,0.462,0.683,0.462,1.121c0,0.428-0.154,0.797-0.462,1.106
			c-0.308,0.31-0.681,0.465-1.116,0.465c-0.427,0-0.794-0.155-1.103-0.465c-0.308-0.309-0.462-0.678-0.462-1.106
			c0-0.438,0.154-0.811,0.462-1.121C331.008-0.4,331.375-0.555,331.802-0.555z M330.853,5.569h1.914V20.44h-1.914V5.569z"/>
		<path d="M350.919,5.569V20.44h-1.886v-2.556c-0.802,0.975-1.701,1.709-2.7,2.201c-0.998,0.492-2.089,0.738-3.273,0.738
			c-2.105,0-3.902-0.763-5.392-2.29c-1.49-1.526-2.235-3.383-2.235-5.569c0-2.141,0.752-3.973,2.256-5.495
			c1.502-1.522,3.311-2.283,5.426-2.283c1.221,0,2.326,0.26,3.315,0.779c0.989,0.519,1.856,1.298,2.604,2.337V5.569H350.919
			L350.919,5.569z M343.271,7.031c-1.065,0-2.048,0.262-2.949,0.785c-0.902,0.523-1.618,1.259-2.15,2.205
			c-0.533,0.946-0.799,1.948-0.799,3.004c0,1.046,0.269,2.048,0.806,3.003c0.537,0.956,1.259,1.7,2.164,2.232
			s1.877,0.798,2.915,0.798c1.046,0,2.039-0.263,2.976-0.791c0.938-0.529,1.659-1.243,2.166-2.144
			c0.505-0.902,0.757-1.916,0.757-3.044c0-1.72-0.566-3.158-1.7-4.315C346.322,7.609,344.928,7.031,343.271,7.031z"/>
		<path d="M354.578,5.569h1.914v2.666c0.765-1.021,1.613-1.784,2.542-2.29c0.93-0.505,1.942-0.758,3.036-0.758
			c1.111,0,2.098,0.283,2.959,0.847c0.86,0.565,1.497,1.327,1.907,2.283c0.41,0.957,0.615,2.447,0.615,4.47v7.654h-1.914v-7.094
			c0-1.713-0.071-2.856-0.212-3.431c-0.221-0.984-0.647-1.724-1.275-2.221c-0.629-0.497-1.449-0.745-2.46-0.745
			c-1.158,0-2.195,0.383-3.11,1.147c-0.916,0.766-1.52,1.714-1.811,2.843c-0.183,0.738-0.273,2.087-0.273,4.046v5.454h-1.914
			L354.578,5.569L354.578,5.569z"/>
		<path d="M393.387,8.657l-1.517,0.943c-1.312-1.74-3.099-2.61-5.366-2.61c-1.812,0-3.315,0.583-4.512,1.747
			c-1.197,1.165-1.796,2.581-1.796,4.246c0,1.083,0.275,2.103,0.826,3.059c0.551,0.956,1.306,1.698,2.267,2.226
			c0.96,0.528,2.037,0.792,3.229,0.792c2.184,0,3.968-0.87,5.352-2.61l1.517,0.998c-0.711,1.07-1.666,1.9-2.864,2.491
			c-1.198,0.59-2.563,0.885-4.094,0.885c-2.351,0-4.301-0.747-5.85-2.241s-2.324-3.312-2.324-5.455c0-1.439,0.362-2.777,1.087-4.012
			s1.72-2.198,2.986-2.891c1.267-0.692,2.684-1.039,4.251-1.039c0.984,0,1.935,0.15,2.85,0.451c0.917,0.301,1.692,0.692,2.331,1.175
			C392.398,7.295,392.94,7.91,393.387,8.657z"/>
		<path d="M408.201,15.506l1.613,0.847c-0.529,1.039-1.14,1.877-1.833,2.515c-0.693,0.638-1.473,1.123-2.339,1.456
			c-0.867,0.333-1.847,0.499-2.942,0.499c-2.426,0-4.323-0.794-5.691-2.385c-1.368-1.59-2.052-3.388-2.052-5.393
			c0-1.886,0.578-3.567,1.737-5.043c1.469-1.877,3.434-2.816,5.896-2.816c2.537,0,4.56,0.961,6.074,2.884
			c1.076,1.358,1.624,3.052,1.643,5.084h-13.381c0.036,1.728,0.588,3.144,1.656,4.248c1.067,1.104,2.386,1.657,3.955,1.657
			c0.758,0,1.494-0.131,2.211-0.395c0.716-0.263,1.325-0.612,1.827-1.047C407.074,17.18,407.617,16.477,408.201,15.506z
			 M408.201,11.501c-0.255-1.02-0.627-1.835-1.117-2.446c-0.488-0.61-1.132-1.103-1.937-1.477c-0.803-0.373-1.647-0.56-2.532-0.56
			c-1.459,0-2.714,0.469-3.762,1.408c-0.766,0.684-1.346,1.708-1.739,3.075H408.201z"/>
		<path d="M413.075,5.569h1.914v2.666c0.766-1.021,1.613-1.784,2.542-2.29c0.929-0.505,1.941-0.758,3.035-0.758
			c1.111,0,2.098,0.283,2.959,0.847c0.861,0.565,1.497,1.327,1.907,2.283c0.41,0.957,0.616,2.447,0.616,4.47v7.654h-1.913v-7.094
			c0-1.713-0.071-2.856-0.213-3.431c-0.221-0.984-0.647-1.724-1.275-2.221c-0.629-0.497-1.449-0.745-2.46-0.745
			c-1.158,0-2.195,0.383-3.11,1.147c-0.917,0.766-1.52,1.714-1.812,2.843c-0.183,0.738-0.274,2.087-0.274,4.046v5.454h-1.914V5.569z
			"/>
		<path d="M430.418,0.046h1.913v5.523h3.035v1.654h-3.035v13.218h-1.913V7.223h-2.611V5.569h2.611V0.046z"/>
		<path d="M437.095,5.569h1.955v2.173c0.583-0.856,1.199-1.497,1.845-1.92c0.647-0.423,1.321-0.635,2.023-0.635
			c0.529,0,1.094,0.168,1.696,0.505l-0.999,1.614c-0.4-0.173-0.737-0.261-1.011-0.261c-0.638,0-1.253,0.263-1.844,0.787
			c-0.593,0.524-1.044,1.337-1.354,2.439c-0.236,0.847-0.355,2.561-0.355,5.14v5.029h-1.955V5.569z"/>
		<path d="M457.467,15.506l1.614,0.847c-0.53,1.039-1.14,1.877-1.833,2.515c-0.694,0.638-1.473,1.123-2.34,1.456
			c-0.866,0.333-1.846,0.499-2.94,0.499c-2.426,0-4.323-0.794-5.691-2.385c-1.369-1.59-2.053-3.388-2.053-5.393
			c0-1.886,0.58-3.567,1.738-5.043c1.469-1.877,3.435-2.816,5.897-2.816c2.535,0,4.559,0.961,6.074,2.884
			c1.076,1.358,1.623,3.052,1.642,5.084h-13.381c0.036,1.728,0.589,3.144,1.656,4.248c1.067,1.104,2.386,1.657,3.955,1.657
			c0.757,0,1.494-0.131,2.21-0.395c0.717-0.263,1.325-0.612,1.828-1.047C456.341,17.181,456.883,16.477,457.467,15.506z
			 M457.467,11.501c-0.255-1.02-0.627-1.835-1.115-2.446c-0.488-0.61-1.134-1.103-1.937-1.477c-0.804-0.373-1.646-0.56-2.531-0.56
			c-1.46,0-2.715,0.469-3.764,1.408c-0.767,0.684-1.346,1.708-1.738,3.075H457.467z"/>
		<path d="M476.565-0.172V1.7c-0.702-0.301-1.304-0.451-1.804-0.451c-0.374,0-0.684,0.075-0.93,0.226
			c-0.247,0.15-0.401,0.324-0.464,0.519c-0.064,0.196-0.096,0.718-0.096,1.565l-0.001,2.01h3.104v1.654h-3.106l-0.01,13.217h-1.913
			V7.223h-1.957V5.569h1.957V3.244c0-1.066,0.097-1.827,0.292-2.283c0.195-0.455,0.53-0.822,0.999-1.101
			c0.469-0.277,1.035-0.417,1.7-0.417C474.956-0.555,475.699-0.427,476.565-0.172z"/>
		<path d="M484.696,5.186c2.292,0,4.188,0.829,5.696,2.487c1.369,1.513,2.055,3.304,2.055,5.371c0,2.078-0.723,3.894-2.17,5.447
			s-3.308,2.331-5.58,2.331c-2.283,0-4.146-0.777-5.594-2.331c-1.446-1.554-2.169-3.37-2.169-5.447c0-2.059,0.685-3.845,2.054-5.357
			C480.493,6.02,482.396,5.186,484.696,5.186z M484.689,7.058c-1.591,0-2.958,0.588-4.101,1.763
			c-1.145,1.176-1.715,2.597-1.715,4.265c0,1.076,0.262,2.078,0.782,3.008c0.521,0.929,1.226,1.646,2.112,2.153
			c0.887,0.505,1.861,0.758,2.922,0.758s2.034-0.252,2.923-0.758c0.887-0.506,1.589-1.224,2.112-2.153
			c0.521-0.93,0.781-1.932,0.781-3.008c0-1.667-0.573-3.089-1.721-4.265C487.636,7.646,486.272,7.058,484.689,7.058z"/>
		<path d="M494.994,5.569h1.954v2.173c0.583-0.856,1.198-1.497,1.846-1.92c0.646-0.423,1.32-0.635,2.022-0.635
			c0.528,0,1.094,0.168,1.695,0.505l-0.998,1.614c-0.4-0.173-0.738-0.261-1.012-0.261c-0.638,0-1.253,0.263-1.845,0.787
			c-0.593,0.524-1.044,1.337-1.354,2.439c-0.236,0.847-0.355,2.561-0.355,5.14v5.029h-1.954V5.569z"/>
		<path d="M283.406,36.355v20.612h-1.886v-2.556c-0.802,0.976-1.702,1.709-2.7,2.201c-0.998,0.492-2.089,0.738-3.273,0.738
			c-2.105,0-3.902-0.763-5.392-2.29s-2.235-3.383-2.235-5.569c0-2.142,0.752-3.973,2.255-5.495c1.503-1.521,3.312-2.283,5.427-2.283
			c1.221,0,2.326,0.26,3.314,0.779c0.988,0.52,1.856,1.299,2.604,2.337v-8.475H283.406z M275.758,43.559
			c-1.065,0-2.048,0.262-2.949,0.785c-0.901,0.523-1.619,1.259-2.151,2.205s-0.798,1.948-0.798,3.004
			c0,1.046,0.269,2.047,0.805,3.002c0.537,0.956,1.259,1.7,2.164,2.232c0.906,0.533,1.877,0.799,2.915,0.799
			c1.047,0,2.039-0.263,2.976-0.792c0.938-0.528,1.659-1.243,2.164-2.143c0.505-0.902,0.758-1.916,0.758-3.044
			c0-1.721-0.567-3.158-1.7-4.315C278.81,44.137,277.415,43.559,275.758,43.559z"/>
		<path d="M288.536,35.973c0.436,0,0.808,0.155,1.116,0.464c0.308,0.31,0.462,0.684,0.462,1.121c0,0.428-0.154,0.797-0.462,1.106
			c-0.309,0.31-0.681,0.465-1.116,0.465c-0.427,0-0.794-0.155-1.102-0.465c-0.309-0.309-0.463-0.678-0.463-1.106
			c0-0.438,0.154-0.811,0.463-1.121C287.742,36.128,288.109,35.973,288.536,35.973z M287.586,42.096h1.914v14.871h-1.914V42.096z"/>
		<path d="M306.231,42.096h1.914v11.851c0,2.087-0.183,3.613-0.547,4.579c-0.501,1.367-1.372,2.419-2.61,3.157
			c-1.239,0.738-2.729,1.107-4.47,1.107c-1.276,0-2.422-0.181-3.438-0.542c-1.017-0.361-1.843-0.846-2.481-1.454
			c-0.638-0.607-1.226-1.496-1.763-2.667h2.078c0.565,0.984,1.295,1.713,2.189,2.187s2.003,0.711,3.326,0.711
			c1.305,0,2.407-0.243,3.305-0.729c0.899-0.486,1.54-1.097,1.922-1.832c0.384-0.735,0.575-1.923,0.575-3.563v-0.766
			c-0.721,0.912-1.601,1.611-2.641,2.099c-1.04,0.487-2.144,0.731-3.311,0.731c-1.368,0-2.654-0.339-3.858-1.018
			c-1.204-0.679-2.134-1.593-2.792-2.741c-0.657-1.148-0.985-2.41-0.985-3.786s0.342-2.659,1.026-3.848
			c0.684-1.188,1.63-2.129,2.839-2.822c1.209-0.692,2.483-1.039,3.824-1.039c1.112,0,2.15,0.23,3.113,0.69
			c0.962,0.461,1.891,1.219,2.784,2.276L306.231,42.096L306.231,42.096z M300.586,43.559c-1.084,0-2.091,0.262-3.021,0.786
			c-0.93,0.524-1.659,1.249-2.187,2.173s-0.792,1.925-0.792,3c0,1.631,0.547,2.98,1.64,4.046c1.094,1.066,2.511,1.6,4.251,1.6
			c1.758,0,3.173-0.529,4.244-1.586c1.07-1.057,1.606-2.447,1.606-4.169c0-1.121-0.246-2.12-0.738-3
			c-0.492-0.88-1.189-1.574-2.091-2.084S301.625,43.559,300.586,43.559z"/>
		<path d="M313.124,35.973c0.436,0,0.808,0.155,1.116,0.464c0.308,0.31,0.463,0.684,0.463,1.121c0,0.428-0.155,0.797-0.463,1.106
			c-0.308,0.31-0.681,0.465-1.116,0.465c-0.427,0-0.794-0.155-1.102-0.465c-0.308-0.309-0.463-0.678-0.463-1.106
			c0-0.438,0.155-0.811,0.463-1.121C312.33,36.128,312.697,35.973,313.124,35.973z M312.174,42.096h1.914v14.871h-1.914V42.096z"/>
		<path d="M319.419,36.574h1.914v5.523h3.035v1.654h-3.035v13.218h-1.914V43.75h-2.61v-1.654h2.61V36.574z"/>
		<path d="M341.046,42.096v14.871h-1.886v-2.556c-0.802,0.976-1.702,1.709-2.7,2.201c-0.998,0.492-2.089,0.738-3.273,0.738
			c-2.105,0-3.902-0.763-5.393-2.29c-1.489-1.526-2.234-3.383-2.234-5.569c0-2.142,0.751-3.973,2.255-5.495
			c1.502-1.521,3.311-2.283,5.426-2.283c1.221,0,2.325,0.26,3.315,0.779c0.989,0.52,1.856,1.299,2.603,2.337v-2.733H341.046
			L341.046,42.096z M333.399,43.559c-1.065,0-2.048,0.262-2.949,0.785c-0.902,0.523-1.618,1.259-2.15,2.205
			c-0.533,0.946-0.799,1.948-0.799,3.004c0,1.046,0.268,2.047,0.805,3.002c0.537,0.956,1.258,1.7,2.164,2.232
			c0.905,0.533,1.877,0.799,2.915,0.799c1.046,0,2.039-0.263,2.976-0.792c0.938-0.528,1.659-1.243,2.164-2.143
			c0.505-0.902,0.759-1.916,0.759-3.044c0-1.721-0.567-3.158-1.7-4.315C336.451,44.137,335.055,43.559,333.399,43.559z"/>
		<path d="M345.166,36.355h1.914v20.612h-1.914V36.355z"/>
		<path d="M359.535,36.355h1.914v8.406c0.774-1.021,1.626-1.784,2.556-2.289c0.929-0.505,1.936-0.759,3.021-0.759
			c1.111,0,2.098,0.283,2.959,0.847c0.861,0.565,1.497,1.324,1.907,2.276c0.41,0.952,0.615,2.444,0.615,4.477v7.654h-1.913v-7.094
			c0-1.712-0.068-2.856-0.206-3.43c-0.236-0.984-0.668-1.724-1.291-2.221c-0.625-0.497-1.443-0.745-2.454-0.745
			c-1.158,0-2.194,0.383-3.109,1.147c-0.917,0.766-1.52,1.714-1.812,2.843c-0.183,0.73-0.273,2.077-0.273,4.046v5.454h-1.913
			L359.535,36.355L359.535,36.355z"/>
		<path d="M376.333,42.096h1.914v6.944c0,1.694,0.091,2.861,0.274,3.499c0.274,0.912,0.796,1.631,1.567,2.16
			c0.772,0.529,1.69,0.792,2.758,0.792c1.068,0,1.974-0.257,2.718-0.772s1.258-1.191,1.541-2.03c0.191-0.574,0.288-1.79,0.288-3.648
			v-6.944h1.954v7.299c0,2.05-0.239,3.594-0.718,4.633c-0.479,1.039-1.198,1.852-2.159,2.439s-2.167,0.881-3.615,0.881
			s-2.659-0.294-3.629-0.881c-0.972-0.588-1.696-1.408-2.173-2.46c-0.478-1.053-0.719-2.636-0.719-4.75V42.096L376.333,42.096z"/>
		<path d="M393.499,42.096h1.914v2.569c0.666-0.947,1.35-1.64,2.053-2.078c0.967-0.583,1.984-0.875,3.052-0.875
			c0.719,0,1.403,0.141,2.052,0.424c0.646,0.282,1.177,0.658,1.587,1.127c0.409,0.47,0.765,1.142,1.067,2.016
			c0.635-1.166,1.43-2.053,2.385-2.659c0.954-0.606,1.983-0.909,3.082-0.909c1.027,0,1.934,0.26,2.721,0.779
			c0.787,0.52,1.371,1.244,1.752,2.173c0.381,0.93,0.574,2.324,0.574,4.183v8.119h-1.957v-8.119c0-1.594-0.113-2.69-0.34-3.287
			s-0.615-1.077-1.165-1.442c-0.548-0.365-1.204-0.547-1.968-0.547c-0.926,0-1.773,0.274-2.541,0.82
			c-0.766,0.547-1.328,1.276-1.682,2.187c-0.354,0.912-0.532,2.433-0.532,4.565v5.823h-1.914v-7.613c0-1.794-0.11-3.014-0.334-3.656
			c-0.223-0.643-0.613-1.157-1.169-1.545c-0.556-0.387-1.216-0.581-1.982-0.581c-0.884,0-1.711,0.267-2.481,0.8
			c-0.771,0.533-1.34,1.251-1.708,2.153c-0.369,0.903-0.554,2.284-0.554,4.142v6.301h-1.914L393.499,42.096L393.499,42.096z"/>
		<path d="M434.5,42.096v14.871h-1.886v-2.556c-0.802,0.976-1.702,1.709-2.7,2.201c-0.998,0.492-2.089,0.738-3.273,0.738
			c-2.105,0-3.903-0.763-5.393-2.29c-1.489-1.526-2.234-3.383-2.234-5.569c0-2.142,0.751-3.973,2.254-5.495
			c1.503-1.521,3.312-2.283,5.427-2.283c1.221,0,2.325,0.26,3.314,0.779c0.988,0.52,1.856,1.299,2.604,2.337v-2.733H434.5
			L434.5,42.096z M426.852,43.559c-1.065,0-2.048,0.262-2.949,0.785c-0.903,0.523-1.618,1.259-2.152,2.205
			c-0.532,0.946-0.798,1.948-0.798,3.004c0,1.046,0.268,2.047,0.805,3.002c0.537,0.956,1.258,1.7,2.164,2.232
			c0.905,0.533,1.877,0.799,2.915,0.799c1.047,0,2.039-0.263,2.976-0.792c0.938-0.528,1.659-1.243,2.164-2.143
			c0.506-0.902,0.76-1.916,0.76-3.044c0-1.721-0.567-3.158-1.7-4.315C429.904,44.137,428.509,43.559,426.852,43.559z"/>
		<path d="M438.747,42.096h1.914v2.666c0.765-1.021,1.613-1.784,2.542-2.29c0.93-0.505,1.941-0.758,3.035-0.758
			c1.111,0,2.098,0.282,2.959,0.847c0.86,0.565,1.497,1.326,1.907,2.283c0.41,0.957,0.615,2.447,0.615,4.47v7.654h-1.913v-7.094
			c0-1.712-0.071-2.856-0.213-3.431c-0.222-0.984-0.647-1.724-1.276-2.221c-0.629-0.497-1.449-0.745-2.46-0.745
			c-1.158,0-2.194,0.383-3.11,1.147c-0.916,0.766-1.519,1.714-1.811,2.843c-0.183,0.738-0.273,2.087-0.273,4.046v5.454h-1.914
			L438.747,42.096L438.747,42.096z"/>
		<path d="M456.599,35.973c0.436,0,0.808,0.155,1.117,0.464c0.308,0.31,0.462,0.684,0.462,1.121c0,0.428-0.154,0.797-0.462,1.106
			c-0.308,0.31-0.68,0.465-1.117,0.465c-0.426,0-0.792-0.155-1.102-0.465c-0.308-0.309-0.463-0.678-0.463-1.106
			c0-0.438,0.155-0.811,0.463-1.121C455.805,36.128,456.173,35.973,456.599,35.973z M455.649,42.096h1.913v14.871h-1.913V42.096z"/>
		<path d="M462.894,36.574h1.913v5.523h3.035v1.654h-3.035v13.218h-1.913V43.75h-2.61v-1.654h2.61V36.574z"/>
		<path d="M471.314,35.973c0.434,0,0.808,0.155,1.116,0.464c0.308,0.31,0.463,0.684,0.463,1.121c0,0.428-0.155,0.797-0.463,1.106
			c-0.308,0.31-0.681,0.465-1.116,0.465c-0.427,0-0.794-0.155-1.103-0.465c-0.308-0.309-0.462-0.678-0.462-1.106
			c0-0.438,0.154-0.811,0.462-1.121C470.52,36.128,470.887,35.973,471.314,35.973z M470.364,42.096h1.914v14.871h-1.914V42.096z"/>
		<path d="M488.753,52.033l1.612,0.848c-0.528,1.039-1.14,1.877-1.832,2.515c-0.693,0.638-1.474,1.124-2.34,1.457
			c-0.867,0.332-1.847,0.499-2.942,0.499c-2.426,0-4.323-0.795-5.691-2.385s-2.052-3.388-2.052-5.393
			c0-1.886,0.577-3.567,1.737-5.043c1.469-1.877,3.434-2.816,5.896-2.816c2.537,0,4.56,0.961,6.074,2.884
			c1.076,1.358,1.624,3.052,1.643,5.084h-13.381c0.035,1.727,0.588,3.143,1.655,4.248c1.068,1.104,2.386,1.657,3.956,1.657
			c0.758,0,1.494-0.131,2.211-0.395c0.716-0.263,1.325-0.613,1.827-1.047C487.626,53.708,488.169,53.005,488.753,52.033z
			 M488.753,48.029c-0.256-1.021-0.628-1.836-1.117-2.446c-0.488-0.611-1.132-1.103-1.937-1.477c-0.802-0.373-1.646-0.56-2.531-0.56
			c-1.459,0-2.714,0.469-3.763,1.408c-0.766,0.684-1.345,1.708-1.739,3.075H488.753z"/>
		<path d="M501.552,43.723l-1.23,1.271c-1.023-0.992-2.023-1.489-3.001-1.489c-0.622,0-1.154,0.205-1.597,0.615
			c-0.443,0.41-0.665,0.889-0.665,1.435c0,0.483,0.184,0.943,0.549,1.381c0.363,0.447,1.131,0.97,2.3,1.571
			c1.426,0.738,2.394,1.449,2.905,2.132c0.502,0.693,0.754,1.473,0.754,2.338c0,1.22-0.432,2.254-1.288,3.103
			c-0.858,0.847-1.931,1.271-3.217,1.271c-0.859,0-1.677-0.188-2.458-0.561c-0.78-0.374-1.426-0.889-1.937-1.544l1.201-1.367
			c0.978,1.103,2.015,1.653,3.11,1.653c0.767,0,1.42-0.246,1.959-0.738s0.809-1.07,0.809-1.736c0-0.546-0.179-1.033-0.534-1.462
			c-0.356-0.419-1.159-0.948-2.411-1.586c-1.343-0.692-2.255-1.375-2.739-2.05c-0.483-0.674-0.726-1.444-0.726-2.311
			c0-1.13,0.386-2.068,1.157-2.815s1.745-1.121,2.923-1.121C498.787,41.714,500.166,42.383,501.552,43.723z"/>
		<path d="M309.666,81.713l-1.517,0.943c-1.311-1.74-3.099-2.61-5.365-2.61c-1.812,0-3.315,0.583-4.512,1.747
			c-1.197,1.165-1.795,2.581-1.795,4.247c0,1.083,0.275,2.103,0.826,3.058c0.55,0.956,1.306,1.698,2.266,2.226
			c0.96,0.528,2.037,0.791,3.229,0.791c2.185,0,3.968-0.87,5.352-2.61l1.517,0.998c-0.71,1.071-1.665,1.9-2.863,2.491
			c-1.198,0.59-2.563,0.886-4.094,0.886c-2.351,0-4.301-0.747-5.851-2.241c-1.549-1.494-2.324-3.312-2.324-5.455
			c0-1.439,0.362-2.776,1.087-4.011c0.724-1.235,1.72-2.198,2.986-2.891c1.267-0.693,2.684-1.039,4.251-1.039
			c0.984,0,1.935,0.149,2.85,0.451c0.916,0.301,1.692,0.692,2.331,1.175C308.678,80.351,309.22,80.966,309.666,81.713z"/>
		<path d="M311.885,78.624h1.914v6.944c0,1.695,0.091,2.861,0.274,3.499c0.274,0.912,0.796,1.63,1.568,2.16
			c0.771,0.529,1.69,0.792,2.758,0.792s1.973-0.258,2.717-0.772c0.744-0.515,1.257-1.191,1.541-2.03
			c0.191-0.574,0.288-1.789,0.288-3.648v-6.943h1.954v7.299c0,2.05-0.239,3.594-0.717,4.633c-0.479,1.039-1.198,1.852-2.16,2.439
			c-0.961,0.587-2.167,0.881-3.615,0.881s-2.659-0.294-3.629-0.881c-0.971-0.588-1.695-1.408-2.173-2.46
			c-0.478-1.053-0.717-2.636-0.717-4.75L311.885,78.624L311.885,78.624z"/>
		<path d="M328.282,72.883h1.914v20.612h-1.914V72.883z"/>
		<path d="M334.855,73.102h1.914v5.523h3.034v1.653h-3.034v13.218h-1.914V80.278h-2.61v-1.653h2.61V73.102z"/>
		<path d="M341.663,78.624h1.914v6.944c0,1.695,0.091,2.861,0.274,3.499c0.274,0.912,0.796,1.63,1.568,2.16
			c0.771,0.529,1.69,0.792,2.758,0.792s1.974-0.258,2.718-0.772c0.743-0.515,1.257-1.191,1.54-2.03
			c0.192-0.574,0.287-1.789,0.287-3.648v-6.943h1.956v7.299c0,2.05-0.239,3.594-0.719,4.633c-0.478,1.039-1.198,1.852-2.158,2.439
			c-0.961,0.587-2.167,0.881-3.616,0.881c-1.448,0-2.658-0.294-3.629-0.881c-0.971-0.588-1.695-1.408-2.173-2.46
			c-0.478-1.053-0.718-2.636-0.718-4.75V78.624L341.663,78.624z"/>
		<path d="M357.833,78.624h1.955v2.172c0.583-0.856,1.198-1.496,1.845-1.92c0.646-0.422,1.321-0.635,2.023-0.635
			c0.528,0,1.093,0.169,1.695,0.505l-0.998,1.614c-0.401-0.173-0.738-0.26-1.012-0.26c-0.638,0-1.253,0.263-1.845,0.787
			c-0.591,0.524-1.043,1.337-1.353,2.439c-0.237,0.848-0.355,2.561-0.355,5.141v5.029h-1.955V78.624L357.833,78.624z"/>
		<path d="M380.355,78.624v14.871h-1.885v-2.556c-0.803,0.976-1.702,1.71-2.7,2.201c-0.997,0.492-2.089,0.738-3.273,0.738
			c-2.105,0-3.903-0.764-5.392-2.29c-1.49-1.526-2.236-3.383-2.236-5.569c0-2.141,0.752-3.973,2.255-5.495s3.312-2.283,5.426-2.283
			c1.221,0,2.326,0.26,3.315,0.779c0.989,0.519,1.856,1.299,2.605,2.338v-2.734H380.355L380.355,78.624z M372.708,80.086
			c-1.065,0-2.048,0.263-2.95,0.786c-0.901,0.523-1.618,1.258-2.15,2.205c-0.533,0.946-0.799,1.948-0.799,3.004
			c0,1.045,0.269,2.047,0.805,3.003c0.537,0.957,1.259,1.7,2.166,2.232c0.904,0.533,1.875,0.799,2.914,0.799
			c1.046,0,2.039-0.263,2.977-0.791c0.938-0.529,1.658-1.244,2.165-2.144c0.504-0.902,0.757-1.917,0.757-3.044
			c0-1.72-0.567-3.159-1.7-4.315C375.759,80.664,374.364,80.086,372.708,80.086z"/>
		<path d="M383.802,72.883h1.913v20.612h-1.913V72.883z"/>
		<path d="M396.829,72.883h1.914v8.406c0.774-1.021,1.626-1.784,2.556-2.289c0.929-0.505,1.936-0.759,3.021-0.759
			c1.111,0,2.098,0.283,2.959,0.847c0.861,0.565,1.497,1.323,1.907,2.275c0.41,0.952,0.615,2.445,0.615,4.477v7.655h-1.913v-7.095
			c0-1.713-0.068-2.855-0.206-3.43c-0.236-0.985-0.668-1.725-1.291-2.221c-0.625-0.497-1.443-0.746-2.454-0.746
			c-1.157,0-2.193,0.383-3.11,1.148c-0.916,0.765-1.518,1.714-1.811,2.843c-0.183,0.73-0.273,2.078-0.273,4.047v5.455h-1.914V72.883
			L396.829,72.883z"/>
		<path d="M425.648,88.561l1.613,0.848c-0.529,1.039-1.14,1.877-1.833,2.515c-0.693,0.638-1.473,1.124-2.339,1.457
			c-0.866,0.332-1.846,0.499-2.941,0.499c-2.425,0-4.322-0.795-5.69-2.385c-1.369-1.589-2.053-3.388-2.053-5.393
			c0-1.885,0.579-3.566,1.737-5.042c1.47-1.877,3.435-2.815,5.897-2.815c2.536,0,4.559,0.961,6.074,2.884
			c1.076,1.358,1.624,3.052,1.642,5.084h-13.38c0.035,1.729,0.588,3.144,1.655,4.248s2.386,1.657,3.956,1.657
			c0.757,0,1.493-0.131,2.211-0.395c0.717-0.263,1.325-0.613,1.827-1.047C424.521,90.236,425.064,89.532,425.648,88.561z
			 M425.648,84.556c-0.255-1.021-0.627-1.836-1.116-2.447c-0.488-0.61-1.133-1.103-1.936-1.476c-0.804-0.374-1.647-0.56-2.532-0.56
			c-1.46,0-2.714,0.469-3.764,1.407c-0.766,0.684-1.345,1.709-1.737,3.076H425.648z"/>
		<path d="M430.114,78.624h1.956v2.172c0.583-0.856,1.198-1.496,1.845-1.92c0.646-0.422,1.321-0.635,2.023-0.635
			c0.529,0,1.093,0.169,1.695,0.505l-0.998,1.614c-0.401-0.173-0.738-0.26-1.011-0.26c-0.638,0-1.254,0.263-1.846,0.787
			c-0.592,0.524-1.043,1.337-1.353,2.439c-0.237,0.848-0.355,2.561-0.355,5.141v5.029h-1.956V78.624z"/>
		<path d="M439.869,72.501c0.436,0,0.808,0.154,1.117,0.464c0.308,0.31,0.462,0.684,0.462,1.121c0,0.428-0.154,0.797-0.462,1.106
			c-0.308,0.31-0.68,0.465-1.117,0.465c-0.426,0-0.793-0.155-1.103-0.465c-0.308-0.309-0.462-0.678-0.462-1.106
			c0-0.438,0.154-0.811,0.462-1.121C439.075,72.655,439.442,72.501,439.869,72.501z M438.919,78.624h1.914v14.871h-1.914V78.624z"/>
		<path d="M445.492,73.102h1.914v5.523h3.035v1.653h-3.035v13.218h-1.914V80.278h-2.61v-1.653h2.61V73.102z"/>
		<path d="M466.447,78.624v14.871h-1.886v-2.556c-0.802,0.976-1.701,1.71-2.7,2.201c-0.998,0.492-2.089,0.738-3.273,0.738
			c-2.105,0-3.902-0.764-5.393-2.29c-1.49-1.526-2.234-3.383-2.234-5.569c0-2.141,0.751-3.973,2.254-5.495
			c1.503-1.522,3.312-2.283,5.427-2.283c1.221,0,2.325,0.26,3.314,0.779c0.988,0.519,1.856,1.299,2.604,2.338v-2.734H466.447
			L466.447,78.624z M458.8,80.086c-1.065,0-2.048,0.263-2.949,0.786c-0.902,0.523-1.618,1.258-2.152,2.205
			c-0.532,0.946-0.798,1.948-0.798,3.004c0,1.045,0.268,2.047,0.806,3.003c0.537,0.957,1.258,1.7,2.164,2.232
			c0.905,0.533,1.877,0.799,2.915,0.799c1.047,0,2.039-0.263,2.976-0.791c0.938-0.529,1.659-1.244,2.164-2.144
			c0.505-0.902,0.759-1.917,0.759-3.044c0-1.72-0.567-3.159-1.7-4.315C461.852,80.664,460.457,80.086,458.8,80.086z"/>
		<path d="M482.776,78.624h1.913v11.851c0,2.087-0.182,3.613-0.547,4.579c-0.502,1.367-1.373,2.419-2.61,3.157
			c-1.239,0.738-2.729,1.107-4.47,1.107c-1.276,0-2.422-0.181-3.438-0.542c-1.016-0.361-1.842-0.845-2.48-1.454
			c-0.638-0.607-1.226-1.496-1.764-2.666h2.078c0.565,0.984,1.296,1.713,2.19,2.187c0.894,0.474,2.003,0.711,3.326,0.711
			c1.303,0,2.406-0.243,3.305-0.729c0.898-0.486,1.54-1.097,1.922-1.832c0.383-0.735,0.575-1.923,0.575-3.563v-0.765
			c-0.72,0.912-1.601,1.611-2.64,2.098c-1.041,0.488-2.144,0.732-3.312,0.732c-1.368,0-2.653-0.339-3.858-1.018
			c-1.205-0.679-2.135-1.593-2.791-2.741c-0.657-1.148-0.986-2.411-0.986-3.786c0-1.376,0.343-2.658,1.027-3.848
			c0.684-1.188,1.63-2.129,2.838-2.822c1.209-0.693,2.484-1.039,3.825-1.039c1.113,0,2.15,0.23,3.112,0.69
			c0.962,0.46,1.891,1.219,2.785,2.275L482.776,78.624L482.776,78.624z M477.132,80.086c-1.085,0-2.092,0.263-3.022,0.787
			c-0.93,0.524-1.657,1.249-2.186,2.174c-0.529,0.925-0.792,1.925-0.792,2.999c0,1.632,0.547,2.98,1.64,4.047
			c1.094,1.066,2.51,1.6,4.251,1.6c1.758,0,3.173-0.529,4.244-1.586c1.072-1.057,1.606-2.447,1.606-4.169
			c0-1.121-0.246-2.121-0.737-3c-0.492-0.879-1.19-1.574-2.093-2.085C479.141,80.342,478.17,80.086,477.132,80.086z"/>
		<path d="M500.65,88.561l1.614,0.848c-0.529,1.039-1.142,1.877-1.833,2.515c-0.693,0.638-1.474,1.124-2.34,1.457
			c-0.867,0.332-1.847,0.499-2.941,0.499c-2.426,0-4.322-0.795-5.691-2.385c-1.368-1.589-2.052-3.388-2.052-5.393
			c0-1.885,0.578-3.566,1.736-5.042c1.47-1.877,3.435-2.815,5.897-2.815c2.535,0,4.559,0.961,6.074,2.884
			c1.075,1.358,1.623,3.052,1.642,5.084h-13.381c0.035,1.729,0.588,3.144,1.655,4.248s2.386,1.657,3.955,1.657
			c0.758,0,1.494-0.131,2.211-0.395c0.717-0.263,1.325-0.613,1.828-1.047C499.524,90.236,500.067,89.532,500.65,88.561z
			 M500.65,84.556c-0.255-1.021-0.627-1.836-1.115-2.447c-0.488-0.61-1.134-1.103-1.937-1.476c-0.804-0.374-1.646-0.56-2.531-0.56
			c-1.46,0-2.715,0.469-3.764,1.407c-0.767,0.684-1.346,1.709-1.738,3.076H500.65z"/>
		<path d="M283.179,86.092l1.362,1.443c-0.875,0.775-1.705,1.444-2.491,2.005c0.547,0.504,1.261,1.195,2.141,2.074
			c0.694,0.69,1.291,1.329,1.791,1.913h-2.803l-2.667-2.748c-1.675,1.349-3.037,2.228-4.085,2.639
			c-1.048,0.41-2.155,0.616-3.321,0.616c-1.549,0-2.793-0.445-3.731-1.334c-0.939-0.888-1.408-1.998-1.408-3.329
			c0-1.002,0.316-2.007,0.949-3.015c0.633-1.006,1.924-2.281,3.872-3.821c-1.101-1.33-1.808-2.312-2.123-2.943
			c-0.313-0.634-0.471-1.237-0.471-1.811c0-1.002,0.387-1.831,1.162-2.486c0.893-0.765,2.005-1.148,3.335-1.148
			c0.838,0,1.604,0.168,2.296,0.505c0.692,0.337,1.221,0.791,1.586,1.359c0.364,0.57,0.547,1.174,0.547,1.812
			c0,0.675-0.237,1.392-0.712,2.153c-0.475,0.761-1.41,1.734-2.806,2.918l3.048,3.199l1.997,2.026
			C281.72,87.329,282.564,86.654,283.179,86.092z M274.113,84.052c-1.708,1.287-2.827,2.31-3.357,3.07
			c-0.53,0.761-0.795,1.465-0.795,2.113c0,0.766,0.324,1.443,0.973,2.03c0.648,0.589,1.442,0.882,2.383,0.882
			c0.712,0,1.411-0.146,2.095-0.437c1.077-0.464,2.312-1.255,3.705-2.368l-3.171-3.268C275.398,85.5,274.787,84.826,274.113,84.052z
			 M274.358,81.39c0.977-0.756,1.711-1.499,2.205-2.227c0.347-0.52,0.521-0.979,0.521-1.381c0-0.464-0.227-0.865-0.679-1.203
			c-0.452-0.336-1.053-0.505-1.802-0.505c-0.713,0-1.293,0.174-1.741,0.52c-0.448,0.346-0.672,0.756-0.672,1.23
			c0,0.364,0.091,0.706,0.274,1.024C272.912,79.622,273.543,80.469,274.358,81.39z"/>
	</g>
</g>
</svg>
