<svg xmlns="http://www.w3.org/2000/svg" width="234.379" height="83.05" viewBox="0 0 234.379 83.05">
  <g id="Group_258" data-name="Group 258" transform="translate(-271.636 -81.408)">
    <path id="Path_13" data-name="Path 13" d="M336.161,181.652c1.693,2.8,1.95,7.416-.259,10.152a8.838,8.838,0,0,1-9.315,3c-.519.389-.338,2.168.077,2.267,3.056-.392,6.438-.128,8.652,2.018a13.313,13.313,0,0,1,4.1,12.49,10.6,10.6,0,0,1-4.813,7.285c-2.668,1.371-6.978,1.7-9.453.008v-3.523l-.056-23.141V177.782c3.969-.786,8.987.031,11.07,3.87Zm4.425-1.689c1.5,2.538,2.08,6.379.778,9.168-1.3,2.867-4.358,5.209-7.089,6.575a17.638,17.638,0,0,1,5.335,2.343c3.9,2.536,5.594,7.418,5.01,12.361-.132,4.556-3.511,8.853-7.614,10.734-6.312,2.412-13.793.266-20.756.914,0-.393-.452-1.43.393-1.37.976-.323,2.144,0,2.863-.906.974-1.306.933-3.1,1.073-4.8,1.015-12.007.423-25-.3-36.195-.064-1.171-1.237-1.822-2.21-2.081l-2.6-.325v-.911c7.092.781,14.639-1.432,21.077.973a9.208,9.208,0,0,1,4.037,3.517Z" transform="translate(-27.311 -58.488)" fill="#1a1818" fill-rule="evenodd"/>
    <path id="Path_14" data-name="Path 14" d="M323,142.947a11.8,11.8,0,0,0-1.141.4c-.129-.136-.253-.273-.376-.408l1.517.005Zm2.9,0a12.107,12.107,0,0,0-3.854,1.022l-1.126,2.13,1.237,1.083c1.395-.818,5.869-1.369,11.225-1.369,5.759,0,10.424.676,11.405,1.59l1.181-1.363-1.054-1.967a8.745,8.745,0,0,0-3.791-1.122l-15.224,0Zm19.622,0c-.083.122-.174.247-.264.369-.333-.128-.692-.256-1.07-.375l1.334.005Zm-10.188,1.025a2.551,2.551,0,0,1-2.015,1.3A3.478,3.478,0,0,1,331.3,144.1c.716-.456,1.77-1.2,2.68-.8a12.659,12.659,0,0,1,1.351.674Zm-9.183-.113,3.318-.532-.033,1.6-3.315.533.031-1.6Zm14.8.177-3.318-.528.033,1.593,3.317.531-.032-1.6Zm3.587,2.693-2.094-2.264c.426-.385,1.244-.173,1.82.469s.7,1.411.273,1.795Zm-22.028-.256,2.4-2c-.368-.44-1.2-.343-1.869.213s-.892,1.351-.526,1.786Zm-.9,1.8c0-1.078,5.245-1.952,11.716-1.952s11.709.874,11.709,1.952-5.241,1.952-11.709,1.952-11.716-.874-11.716-1.952Z" transform="translate(-30.701 -38.337)" fill="#1a1818" fill-rule="evenodd"/>
    <path id="Path_15" data-name="Path 15" d="M305.377,120.037a1.415,1.415,0,1,1-2.16,0l2.16,0Zm9.544,0a.8.8,0,0,1,.056.319,2.373,2.373,0,0,0-.194,1.5c.261.325.717.585.978.13.258-.26.323-.846.844-.716a2.528,2.528,0,0,1,.869,1.511,1.783,1.783,0,0,1-.218,1.159.851.851,0,0,1-1.049-.4c-.328-.2-.513-.516-.838-.128a1.165,1.165,0,0,0,.131,1.04c.389.653.913,1.564,1.822,1.433.65-.26.585-.91.714-1.5-.064-.521.116-1.019-.112-1.526-.111-.4-.395-.992.282-1.019.123,0,.793-.119.479.985s.459,2.013,1.3,2.729a1.05,1.05,0,0,0,1.174-.322,2.67,2.67,0,0,0,.518-2.213c-.913-.519-1.2,1.192-1.953.844-.541-.251-.446-.822-.731-1.343,0-.68-.244-1.259.408-1.389.584.064.78,1.171,1.5.779.712-.26.26-1.037.061-1.432-.077-.169-.171-.309-.224-.447l3,0c-.24.68-1.2,1.27-.43,1.819a1.633,1.633,0,0,0,.78,0c.391-.264.454-.91,1.04-.716a1.538,1.538,0,0,1,.267,1.411,1.839,1.839,0,0,1-.2,1.045c-.52.652-1.173-.243-1.5-.568a1.128,1.128,0,0,0-1.109.064,2.631,2.631,0,0,0,.781,2.341,1.233,1.233,0,0,0,1.655-.086c.392-.715,1.125-1.946.732-2.8.029-.617.4-.639.74-.5.474.2.247.338.279.7.014.216.081-.144.062-.149s-.028.043-.062.176a4.067,4.067,0,0,1-.314.677c-.055.9-.228,1.652.358,2.3a1.225,1.225,0,0,0,1.5-.586c.325-.586,1.04-1.3.521-1.952-.717-.327-.916.366-1.5.434-.325-.26-.308-.608-.308-1.126.28-.68.392-2,1.155-1.259a1.241,1.241,0,0,0,.653.843c.84.3.847-.521.911-.843-.121-.431-.481-.8-.295-1.23l1.952,0c.367.258.764.6.492,1.036-.393.26-1.106.716-1.106,1.3.844.847,1.689-1.3,2.145,0-.065.912-.667,1.9-1.171,2.019-.588-.066-.478-.9-1.129-.963-.716-.069-.9,1-1.1,1.521-.066.653.082,1.134.8,1.264,1.171-.13,1.85-1.2,2.5-2.108.11-.423-.03-1.146.553-1.079a.951.951,0,0,1,.653.453c.063.718-.532.4-.975,1.237a2.874,2.874,0,0,0-.2,1.953c1.172.653,2.211-.586,3.123-1.43.064-.131.259-.327.064-.522-.714-.649-1.456.858-1.842-.444.2-.783.61-1.862,1.519-2.055.392.39.258,1.394.908,1.59.911-.523.673-2.606,2.224-1.9.449.642.183.858-.012,1.247a32.2,32.2,0,0,0-4.576,5.518h-1.334a42.075,42.075,0,0,0-21.184-.008l-1.517.008a74.7,74.7,0,0,0-4.9-5.648c0-.392.052-1.28.769-1.152,1.522-.026.342,2.127,1.84,1.934.717-.263-.151-1.96,1.366-1.1a3.3,3.3,0,0,1,.909,1.089,1.784,1.784,0,0,1,.129.858c-.211,1.37-1.284-.883-1.847.356a3.058,3.058,0,0,0,2.562,1.924c.59-.13.394-.783.459-1.3-.328-.65-.178-1.155-1.021-1.69-.141-.452.176-1.209.762-.821.522.26.063.884.322,1.209.651.913,1.5,2.018,2.733,1.82.65-.455.456-1.175.326-1.761a.937.937,0,0,0-1.043-.535c-.519.2-.39,1.389-1.04.931a4.808,4.808,0,0,1-1.1-2.408c.323-1.042,1.838,1.083,2.315.154.261-.506-1.806-.948-1.47-1.78.15-.373.435-.47.725-.7l1.885-.006Zm26.506,0a1.392,1.392,0,0,1,.167.672,1.415,1.415,0,0,1-2.831,0,1.437,1.437,0,0,1,.17-.676l2.494,0Zm-11.544,8.638a56.682,56.682,0,0,0-7.741-.481,53.786,53.786,0,0,0-7.483.485l15.224,0Z" transform="translate(-19.466 -24.064)" fill="#1a1818" fill-rule="evenodd"/>
    <path id="Path_16" data-name="Path 16" d="M303.771,96.345a1.41,1.41,0,0,1,2.16,0l-2.16,0Zm9.82,0a.7.7,0,0,0,.123-.1c.655-.292,1.528-.44,1.762.1l-1.885,0Zm7.7,0a.49.49,0,0,1,.027-.462,3.125,3.125,0,0,1,3.018.077.786.786,0,0,1-.046.385Zm8.714,0c.008-.018.023-.043.033-.067.39-.458,1.12-.237,1.71-.066l.208.138-1.952-.006Zm9.479,0a1.417,1.417,0,0,1,2.494,0l-2.494,0ZM325,87.782a2.462,2.462,0,0,1-4.724-.025,7.959,7.959,0,0,1,2.407-.447,8.075,8.075,0,0,1,2.33.447l-.013.025Zm-1.481-5.776c0,.327-.312.541-.248.8.325.195.588-.26.977-.2v1.653c-.321.13-.586-.347-.914-.347-.325,1.3,1.742,1.5,1.678,2.743a8.48,8.48,0,0,1-1.55,0c-.054-.194-.085-.621-.192-1.182.064-.2-.195-.521-.39-.588-1.03-.044-.652,1.247-1.025,1.743a3.666,3.666,0,0,1-1.327,0c-.121-1.155,1.664-1.536,1.664-2.708-.262-.128-.535.511-.873.339-.17-.594.056-.933-.056-1.605.339-.085.641.538.965.085l-.323-.716c.486.008,1.134.008,1.613-.021Zm2.65,7.643c-1.527,1.4-1.695,3.414-1.889,5.493a5.993,5.993,0,0,0-2.963.03c-.322-1.954-.623-4.046-2.05-5.606.026.012.13-.323.167-.314.91-.845,1.155.874,2.111,1.019a3.779,3.779,0,0,0,2.51-.061c.762-.2,1.41-2.171,2.114-.561Zm13.356,4.217a1.414,1.414,0,1,1,1.415,1.419,1.415,1.415,0,0,1-1.415-1.419Zm-1.995-2.408a1.417,1.417,0,1,1,1.414,1.413,1.414,1.414,0,0,1-1.414-1.413ZM334.489,90.2a1.416,1.416,0,1,1,1.417,1.414,1.416,1.416,0,0,1-1.417-1.414Zm-3.67,4.407a1.417,1.417,0,1,1,1.416,1.416,1.413,1.413,0,0,1-1.416-1.416Zm.736-2.936a1.415,1.415,0,1,1,1.416,1.418,1.415,1.415,0,0,1-1.416-1.418Zm-2.206-2.52a1.417,1.417,0,1,1,1.417,1.418,1.415,1.415,0,0,1-1.417-1.418Zm-3.144-.1a1.415,1.415,0,1,1,1.412,1.415,1.411,1.411,0,0,1-1.412-1.415Zm-9.866.1a1.417,1.417,0,1,1,1.417,1.418,1.414,1.414,0,0,1-1.417-1.418Zm-3.043.1a1.417,1.417,0,1,1,1.419,1.419,1.417,1.417,0,0,1-1.419-1.419Zm-2.2,2.311a1.415,1.415,0,1,1,1.414,1.418,1.419,1.419,0,0,1-1.414-1.418Zm.737,3.041a1.415,1.415,0,1,1,1.416,1.416A1.413,1.413,0,0,1,311.83,94.6Zm-3.7-4.227a1.417,1.417,0,1,1,1.417,1.418,1.417,1.417,0,0,1-1.417-1.418Zm-3.014,1.082a1.417,1.417,0,1,1,1.417,1.413,1.416,1.416,0,0,1-1.417-1.413Zm-1.121,2.714a1.418,1.418,0,1,1,1.419,1.414,1.417,1.417,0,0,1-1.419-1.414Z" transform="translate(-20.021 -0.372)" fill="#1a1818" fill-rule="evenodd"/>
    <g id="Group_255" data-name="Group 255" transform="translate(350.181 96.578)">
      <path id="Path_17" data-name="Path 17" d="M479.989,135.8a4.837,4.837,0,0,1,1.912,0c-.078-1.681-.156-3.379-.156-5.061v-1.7a.11.11,0,0,1,.1-.117c.059,0,.119.04.234.158.843.84,3.791,4.433,5.646,6.719a6.754,6.754,0,0,1,1.073-.1,8.053,8.053,0,0,1,1.174.1c-2.207-2.5-4.376-5.021-6.465-7.385a84.524,84.524,0,0,1,6.249-6.094,4.885,4.885,0,0,1-.938.1,3.45,3.45,0,0,1-.8-.1,72.036,72.036,0,0,1-5.879,6.115c-.155.138-.2.176-.274.176s-.118-.038-.118-.154V127.38c0-1.682.078-3.381.156-5.062a4.605,4.605,0,0,1-1.912,0c.078,1.681.155,3.379.155,5.062v3.356c0,1.682-.077,3.38-.155,5.061Z" transform="translate(-479.989 -122.065)" fill="#1a1818"/>
      <path id="Path_18" data-name="Path 18" d="M511.8,130.736c0,1.682-.079,3.38-.156,5.061a4.85,4.85,0,0,1,1.914,0c-.079-1.681-.156-3.379-.156-5.061V127.38c0-1.682.077-3.381.156-5.062a4.618,4.618,0,0,1-1.914,0c.077,1.681.156,3.379.156,5.062v3.356Z" transform="translate(-499.713 -122.065)" fill="#1a1818"/>
      <path id="Path_19" data-name="Path 19" d="M537.473,135.632c-.023-.876-.058-5.2-.058-7.19,0-1.519.195-5.389.312-6.541a2.217,2.217,0,0,1-.624.1,2.518,2.518,0,0,1-.666-.1c.155,3.011.155,6.823.155,10.317-2.381-2.407-6.7-7.109-9.883-10.569H526.4c.06.878.06,2.773.06,5.233,0,2.578-.256,7.583-.412,8.5a3.232,3.232,0,0,1,.723-.1,2.659,2.659,0,0,1,.683.1c-.1-.784-.177-4.9-.177-6.585,0-2.07.041-3.241.058-3.961,3.345,3.551,6.9,7.3,9.863,10.8Z" transform="translate(-508.683 -121.648)" fill="#1a1818"/>
      <path id="Path_20" data-name="Path 20" d="M576.986,124.283a4.8,4.8,0,0,1,.45-1.507,9.829,9.829,0,0,0-4.983-1.129c-4.627,0-7.634,2.561-7.634,6.991,0,4.569,2.887,6.993,7.537,6.993a18.641,18.641,0,0,0,4.981-.936c0-.527-.02-1.074-.02-1.583,0-2.109.042-3.377.08-3.963a3.019,3.019,0,0,1-.84.1,4.547,4.547,0,0,1-.938-.1c.038.821.1,1.758.1,2.676,0,.8-.023,1.579-.042,2.362a6.977,6.977,0,0,1-3.124.627c-3.671,0-5.823-2.347-5.823-6.176,0-4.334,2.483-6.272,5.724-6.272a5.646,5.646,0,0,1,4.3,1.917Z" transform="translate(-532.84 -121.648)" fill="#1a1818"/>
      <path id="Path_21" data-name="Path 21" d="M621.24,130.714c0,1.687-.078,3.385-.161,5.083.627-.058,1.275-.1,1.9-.1s1.273.1,1.9.1c2.265,0,4.942-1.033,4.942-3.927,0-2.228-1.431-3.165-3.754-3.28v-.04c1.954-.426,3.282-1.5,3.282-3.415,0-2.21-1.9-2.816-4.12-2.816-.682,0-1.388.1-2.072.1s-1.387-.039-2.073-.1c.083,1.663.161,3.36.161,5.04v3.356Zm1.6-2.4v-1.463c0-1.229.078-2.481.117-3.714a9.221,9.221,0,0,1,1.484-.1c1.485,0,3.185.354,3.185,2.459,0,2.175-1.892,2.814-3.73,2.814Zm0,.724h.88c2.595,0,4.3.529,4.3,2.755a3.068,3.068,0,0,1-3.143,3.28,18.208,18.208,0,0,1-1.917-.095c-.04-1.31-.117-2.641-.117-3.949v-1.992Z" transform="translate(-567.89 -122.065)" fill="#1a1818" fill-rule="evenodd"/>
      <path id="Path_22" data-name="Path 22" d="M653.166,121.648c-2,4.61-4.026,9.163-6.115,13.732a2.78,2.78,0,0,1,1.444,0,54.061,54.061,0,0,1,1.894-5.236c.8-.023,1.584-.039,2.385-.039.858,0,1.721.017,2.561.039.7,1.739,1.639,3.887,2.009,5.236a5.669,5.669,0,0,1,2.071,0c-1.034-2.092-3.966-9.2-5.881-13.732Zm1.9,7.6c-.723.021-1.467.042-2.191.042-.683,0-1.424-.042-2.108-.042l2.131-4.963,2.168,4.963Z" transform="translate(-584.071 -121.648)" fill="#1a1818" fill-rule="evenodd"/>
      <path id="Path_23" data-name="Path 23" d="M694.313,128.668c0,2.46,0,6.467-4.275,6.467-4.357,0-4.357-3.458-4.357-6.115,0-2.892.116-5.549.231-6.7a3.79,3.79,0,0,1-.84.1,5.724,5.724,0,0,1-1.015-.1c.04,1.132.115,2.914.115,5.062,0,.974-.1,1.874-.1,3.083,0,3.792,1.721,5.587,5.588,5.587,3.519,0,5.527-2.167,5.566-5.626.041-2.849.2-6.286.352-8.1a1.856,1.856,0,0,1-.587.1,3.415,3.415,0,0,1-.8-.1c.115.76.115,2.638.115,6.35Z" transform="translate(-607.127 -122.065)" fill="#1a1818"/>
      <path id="Path_24" data-name="Path 24" d="M725.924,127.38c0-1.409.04-2.8.117-4.047a25.564,25.564,0,0,1,3.008-.2c3.207,0,5.549,1.116,5.549,5.651,0,5.153-3.124,6.285-6,6.285a14.6,14.6,0,0,1-2.56-.191c-.077-1.351-.117-2.756-.117-4.145V127.38Zm-1.6,3.356c0,1.682-.076,3.38-.157,5.061.881-.058,1.745-.1,2.622-.1s1.737.1,2.613.1c3.087,0,7.111-1.8,7.111-7.009,0-4.028-1.873-6.47-6.442-6.47-.977,0-1.973.1-2.951.1s-1.976-.039-2.953-.1c.081,1.681.157,3.379.157,5.062v3.356Z" transform="translate(-632.115 -122.065)" fill="#1a1818" fill-rule="evenodd"/>
      <path id="Path_25" data-name="Path 25" d="M774.718,128.639c0,4.339-2.342,6.27-5.409,6.27-3.051,0-5.388-1.931-5.388-6.27s2.337-6.272,5.388-6.272c3.066,0,5.409,1.938,5.409,6.272Zm-12.716,0c0,4.436,3.007,6.993,7.307,6.993,4.319,0,7.326-2.557,7.326-6.993s-3.007-6.991-7.326-6.991c-4.3,0-7.307,2.561-7.307,6.991Z" transform="translate(-655.688 -121.648)" fill="#1a1818" fill-rule="evenodd"/>
      <path id="Path_26" data-name="Path 26" d="M818.11,128.668c0,2.46,0,6.467-4.274,6.467-4.362,0-4.362-3.458-4.362-6.115,0-2.892.12-5.549.237-6.7a3.766,3.766,0,0,1-.838.1,5.776,5.776,0,0,1-1.018-.1c.041,1.132.118,2.914.118,5.062,0,.974-.1,1.874-.1,3.083,0,3.792,1.718,5.587,5.588,5.587,3.516,0,5.525-2.167,5.567-5.626.038-2.849.192-6.286.352-8.1a1.894,1.894,0,0,1-.59.1,3.368,3.368,0,0,1-.793-.1c.11.76.11,2.638.11,6.35Z" transform="translate(-684.256 -122.065)" fill="#1a1818"/>
      <path id="Path_27" data-name="Path 27" d="M848.129,130.736c0,1.682-.078,3.38-.158,5.061a4.85,4.85,0,0,1,1.914,0c-.078-1.681-.153-3.379-.153-5.061V127.38c0-1.682.075-3.381.153-5.062a4.618,4.618,0,0,1-1.914,0c.08,1.681.158,3.379.158,5.062v3.356Z" transform="translate(-709.248 -122.065)" fill="#1a1818"/>
      <path id="Path_28" data-name="Path 28" d="M873.8,135.632c-.018-.876-.06-5.2-.06-7.19,0-1.519.194-5.389.313-6.541a2.243,2.243,0,0,1-.627.1,2.529,2.529,0,0,1-.664-.1c.159,3.011.159,6.823.159,10.317-2.383-2.407-6.7-7.109-9.882-10.569h-.315c.059.878.059,2.773.059,5.233,0,2.578-.256,7.583-.412,8.5a3.288,3.288,0,0,1,.725-.1,2.657,2.657,0,0,1,.682.1c-.1-.784-.175-4.9-.175-6.585,0-2.07.036-3.241.058-3.961,3.339,3.551,6.9,7.3,9.862,10.8Z" transform="translate(-718.219 -121.648)" fill="#1a1818"/>
    </g>
    <g id="Group_256" data-name="Group 256" transform="translate(350.181 118.297)">
      <path id="Path_29" data-name="Path 29" d="M480.144,188.347c0,1.681-.077,3.379-.155,5.059a4.764,4.764,0,0,1,1.912,0c-.078-1.68-.156-3.378-.156-5.059v-1.658c1.682,0,3.732.02,5.041.156a2.923,2.923,0,0,1-.082-.588,2.842,2.842,0,0,1,.082-.586c-1.621.157-3.359.193-5.041.193,0-.82-.02-1.56-.02-2.461,0-.82.02-1.637.038-2.558,1.275,0,4.047.119,5.451.254a3.155,3.155,0,0,1-.059-.587,3.2,3.2,0,0,1,.059-.587c-1.4.06-2.558.1-3.727.1s-2.328-.041-3.5-.1c.078,1.683.155,3.382.155,5.061v3.36Z" transform="translate(-479.989 -179.676)" fill="#1a1818"/>
      <path id="Path_30" data-name="Path 30" d="M516.126,186.256c0,4.333-2.345,6.267-5.413,6.267-3.046,0-5.39-1.934-5.39-6.267s2.344-6.273,5.39-6.273c3.068,0,5.413,1.933,5.413,6.273Zm-12.719,0c0,4.434,3.009,6.989,7.306,6.989,4.316,0,7.328-2.556,7.328-6.989s-3.013-6.994-7.328-6.994c-4.3,0-7.306,2.557-7.306,6.994Z" transform="translate(-494.579 -179.262)" fill="#1a1818" fill-rule="evenodd"/>
      <path id="Path_31" data-name="Path 31" d="M559.524,186.275c0,2.464,0,6.467-4.278,6.467-4.358,0-4.358-3.455-4.358-6.112,0-2.892.117-5.548.233-6.7a3.823,3.823,0,0,1-.838.1,5.888,5.888,0,0,1-1.017-.1c.04,1.135.122,2.912.122,5.061,0,.978-.1,1.877-.1,3.089,0,3.788,1.721,5.582,5.588,5.582,3.517,0,5.527-2.165,5.567-5.622.039-2.852.2-6.288.353-8.11a1.914,1.914,0,0,1-.589.1,3.542,3.542,0,0,1-.8-.1c.12.762.12,2.639.12,6.349Z" transform="translate(-523.15 -179.676)" fill="#1a1818"/>
      <path id="Path_32" data-name="Path 32" d="M600.808,193.245c-.02-.879-.059-5.194-.059-7.188,0-1.523.2-5.389.314-6.545a2.284,2.284,0,0,1-.627.1,2.565,2.565,0,0,1-.666-.1c.156,3.009.156,6.82.156,10.315-2.384-2.4-6.7-7.108-9.883-10.565h-.314c.061.875.061,2.77.061,5.234,0,2.578-.256,7.579-.412,8.5a3.383,3.383,0,0,1,.724-.1,2.8,2.8,0,0,1,.686.1c-.1-.785-.179-4.9-.179-6.583,0-2.072.038-3.239.058-3.965,3.344,3.556,6.9,7.305,9.866,10.8Z" transform="translate(-548.14 -179.262)" fill="#1a1818"/>
      <path id="Path_33" data-name="Path 33" d="M631.456,184.987c0-1.4.04-2.792.116-4.044a25.088,25.088,0,0,1,3.008-.2c3.205,0,5.549,1.117,5.549,5.648,0,5.156-3.128,6.29-6,6.29a14.545,14.545,0,0,1-2.558-.2c-.076-1.349-.116-2.751-.116-4.142v-3.36Zm-1.6,3.36c0,1.681-.076,3.379-.156,5.059.881-.056,1.74-.1,2.616-.1s1.74.1,2.62.1c3.086,0,7.112-1.8,7.112-7.011,0-4.029-1.875-6.469-6.447-6.469-.976,0-1.972.1-2.952.1s-1.97-.041-2.949-.1c.08,1.683.156,3.382.156,5.061v3.36Z" transform="translate(-573.26 -179.676)" fill="#1a1818" fill-rule="evenodd"/>
      <path id="Path_34" data-name="Path 34" d="M669.5,179.262c-2,4.611-4.025,9.163-6.115,13.73a2.742,2.742,0,0,1,1.445,0,53.229,53.229,0,0,1,1.894-5.231c.8-.021,1.583-.043,2.382-.043.864,0,1.72.021,2.559.043.7,1.736,1.642,3.881,2.015,5.231a6.444,6.444,0,0,1,1.031-.1,6.546,6.546,0,0,1,1.04.1c-1.04-2.093-3.967-9.2-5.879-13.73Zm1.895,7.6c-.725.02-1.467.037-2.186.037-.685,0-1.43-.037-2.112-.037l2.125-4.966,2.173,4.966Z" transform="translate(-594.25 -179.262)" fill="#1a1818" fill-rule="evenodd"/>
      <path id="Path_35" data-name="Path 35" d="M698.522,188.347c0,1.681-.079,3.379-.155,5.059a4.777,4.777,0,0,1,1.914,0c-.08-1.68-.155-3.378-.155-5.059v-3.36q0-2.025.058-4.044a39.31,39.31,0,0,1,4.179.215,2.147,2.147,0,0,1-.094-.608,2.286,2.286,0,0,1,.094-.624c-1.679.06-3.361.1-5.041.1s-3.359-.041-5.036-.1a2.36,2.36,0,0,1,.1.605,2.246,2.246,0,0,1-.1.627,39.3,39.3,0,0,1,4.178-.215q.059,2.019.058,4.044v3.36Z" transform="translate(-613.5 -179.676)" fill="#1a1818"/>
      <path id="Path_36" data-name="Path 36" d="M726.879,188.347c0,1.681-.078,3.379-.153,5.059a4.771,4.771,0,0,1,1.913,0c-.08-1.68-.155-3.378-.155-5.059v-3.36c0-1.679.074-3.378.155-5.061a4.6,4.6,0,0,1-1.913,0c.075,1.683.153,3.382.153,5.061v3.36Z" transform="translate(-633.71 -179.676)" fill="#1a1818"/>
      <path id="Path_37" data-name="Path 37" d="M751.354,186.256c0,4.333-2.344,6.267-5.412,6.267-3.046,0-5.388-1.934-5.388-6.267s2.343-6.273,5.388-6.273c3.068,0,5.412,1.933,5.412,6.273Zm-12.715,0c0,4.434,3.008,6.989,7.3,6.989,4.322,0,7.327-2.556,7.327-6.989s-3-6.994-7.327-6.994c-4.295,0-7.3,2.557-7.3,6.994Z" transform="translate(-641.132 -179.262)" fill="#1a1818" fill-rule="evenodd"/>
      <path id="Path_38" data-name="Path 38" d="M795.714,193.245c-.02-.879-.06-5.194-.06-7.188,0-1.523.2-5.389.313-6.545a2.275,2.275,0,0,1-.626.1,2.523,2.523,0,0,1-.662-.1c.153,3.009.153,6.82.153,10.315-2.382-2.4-6.7-7.108-9.884-10.565h-.31c.06.875.06,2.77.06,5.234,0,2.578-.254,7.579-.411,8.5a3.373,3.373,0,0,1,.723-.1,2.8,2.8,0,0,1,.685.1c-.1-.785-.178-4.9-.178-6.583,0-2.072.039-3.239.059-3.965,3.342,3.556,6.894,7.305,9.866,10.8Z" transform="translate(-669.571 -179.262)" fill="#1a1818"/>
    </g>
    <g id="Group_257" data-name="Group 257" transform="translate(350.181 140.014)">
      <path id="Path_39" data-name="Path 39" d="M490.242,243.89c0,2.464,0,6.463-4.278,6.463-4.353,0-4.353-3.456-4.353-6.112,0-2.892.114-5.549.231-6.7a3.9,3.9,0,0,1-.838.1,5.807,5.807,0,0,1-1.015-.1c.038,1.134.115,2.912.115,5.059,0,.975-.1,1.875-.1,3.088,0,3.79,1.716,5.585,5.584,5.585,3.515,0,5.526-2.167,5.565-5.62.04-2.857.2-6.294.352-8.112a1.907,1.907,0,0,1-.584.1,3.513,3.513,0,0,1-.8-.1c.116.765.116,2.636.116,6.349Z" transform="translate(-479.989 -237.287)" fill="#1a1818"/>
      <path id="Path_40" data-name="Path 40" d="M531.52,250.853c-.02-.878-.057-5.2-.057-7.188,0-1.521.194-5.393.309-6.544a2.268,2.268,0,0,1-.621.1,2.564,2.564,0,0,1-.668-.1c.157,3.008.157,6.822.157,10.314-2.384-2.4-6.7-7.108-9.885-10.568h-.311c.06.878.06,2.774.06,5.234,0,2.582-.256,7.581-.412,8.5a3.332,3.332,0,0,1,.722-.1,2.75,2.75,0,0,1,.686.1c-.1-.78-.179-4.9-.179-6.578,0-2.074.04-3.245.06-3.97,3.342,3.558,6.9,7.307,9.865,10.8Z" transform="translate(-504.974 -236.867)" fill="#1a1818"/>
      <path id="Path_41" data-name="Path 41" d="M560.57,245.96c0,1.682-.08,3.38-.156,5.058a4.864,4.864,0,0,1,1.913,0c-.078-1.677-.155-3.375-.155-5.058V242.6c0-1.683.077-3.377.155-5.059a4.579,4.579,0,0,1-1.913,0c.077,1.682.156,3.377.156,5.059v3.36Z" transform="translate(-530.095 -237.287)" fill="#1a1818"/>
      <path id="Path_42" data-name="Path 42" d="M575.427,245.96c0,1.682-.077,3.38-.156,5.058a5.643,5.643,0,0,1,.96-.1,5.748,5.748,0,0,1,.957.1c-.08-1.677-.158-3.375-.158-5.058V242.6q0-2.021.056-4.045a39.536,39.536,0,0,1,4.181.216,2.181,2.181,0,0,1-.1-.608,2.352,2.352,0,0,1,.1-.624c-1.678.06-3.358.1-5.036.1s-3.361-.041-5.04-.1a2.319,2.319,0,0,1,.1.605,2.18,2.18,0,0,1-.1.626,39.564,39.564,0,0,1,4.178-.216q.061,2.023.058,4.045v3.36Z" transform="translate(-536.809 -237.287)" fill="#1a1818"/>
      <path id="Path_43" data-name="Path 43" d="M603.784,245.939c0,1.682-.08,3.381-.156,5.079,1.192-.057,2.363-.1,3.554-.1s2.365.038,3.515.1a2.921,2.921,0,0,1-.061-.564,3.37,3.37,0,0,1,.061-.607,35.341,35.341,0,0,1-5.274.255c-.02-.488-.037-1.448-.037-2.932,0-1.872,0-2.361.017-2.83.939,0,3.4.038,4.749.172a2.939,2.939,0,0,1-.06-.583,3.112,3.112,0,0,1,.06-.605c-1.155.1-2.44.191-4.749.191,0-.485-.017-1.56-.017-2.575,0-.958.059-1.639.079-2.482,2.536,0,3.495.139,5.135.258a2.9,2.9,0,0,1,0-1.176c-1.152.06-2.3.1-3.478.1s-2.324-.041-3.495-.1c.077,1.661.156,3.36.156,5.042v3.356Z" transform="translate(-557.018 -237.287)" fill="#1a1818"/>
      <path id="Path_44" data-name="Path 44" d="M631.3,242.6c0-1.406.038-2.793.117-4.045a25.269,25.269,0,0,1,3-.193c3.208,0,5.552,1.112,5.552,5.643,0,5.16-3.127,6.294-6,6.294a14.462,14.462,0,0,1-2.557-.2c-.079-1.35-.117-2.753-.117-4.142V242.6Zm-1.6,3.36c0,1.682-.078,3.38-.156,5.058.877-.057,1.739-.1,2.62-.1s1.734.1,2.613.1c3.086,0,7.114-1.795,7.114-7.012,0-4.023-1.875-6.465-6.452-6.465-.972,0-1.968.1-2.945.1s-1.97-.041-2.949-.1c.078,1.682.156,3.377.156,5.059v3.36Z" transform="translate(-573.166 -237.287)" fill="#1a1818" fill-rule="evenodd"/>
      <path id="Path_45" data-name="Path 45" d="M682.3,248a5.865,5.865,0,0,1-.372,1.738,4.777,4.777,0,0,0,3.222,1.112c3.008,0,4.788-2.008,4.788-4.393,0-4.316-6.155-2.8-6.155-6.447a2.376,2.376,0,0,1,2.521-2.422,2.463,2.463,0,0,1,2.328,1.836h.231a6.1,6.1,0,0,1,.525-1.642,4.3,4.3,0,0,0-2.889-.919c-2.6,0-4.238,1.527-4.238,3.692,0,4.594,6.155,3.049,6.155,6.642a2.7,2.7,0,0,1-2.8,2.833A3.369,3.369,0,0,1,682.538,248Z" transform="translate(-605.803 -236.867)" fill="#1a1818"/>
      <path id="Path_46" data-name="Path 46" d="M710.791,245.96c0,1.682-.077,3.38-.16,5.058a4.9,4.9,0,0,1,1.921,0c-.081-1.677-.16-3.375-.16-5.058V242.6q0-2.021.058-4.045a39.6,39.6,0,0,1,4.18.216,2.313,2.313,0,0,1-.1-.608,2.5,2.5,0,0,1,.1-.624c-1.679.06-3.358.1-5.038.1s-3.362-.041-5.043-.1a2.233,2.233,0,0,1,.1.605,2.1,2.1,0,0,1-.1.626,39.707,39.707,0,0,1,4.183-.216q.056,2.023.058,4.045v3.36Z" transform="translate(-621.14 -237.287)" fill="#1a1818"/>
      <path id="Path_47" data-name="Path 47" d="M737.488,236.867c-1.99,4.61-4.021,9.162-6.112,13.731a2.8,2.8,0,0,1,1.447,0,51.315,51.315,0,0,1,1.894-5.228c.8-.022,1.582-.045,2.384-.045.859,0,1.719.023,2.559.045.7,1.735,1.64,3.886,2.013,5.228a6.372,6.372,0,0,1,1.03-.1,6.439,6.439,0,0,1,1.041.1c-1.041-2.087-3.967-9.2-5.883-13.731Zm1.9,7.6c-.72.019-1.469.04-2.191.04-.679,0-1.424-.04-2.109-.04l2.128-4.964,2.172,4.964Z" transform="translate(-636.607 -236.867)" fill="#1a1818" fill-rule="evenodd"/>
      <path id="Path_48" data-name="Path 48" d="M766.512,245.96c0,1.682-.077,3.38-.155,5.058a4.856,4.856,0,0,1,1.912,0c-.076-1.677-.152-3.375-.152-5.058V242.6c0-1.347.015-2.7.058-4.045a39.67,39.67,0,0,1,4.18.216,2.126,2.126,0,0,1-.1-.608,2.291,2.291,0,0,1,.1-.624c-1.679.06-3.362.1-5.042.1s-3.36-.041-5.038-.1a2.353,2.353,0,0,1,.1.605,2.217,2.217,0,0,1-.1.626,39.532,39.532,0,0,1,4.179-.216c.036,1.348.059,2.7.059,4.045v3.36Z" transform="translate(-655.857 -237.287)" fill="#1a1818"/>
      <path id="Path_49" data-name="Path 49" d="M794.868,245.939c0,1.682-.08,3.381-.158,5.079,1.193-.057,2.365-.1,3.554-.1s2.363.038,3.516.1a2.7,2.7,0,0,1-.057-.564,3.114,3.114,0,0,1,.057-.607,35.384,35.384,0,0,1-5.273.255c-.021-.488-.04-1.448-.04-2.932,0-1.872,0-2.361.019-2.83.939,0,3.4.038,4.746.172a3.024,3.024,0,0,1-.057-.583,3.2,3.2,0,0,1,.057-.605c-1.15.1-2.438.191-4.746.191,0-.485-.019-1.56-.019-2.575,0-.958.06-1.639.08-2.482,2.537,0,3.495.139,5.139.258a2.915,2.915,0,0,1,0-1.176c-1.154.06-2.309.1-3.479.1s-2.324-.041-3.5-.1c.078,1.661.158,3.36.158,5.042v3.356Z" transform="translate(-676.066 -237.287)" fill="#1a1818"/>
      <path id="Path_50" data-name="Path 50" d="M818.666,248a5.741,5.741,0,0,1-.373,1.738,4.786,4.786,0,0,0,3.223,1.112c3.012,0,4.785-2.008,4.785-4.393,0-4.316-6.15-2.8-6.15-6.447a2.375,2.375,0,0,1,2.52-2.422,2.457,2.457,0,0,1,2.323,1.836h.232a6.043,6.043,0,0,1,.529-1.642,4.3,4.3,0,0,0-2.887-.919c-2.6,0-4.244,1.527-4.244,3.692,0,4.594,6.153,3.049,6.153,6.642a2.694,2.694,0,0,1-2.79,2.833A3.376,3.376,0,0,1,818.9,248Z" transform="translate(-690.758 -236.867)" fill="#1a1818"/>
    </g>
    <path id="Path_51" data-name="Path 51" d="M436.04,81.408h.709v83.05h-.709V81.408Z" transform="translate(-102.427)" fill="#1a1818"/>
    <path id="Path_52" data-name="Path 52" d="M271.636,81.408h.711v83.05h-.711V81.408Z" fill="#1a1818"/>
  </g>
</svg>
