<?xml version="1.0" encoding="utf-8"?>
<!-- Generator: Adobe Illustrator 25.0.1, SVG Export Plug-In . SVG Version: 6.00 Build 0)  -->
<svg version="1.1" id="layer" xmlns="http://www.w3.org/2000/svg" xmlns:xlink="http://www.w3.org/1999/xlink" x="0px" y="0px"
	 viewBox="0 0 579.2 106.3" style="enable-background:new 0 0 579.2 106.3;" xml:space="preserve">
<style type="text/css">
	.st0{fill:#B8D3F4;}
	.st1{fill:#3385FF;}
	.st2{fill:#7A7B82;}
</style>
<g id="Page-1">
	<g id="logo" transform="translate(0.000000, -1.000000)">
		<g id="::-icon">
			<path id="Shape" class="st0" d="M87.1,54.1c0,6.7-1.9,13.1-5.3,18.4l13.6,13.7c6.7-8.9,10.8-20.1,10.8-32.1S102,30.9,95.4,22
				L81.8,35.7C85.1,41,87.1,47.2,87.1,54.1L87.1,54.1z"/>
			<path id="Shape_1_" class="st1" d="M53.2,88.2c-18.6,0-33.9-15.4-33.9-34.1S34.6,20,53.2,20c6.9,0,13.1,2,18.3,5.6l13.6-13.7
				C76.2,5.2,65.1,1,53.1,1C23.9,1,0,24.7,0,54.3s23.9,53,53.1,53c12.2,0,23.4-4.2,32.2-10.9L71.7,82.7
				C66.5,86.2,60.1,88.2,53.2,88.2L53.2,88.2z"/>
		</g>
	</g>
</g>
<g id="logotype">
	<g transform="translate(-135.000000, -141.000000)">
		<g transform="translate(110.000000, 138.000000)">
			<g transform="translate(0.000000, 3.000000)">
				<g transform="translate(24.945455, 0.000000)">
					<path class="st2" d="M562.6,66.1c-3.4,0-6.4-1.4-8.5-3.8c-0.1-0.2-0.1-0.5,0.1-0.6l19.9-8.4l5.8-2.5c0.2-0.1,0.2-0.2,0.2-0.4
						c-1.9-8.2-9.4-14.2-18.1-13.9c-9.2,0.4-17,7.8-17.3,17.1c-0.5,10.3,7.7,18.9,18,18.9c7.5,0,13.9-4.6,16.6-11.1
						c0.1-0.2,0-0.5-0.2-0.5l-5.8-1.1c-0.1,0-0.4,0-0.4,0.2C570.8,63.6,567,66.1,562.6,66.1L562.6,66.1z M562.6,43.1
						c3.4,0,6.5,1.5,8.5,3.9c0.1,0.2,0.1,0.5-0.1,0.6c0,0-19.2,8.2-19.4,8.3c-0.2,0.1-0.5-0.1-0.5-0.2v-0.9
						C551,48.2,556.2,43.1,562.6,43.1L562.6,43.1z"/>
					<path class="st2" d="M543.9,37.1h-5.7c-0.1,0-0.2,0.1-0.4,0.2l-9.2,27.1c-0.2,0.6-0.9,0.6-1.2,0l-9.2-27.1
						c0-0.1-0.1-0.2-0.4-0.2h-5.7c-0.2,0-0.4,0.2-0.4,0.5l11.7,34.1c0,0.1,0.1,0.2,0.4,0.2h8.1c0.1,0,0.2-0.1,0.4-0.2L544,37.6
						C544.2,37.4,544.1,37.1,543.9,37.1L543.9,37.1z"/>
					<path class="st2" d="M506.4,37.1h-5.8c-0.2,0-0.4,0.1-0.4,0.4v34.1c0,0.2,0.1,0.4,0.4,0.4h5.8c0.2,0,0.4-0.1,0.4-0.4V37.5
						C506.8,37.4,506.6,37.1,506.4,37.1L506.4,37.1z"/>
					<path class="st2" d="M506.4,26h-5.8c-0.2,0-0.4,0.1-0.4,0.4v5.8c0,0.2,0.1,0.4,0.4,0.4h5.8c0.2,0,0.4-0.1,0.4-0.4v-5.9
						C506.8,26.1,506.6,26,506.4,26L506.4,26z"/>
					<path class="st2" d="M494.4,37.1h-6.5c-0.1,0-0.2-0.1-0.2-0.2V22.1c0-0.2-0.1-0.4-0.4-0.4h-5.8c-0.2,0-0.4,0.1-0.4,0.4v14.8
						c0,0.1-0.1,0.2-0.2,0.2h-6.4c-0.2,0-0.4,0.1-0.4,0.4v5.8c0,0.2,0.1,0.4,0.4,0.4h6.4c0.1,0,0.2,0.1,0.2,0.2v27.7
						c0,0.2,0.1,0.4,0.4,0.4h5.8c0.2,0,0.4-0.1,0.4-0.4V43.9c0-0.1,0.1-0.2,0.2-0.2h6.5c0.2,0,0.4-0.1,0.4-0.4v-5.8
						C494.8,37.4,494.5,37.1,494.4,37.1L494.4,37.1z"/>
					<path class="st2" d="M456.4,66.1c-7.1,0-12.7-6.4-11.4-13.8c0.7-4,4.7-8.2,8.8-9c4.4-0.9,8.5,0.6,11.1,3.6
						c0.1,0.1,0.4,0.1,0.5,0c0.9-0.9,3.9-3.9,4.1-4.1c0.1-0.1,0.1-0.4,0-0.5c-3.4-3.8-8.5-6-14.1-5.8c-9.1,0.5-16.7,7.9-17.2,17.1
						c-0.5,10.3,7.7,18.9,18,18.9c5.2,0,10-2.3,13.3-5.8c0.1-0.1,0.1-0.2,0-0.4c-0.7-0.7-3.3-3.3-4.1-4.1c-0.1-0.1-0.4-0.1-0.5,0
						C462.9,64.6,459.8,66.1,456.4,66.1L456.4,66.1z"/>
					<path class="st2" d="M417.6,66.1c-3.4,0-6.4-1.4-8.5-3.8c-0.1-0.2-0.1-0.5,0.1-0.6l19.9-8.4l5.8-2.5c0.2-0.1,0.2-0.2,0.2-0.4
						c-1.9-8.2-9.4-14.2-18.1-13.9c-9.2,0.4-17,7.8-17.3,17.1c-0.5,10.3,7.7,18.9,18,18.9c7.5,0,13.9-4.6,16.6-11.1
						c0.1-0.2,0-0.5-0.2-0.5l-5.8-1.1c-0.1,0-0.4,0-0.4,0.2C425.8,63.6,421.9,66.1,417.6,66.1L417.6,66.1z M417.6,43.1
						c3.4,0,6.5,1.5,8.5,3.9c0.1,0.2,0.1,0.5-0.1,0.6c0,0-19.2,8.2-19.4,8.3c-0.2,0.1-0.5-0.1-0.5-0.2v-0.9
						C406,48.2,411.2,43.1,417.6,43.1L417.6,43.1z"/>
					<path class="st2" d="M394.7,21.7h-5.8c-0.2,0-0.4,0.1-0.4,0.4v49.6c0,0.2,0.1,0.4,0.4,0.4h5.8c0.2,0,0.4-0.1,0.4-0.4V22.1
						C395.1,21.8,394.8,21.7,394.7,21.7L394.7,21.7z"/>
					<path class="st2" d="M382,21.7h-5.8c-0.2,0-0.4,0.1-0.4,0.4v49.6c0,0.2,0.1,0.4,0.4,0.4h5.8c0.2,0,0.4-0.1,0.4-0.4V22.1
						C382.3,21.8,382.1,21.7,382,21.7L382,21.7z"/>
					<path class="st2" d="M353.6,43.1c6.4,0,11.5,5.2,11.5,11.5s-5.2,11.5-11.5,11.5s-11.5-5.2-11.5-11.5S347.2,43.1,353.6,43.1
						L353.6,43.1z M353.6,36.5c-10,0-18,8.1-18,18c0,10,8.1,18,18,18s18-8.1,18-18C371.6,44.6,363.5,36.5,353.6,36.5L353.6,36.5
						L353.6,36.5z"/>
					<path class="st2" d="M320.5,66.1c-7.1,0-12.7-6.4-11.4-13.8c0.7-4,4.7-8.2,8.8-9c4.4-0.9,8.5,0.6,11.1,3.6
						c0.1,0.1,0.4,0.1,0.5,0c0.9-0.9,3.9-3.9,4.1-4.1c0.1-0.1,0.1-0.4,0-0.5c-3.4-3.8-8.5-6-14.1-5.8c-9.1,0.5-16.7,7.9-17.2,17.1
						c-0.5,10.3,7.7,18.9,18,18.9c5.2,0,10-2.3,13.3-5.8c0.1-0.1,0.1-0.2,0-0.4c-0.7-0.7-3.3-3.3-4.1-4.1c-0.1-0.1-0.4-0.1-0.5,0
						C327,64.6,323.9,66.1,320.5,66.1L320.5,66.1z"/>
					<path class="st2" d="M261.6,36.5c-3.8,0-8.2,2.4-10.2,5.2c-0.1,0.2-0.6,0.1-0.6-0.1v-4.1c0-0.1-0.1-0.4-0.4-0.4h-5.8
						c-0.1,0-0.4,0.1-0.4,0.4v17.2v17.1c0,0.1,0.1,0.4,0.4,0.4h5.8c0.1,0,0.4-0.1,0.4-0.4V54.7c0-6.5,4.4-11.1,10.7-11.1
						c8.3,0,10.8,5.5,10.8,11.9v16.4c0,0.1,0.1,0.4,0.4,0.4h5.8c0.1,0,0.4-0.1,0.4-0.4V55.5C278.9,45.4,274.1,36.5,261.6,36.5
						L261.6,36.5z"/>
					<path class="st2" d="M223.3,66.1c-3.4,0-6.4-1.4-8.5-3.8c-0.1-0.2-0.1-0.5,0.1-0.6l19.9-8.4l5.8-2.5c0.2-0.1,0.2-0.2,0.2-0.4
						c-1.9-8.2-9.4-14.2-18.1-13.9c-9.2,0.4-17,7.8-17.3,17.1c-0.5,10.3,7.7,18.9,18,18.9c7.5,0,13.9-4.6,16.6-11.1
						c0.1-0.2,0-0.5-0.2-0.5l-5.8-1.1c-0.1,0-0.4,0-0.4,0.2C231.4,63.6,227.6,66.1,223.3,66.1z M223.3,43.1c3.4,0,6.5,1.5,8.5,3.9
						c0.1,0.2,0.1,0.5-0.1,0.6c0,0-19.2,8.2-19.4,8.3c-0.2,0.1-0.5-0.1-0.5-0.2v-0.9C211.8,48.2,217,43.1,223.3,43.1z"/>
					<path class="st2" d="M183.9,36.2c-4.5,0.1-8.1,1.9-10.6,4.9c-0.2,0.2-0.6,0.1-0.6-0.2v-3.3c0-0.2-0.1-0.4-0.4-0.4h-5.8
						c-0.2,0-0.4,0.1-0.4,0.4v49.7c0,0.2,0.1,0.4,0.4,0.4h5.7c0.2,0,0.4-0.1,0.4-0.4V67.7c0-0.4,0.4-0.5,0.6-0.2
						c2.5,3,6.2,4.9,10.9,4.9c11,0,19.8-10,17.7-21.3C200.4,42.2,192.6,36.1,183.9,36.2z M186.1,65.6c-7.8,1.3-14.6-5.5-13.3-13.3
						c0.8-4.7,4.6-8.7,9.4-9.4c7.8-1.3,14.6,5.5,13.3,13.3C194.8,61,190.9,64.7,186.1,65.6z"/>
					<path class="st2" d="M144.9,36.5c-10,0-18,8.1-18,18c0,10,8.1,18,18,18c10,0,18-8.1,18-18C162.9,44.6,154.8,36.5,144.9,36.5z
						 M144.9,43.1c6.4,0,11.5,5.2,11.5,11.5s-5.2,11.5-11.5,11.5s-11.5-5.2-11.5-11.5S138.6,43.1,144.9,43.1z"/>
				</g>
			</g>
		</g>
	</g>
</g>
</svg>
