<?xml version="1.0" encoding="utf-8"?>
<!-- Generator: Adobe Illustrator 25.0.1, SVG Export Plug-In . SVG Version: 6.00 Build 0)  -->
<svg version="1.1" id="Layer_1" xmlns="http://www.w3.org/2000/svg" xmlns:xlink="http://www.w3.org/1999/xlink" x="0px" y="0px"
	 viewBox="0 0 142.7 41" style="enable-background:new 0 0 142.7 41;" xml:space="preserve">
<style type="text/css">
	.st0{fill:#333333;}
	.st1{fill:#9A67FF;}
</style>
<g>
	<g>
		<polygon class="st0" points="46.8,17.9 46.8,8 43.5,8 43.5,5.7 53,5.7 53,8 49.6,8 49.6,17.9 		"/>
		<polygon class="st0" points="54.7,17.9 54.7,5.7 62.3,5.7 62.3,8 57.4,8 57.4,10.5 61.6,10.5 61.6,12.8 57.4,12.8 57.4,15.6 
			62.5,15.6 62.5,17.9 		"/>
		<path class="st0" d="M69.8,18.1c-0.8,0-1.5-0.1-2.2-0.4c-0.7-0.3-1.3-0.7-1.8-1.2c-0.5-0.5-0.9-1.2-1.2-1.9
			c-0.3-0.8-0.4-1.7-0.4-2.7c0-1,0.2-1.9,0.5-2.7c0.3-0.8,0.7-1.5,1.3-2c0.5-0.5,1.1-1,1.8-1.3c0.7-0.3,1.4-0.4,2.2-0.4
			c0.8,0,1.5,0.2,2.1,0.5c0.6,0.3,1.1,0.7,1.6,1.1l-1.5,1.8c-0.3-0.3-0.6-0.5-1-0.7C70.8,8,70.4,7.9,70,7.9c-0.4,0-0.8,0.1-1.2,0.3
			c-0.4,0.2-0.7,0.4-1,0.8c-0.3,0.3-0.5,0.7-0.6,1.2c-0.1,0.5-0.2,1-0.2,1.6c0,1.3,0.3,2.2,0.8,2.9c0.5,0.7,1.3,1,2.2,1
			c0.5,0,0.9-0.1,1.3-0.3c0.4-0.2,0.7-0.5,1-0.8l1.5,1.7C72.7,17.5,71.4,18.1,69.8,18.1z"/>
		<polygon class="st0" points="75.4,17.9 75.4,5.7 78.2,5.7 78.2,10.4 82.4,10.4 82.4,5.7 85.2,5.7 85.2,17.9 82.4,17.9 82.4,12.8 
			78.2,12.8 78.2,17.9 		"/>
		<polygon class="st0" points="93.8,17.9 93.8,8 90.4,8 90.4,5.7 99.9,5.7 99.9,8 96.5,8 96.5,17.9 		"/>
		<path class="st0" d="M111.2,9.1c-0.3-0.8-0.6-1.4-1.1-2c-0.5-0.5-1.1-0.9-1.8-1.2c-0.7-0.3-1.4-0.4-2.2-0.4
			c-0.8,0-1.6,0.1-2.3,0.4c-0.7,0.3-1.3,0.7-1.7,1.2c-0.5,0.5-0.9,1.2-1.1,2c-0.3,0.8-0.4,1.7-0.4,2.7s0.1,1.9,0.4,2.7
			c0.3,0.8,0.7,1.5,1.1,2c0.5,0.5,1.1,1,1.7,1.3c0.7,0.3,1.4,0.4,2.3,0.4c0.8,0,1.6-0.1,2.2-0.4c0.7-0.3,1.3-0.7,1.8-1.3
			c0.5-0.5,0.9-1.2,1.1-2c0.3-0.8,0.4-1.7,0.4-2.7C111.6,10.8,111.4,9.9,111.2,9.1z M108,14.7c-0.5,0.7-1.1,1.1-2,1.1
			c-0.8,0-1.5-0.4-2-1.1c-0.5-0.7-0.7-1.7-0.7-2.9c0-1.2,0.2-2.2,0.7-2.9c0.5-0.7,1.1-1,2-1c0.8,0,1.5,0.3,2,1
			c0.5,0.7,0.7,1.6,0.7,2.9C108.7,13,108.5,14,108,14.7z"/>
	</g>
	<g>
		<polygon class="st0" points="46.8,35.3 46.8,25.4 43.5,25.4 43.5,23.1 53,23.1 53,25.4 49.6,25.4 49.6,35.3 		"/>
		<polygon class="st0" points="54.7,35.3 54.7,23.1 57.4,23.1 57.4,27.8 61.6,27.8 61.6,23.1 64.4,23.1 64.4,35.3 61.6,35.3 
			61.6,30.2 57.4,30.2 57.4,35.3 		"/>
		<polygon class="st0" points="67.1,35.3 67.1,23.1 74.7,23.1 74.7,25.4 69.8,25.4 69.8,27.8 74,27.8 74,30.2 69.8,30.2 69.8,33 
			74.9,33 74.9,35.3 		"/>
		<path class="st0" d="M87.6,30.4c0.7-0.3,1.2-0.7,1.6-1.3c0.4-0.6,0.6-1.3,0.6-2.2c0-0.7-0.1-1.3-0.4-1.8c-0.2-0.5-0.6-0.9-1-1.2
			c-0.4-0.3-0.9-0.5-1.5-0.6c-0.6-0.1-1.2-0.2-1.8-0.2h-4.4v12.2h2.7v-4.4H85l2.3,4.4h3.1L87.6,30.4z M86.5,28.2
			c-0.4,0.3-0.9,0.4-1.6,0.4h-1.4v-3.4h1.4c0.7,0,1.3,0.1,1.6,0.4c0.4,0.2,0.6,0.7,0.6,1.3C87.1,27.5,86.9,27.9,86.5,28.2z"/>
		<polygon class="st0" points="92,35.3 92,23.1 99.6,23.1 99.6,25.4 94.7,25.4 94.7,27.8 98.9,27.8 98.9,30.2 94.7,30.2 94.7,33 
			99.8,33 99.8,35.3 		"/>
		<path class="st0" d="M105.8,35.5c-0.8,0-1.6-0.1-2.4-0.4c-0.8-0.3-1.5-0.7-2.1-1.3l1.6-1.9c0.4,0.4,0.9,0.7,1.4,0.9
			c0.5,0.2,1.1,0.4,1.6,0.4c0.6,0,1-0.1,1.3-0.3c0.3-0.2,0.4-0.5,0.4-0.9c0-0.2,0-0.3-0.1-0.5c-0.1-0.1-0.2-0.3-0.4-0.4
			c-0.1-0.1-0.3-0.2-0.6-0.3c-0.2-0.1-0.4-0.2-0.7-0.3l-1.6-0.7c-0.3-0.1-0.6-0.3-0.9-0.5c-0.3-0.2-0.5-0.4-0.8-0.7
			c-0.2-0.3-0.4-0.6-0.5-0.9c-0.1-0.4-0.2-0.8-0.2-1.2c0-0.5,0.1-1,0.3-1.4c0.2-0.4,0.5-0.8,0.9-1.2c0.4-0.3,0.8-0.6,1.4-0.8
			c0.5-0.2,1.1-0.3,1.8-0.3c0.7,0,1.4,0.1,2.1,0.4c0.7,0.3,1.3,0.7,1.8,1.2l-1.4,1.7c-0.4-0.3-0.8-0.5-1.2-0.7
			c-0.4-0.2-0.8-0.3-1.3-0.3c-0.5,0-0.9,0.1-1.1,0.3c-0.3,0.2-0.4,0.5-0.4,0.8c0,0.2,0,0.3,0.1,0.5c0.1,0.1,0.2,0.2,0.4,0.4
			c0.2,0.1,0.4,0.2,0.6,0.3c0.2,0.1,0.5,0.2,0.7,0.3l1.6,0.6c0.7,0.3,1.3,0.7,1.8,1.2c0.4,0.5,0.7,1.2,0.7,2.1c0,0.5-0.1,1-0.3,1.5
			c-0.2,0.4-0.5,0.8-0.9,1.2c-0.4,0.3-0.9,0.6-1.4,0.8C107.1,35.4,106.5,35.5,105.8,35.5z"/>
		<path class="st0" d="M117.3,35.5c-0.8,0-1.5-0.1-2.2-0.4c-0.7-0.3-1.3-0.7-1.8-1.2c-0.5-0.5-0.9-1.2-1.2-1.9
			c-0.3-0.8-0.4-1.7-0.4-2.7c0-1,0.2-1.9,0.5-2.7c0.3-0.8,0.7-1.5,1.3-2c0.5-0.5,1.1-1,1.8-1.3c0.7-0.3,1.4-0.4,2.2-0.4
			c0.8,0,1.5,0.2,2.1,0.5c0.6,0.3,1.1,0.7,1.6,1.1l-1.5,1.8c-0.3-0.3-0.6-0.5-1-0.7c-0.3-0.2-0.7-0.3-1.2-0.3
			c-0.4,0-0.8,0.1-1.2,0.3c-0.4,0.2-0.7,0.4-1,0.8c-0.3,0.3-0.5,0.7-0.6,1.2c-0.1,0.5-0.2,1-0.2,1.6c0,1.3,0.3,2.2,0.8,2.9
			c0.5,0.7,1.3,1,2.2,1c0.5,0,0.9-0.1,1.3-0.3c0.4-0.2,0.7-0.5,1-0.8l1.5,1.7C120.3,34.9,119,35.5,117.3,35.5z"/>
		<path class="st0" d="M127.4,35.5c-1.6,0-2.8-0.5-3.6-1.4c-0.8-0.9-1.3-2.4-1.3-4.5v-6.5h2.8v6.8c0,1.2,0.2,2,0.5,2.5
			c0.4,0.5,0.9,0.7,1.6,0.7c0.7,0,1.2-0.2,1.6-0.7c0.4-0.5,0.6-1.3,0.6-2.5v-6.8h2.7v6.5c0,2-0.4,3.5-1.2,4.5
			C130.2,35,129,35.5,127.4,35.5z"/>
		<polygon class="st0" points="134.9,35.3 134.9,23.1 142.5,23.1 142.5,25.4 137.6,25.4 137.6,27.8 141.8,27.8 141.8,30.2 
			137.6,30.2 137.6,33 142.7,33 142.7,35.3 		"/>
	</g>
</g>
<path class="st1" d="M36.2,9.4c4.7,6.9,4.7,16,0,22.9c-0.5,0.8-1.6,0.8-2.3,0.2l-5.8-5.1c-0.6-0.6-0.7-1.5-0.3-2.3
	c1.9-3.1,1.9-5.9,0-8.9c-0.5-0.7-0.4-1.7,0.3-2.3L34,9.1C34.7,8.6,35.7,8.7,36.2,9.4z"/>
<path class="st1" d="M3.5,9.4c-4.7,6.9-4.7,16,0,22.9c0.5,0.8,1.6,0.8,2.3,0.2l5.8-5.1c0.6-0.6,0.7-1.5,0.3-2.3
	c-1.9-3.1-1.9-5.9,0-8.9c0.5-0.7,0.4-1.7-0.3-2.3L5.8,9.1C5.1,8.6,4.1,8.7,3.5,9.4z"/>
<path class="st1" d="M31.4,37.2c-6.9,4.7-16,4.7-22.9,0c-0.8-0.5-0.8-1.6-0.2-2.3l5.1-5.8c0.6-0.6,1.5-0.7,2.3-0.3
	c3.1,1.9,5.9,1.9,8.9,0c0.7-0.5,1.7-0.4,2.3,0.3l4.8,5.8C32.2,35.7,32.1,36.7,31.4,37.2z"/>
<path class="st1" d="M31.4,4.5c-6.9-4.7-16-4.7-22.9,0C7.7,5,7.6,6.1,8.2,6.8l5.1,5.8c0.6,0.6,1.5,0.7,2.3,0.3
	c3.1-1.9,5.9-1.9,8.9,0c0.7,0.5,1.7,0.4,2.3-0.3l4.8-5.8C32.2,6.1,32.1,5,31.4,4.5z"/>
</svg>
