<svg xmlns="http://www.w3.org/2000/svg" height="82.758" viewBox="0 0 191.11775 82.758247" width="191.12"><g transform="matrix(1.25 0 0 -1.25 -217.44 586.85)"><path d="m120.3 1.1035c-5.27 0-9.26 1.4377-11.88 4.2715-2.63 2.8562-3.96 6.48-3.96 10.77v4.976h-5.827v8.049h5.827v25.31h-5.835v8.004h24.495v-8.004h-6.81v-25.31h6.81v-8.049h-6.81v-5.74c0-5.7789 2.49-6.9904 4.57-6.9904 1.85 0 3.3 1.3626 4.33 4.0174 0.67-0.522 7.5-5.8558 8.13-6.3533-2.73-3.2763-7.1-4.9512-13.04-4.9512zm-119.18 0.5977v23.649h8.7187v-13.912h11.344v42.626h-9.362v8.541h32.948v-8.541h-9.362v-42.626h11.612s-0.013 6.452-0.014 7.214c0.714 0 7.888-0.002 8.599-0.002v-16.949l-54.484 0.0002zm141.86 3.6347c-0.97 0.695-3.63 2.6094-3.63 2.6094s-7.89 5.6607-8.23 5.9087v7.289h-5.51v8.048h5.51v23.651c0 7.022 3.3 10.291 10.39 10.291 3.03 0 6.21-0.646 9.44-1.899v-7.584c-1.27 0.369-2.39 0.584-3.36 0.584-1.9 0-3.13-0.415-3.77-1.271-0.57-0.773-0.84-2.05-0.84-4.018v-19.754h7.97v-8.048h-7.97v-15.807zm24.08 14.828c-4.66 0-8.45 1.196-11.25 3.555-2.77 2.33-4.17 5.225-4.17 8.605 0 3.603 1.48 6.537 4.41 8.721 3.01 2.244 8.03 3.945 14.92 5.059 3.5 0.583 5.8 1.19 7.04 1.855 1.37 0.737 2.06 1.806 2.06 3.174 0 1.441-0.73 2.63-2.19 3.535-1.36 0.847-3.25 1.275-5.62 1.275-2.74 0-5.09-0.642-6.97-1.914-1.75-1.182-2.74-2.79-2.98-4.758h-9.02v13.706h8.92v-3.102l1.05 1.148c1.78 1.949 5.2 2.938 10.16 2.938 5.38 0 9.57-1.312 12.47-3.899 2.89-2.571 4.35-5.923 4.35-9.96 0-2.838-0.77-5.299-2.28-7.317-1.52-2.029-3.57-3.503-6.09-4.383-2.62-0.911-6.63-1.838-11.91-2.752-3.47-0.613-5.59-1.139-6.47-1.605-1.02-0.534-1.55-1.376-1.55-2.438 0-2.598 2.22-3.916 6.6-3.916 5.42 0 8.73 1.529 9.89 4.524h8.9v-11.377h-8.69v1.781l-0.84-0.351c-3.31-1.397-6.93-2.104-10.74-2.104zm-120.1 0.973v8.049h6.494v21.498c0 3.978 1.098 7.078 3.266 9.214 2.169 2.143 5.241 3.229 9.131 3.229 4.042 0 8.102-1.388 12.066-4.123l1.555-1.074v4.57h16.679v-8.004h-4.826v-33.359h-18.527v8.049h6.674v20.968l-0.401 0.297c-2.937 2.179-5.715 3.283-8.25 3.283-2.032 0-3.493-0.519-4.343-1.543-0.817-0.981-1.215-2.632-1.215-5.045v-26.009h-18.303zm110.04 48.873c-0.06 0-0.15 0.061-0.18 0.277-0.06 0.215-0.58 2.246-0.74 2.83-0.01 0.078 0 0.124 0.06 0.154l0.31 0.11c0.08 0.031 0.12-0.032 0.17-0.11 0.29-0.522 0.88-1.538 1.37-1.753 0.64-0.217 1.76-0.217 2.25-0.217h0.43v3.849c0 0.308 0 5.018-0.05 5.418-0.01 0.23-0.2 0.416-0.51 0.416h-0.87c-0.06 0-0.11 0.03-0.11 0.121v0.356c0 0.107 0.03 0.139 0.12 0.139 0.22 0 0.86-0.045 2.43-0.045 1.67 0 2.16 0.045 2.31 0.045 0.13 0 0.16-0.06 0.16-0.153v-0.324c0-0.077-0.03-0.139-0.1-0.139h-0.89c-0.37 0-0.52-0.308-0.52-1.478v-8.205h0.43c0.55 0 1.94 0.031 2.37 0.277 0.43 0.308 1 1.295 1.22 1.725 0.04 0.092 0.07 0.139 0.13 0.123l0.31-0.108c0.05-0.016 0.08-0.047 0.06-0.138-0.12-0.739-0.43-2.647-0.46-2.924-0.03-0.185-0.06-0.246-0.15-0.246s-0.16 0.06-0.28 0.152c-0.23 0.169-0.82 0.386-1.11 0.4-0.71 0.032-1.35 0.092-3.04 0.092h-0.84c-1.5 0-2.15-0.06-2.98-0.092-0.43-0.014-0.74-0.091-1.05-0.4-0.09-0.092-0.15-0.152-0.25-0.152zm-28.13 0.414c-0.9 0-1.58 0.216-2.19 0.74-0.74 0.585-1.08 1.292-1.08 2.154 0 0.939 0.25 1.709 0.77 2.202 0.74 0.677 1.76 1.108 2.25 1.292 1.63 0.616 2.28 1.078 2.28 2.495 0 1.278-1.17 1.8-2 1.8-0.77 0-1.57-0.369-2.04-1.109-0.43-0.676-0.55-1.261-0.58-1.754 0-0.092-0.03-0.123-0.09-0.123l-0.34-0.031c-0.06 0-0.08 0.03-0.09 0.123-0.04 0.185-0.25 2.678-0.28 2.863 0 0.154 0.06 0.248 0.18 0.248 0.13 0 0.19-0.032 0.28-0.185 0.09-0.154 0.16-0.278 0.25-0.278s0.18 0.06 0.36 0.184c0.62 0.461 1.36 0.74 2.62 0.74 2.04 0 3.27-1.54 3.27-3.418 0-1.031-0.28-1.677-0.77-2.201-0.59-0.616-1.33-0.925-2.22-1.201-0.62-0.185-1.48-0.552-1.88-0.953-0.37-0.4-0.43-0.864-0.43-1.387 0-0.57 0.49-1.555 1.73-1.555 0.7 0 1.19 0.217 1.59 0.647 0.56 0.585 0.81 1.201 0.96 1.633 0.03 0.092 0.09 0.106 0.15 0.091l0.25-0.076c0.06-0.015 0.09-0.046 0.09-0.107 0-0.154-0.24-2.309-0.24-2.557 0-0.154-0.03-0.246-0.13-0.246-0.09 0-0.15 0.031-0.21 0.092l-0.2 0.201c-0.08 0.076-0.17 0.107-0.33 0.045-0.3-0.123-0.92-0.369-1.93-0.369zm-117 0.185c-0.122 0-0.154 0.031-0.154 0.123v0.354c0 0.109 0.032 0.139 0.125 0.139h0.707c0.4 0 0.523 0.247 0.523 0.769v3.649c0 2.016 0.061 3.032 0.276 3.711 0.308 0.983 0.924 1.691 1.818 2.06 0.585 0.248 1.478 0.371 2.217 0.371 1.17 0 2.154-0.37 2.801-0.955 0.831-0.739 1.2-1.692 1.293-2.955 0.062-0.616 0.091-3.294 0.091-3.51 0-0.2 0-2.356 0.032-2.541 0.031-0.169 0.092-0.599 0.646-0.599h0.555c0.076 0 0.092-0.047 0.092-0.139v-0.354c0-0.076-0.016-0.123-0.155-0.123-0.122 0-0.615 0.047-1.57 0.047-1.016 0-1.723-0.047-1.877-0.047-0.092 0-0.123 0.031-0.123 0.123v0.385c0 0.061 0.031 0.108 0.123 0.108h0.553c0.338 0 0.586 0.276 0.633 0.677 0.046 0.353 0.169 1.709 0.169 2.94v2.771c0 1.124-0.309 2.017-0.894 2.602-0.493 0.461-1.355 0.738-2.063 0.738-0.738 0-1.57-0.246-2.093-0.955-0.369-0.491-0.491-1.199-0.537-1.908-0.032-0.491-0.047-1.585-0.047-2.354v-1.91c0-0.892 0.03-1.817 0.047-2.002 0.015-0.322 0.291-0.599 0.753-0.599h0.647c0.092 0 0.121-0.031 0.121-0.123v-0.385c0-0.078-0.029-0.108-0.121-0.108-0.185 0-0.924 0.047-2.217 0.047-1.477 0-2.216-0.047-2.371-0.047zm19.918 0c-0.061 0-0.092 0.031-0.092 0.092v0.416c0 0.063 0.031 0.091 0.092 0.108h0.492c0.678 0 1.201 0.708 1.201 1.63v1.956c0 2.462-0.091 4.619-0.107 4.896-0.076 0.939-0.293 1.277-0.693 1.277h-0.522c-0.062 0-0.094 0.062-0.094 0.092v0.385c0 0.107 0.032 0.139 0.094 0.139 0.154 0 1.2-0.045 1.6-0.045 0.585 0 1.508 0.045 1.662 0.045 0.124 0 0.123-0.032 0.123-0.123v-0.354c0-0.076 0.001-0.139-0.123-0.139h-0.401c-0.553 0-0.738-0.37-0.769-1.138-0.03-0.478-0.154-2.634-0.154-5.25v-1.879h0.093c0.185 0.216 2.647 3.295 2.864 3.51 0.183 0.246 1.385 1.693 2.463 3.017 0.953 1.139 1.784 2.093 1.908 2.248 0.122 0.123 0.308 0.246 0.523 0.246 0.185 0 0.184-0.215 0.184-0.431v-4.063c0-1.57 0.155-4.157 0.232-5.203 0.046-0.57 0.201-0.816 0.508-0.816h0.43c0.061 0 0.093-0.062 0.093-0.155v-0.353c0-0.046-0.031-0.108-0.154-0.108-0.185 0-0.555 0.047-1.478 0.047-1.048 0-1.54-0.047-1.725-0.047-0.122 0-0.121 0.031-0.121 0.123v0.354c0 0.077-0.001 0.139 0.092 0.139h0.492c0.37 0 0.708 0.216 0.816 0.586 0.077 0.261 0.138 1.768 0.168 2.353 0.032 0.769 0.032 1.54 0.032 2.895v1.601h-0.061c-0.247-0.307-2.648-3.295-2.863-3.541-0.308-0.43-3.325-4.217-3.479-4.371-0.092-0.091-0.186-0.139-0.371-0.139-0.092 0-0.23 0.016-0.43 0.016-0.185 0.015-0.416 0.031-0.677 0.031-0.678 0-1.093 0.001-1.369-0.015-0.278-0.015-0.401-0.032-0.479-0.032zm21.088 0c-0.061 0-0.092 0.03-0.092 0.108v0.4c0 0.079 0.032 0.108 0.123 0.108h0.801c0.431 0 0.585 0.153 0.631 0.523 0.015 0.2 0.047 2.971 0.047 3.34v1.078c0 0.831-0.032 4.156-0.063 4.371-0.061 0.416-0.399 0.447-0.707 0.447h-0.615c-0.094 0-0.125 0.031-0.125 0.092v0.416c0 0.076 0.031 0.108 0.125 0.108 0.154 0 0.829-0.045 2.369-0.045 1.446 0 2.063 0.045 2.248 0.045 0.093 0 0.154-0.032 0.154-0.123v-0.385c0-0.076-0.061-0.108-0.123-0.108h-0.648c-0.369 0-0.613-0.062-0.613-0.554 0-0.169-0.032-3.71-0.032-3.864v-1.201c0-0.185 0.032-3.569 0.032-3.724 0-0.292 0.245-0.416 0.584-0.416h0.586c0.061 0 0.121-0.03 0.121-0.123v-0.354c0-0.076-0.029-0.139-0.121-0.139-0.217 0-0.71 0.047-2.188 0.047-1.509 0-2.309-0.047-2.494-0.047zm14.285 0c-0.061 0-0.092 0.031-0.092 0.123v0.354c0 0.092 0.031 0.139 0.092 0.139h0.369c0.339 0 0.524 0.154 0.662 0.492 0.169 0.446 0.846 2.416 1.246 3.525 0.524 1.431 1.819 4.957 2.342 6.266 0.077 0.185 0.153 0.353 0.338 0.353 0.123 0 0.246-0.076 0.307-0.199 0.154-0.324 2.001-4.818 2.308-5.496 0.432-1.016 1.356-3.417 1.864-4.232 0.355-0.554 0.754-0.709 1.123-0.709h0.371c0.092 0 0.123-0.046 0.123-0.123v-0.385c0-0.078-0.031-0.108-0.123-0.108-0.124 0-0.524 0.047-1.817 0.047-0.986 0-1.694-0.047-1.816-0.047-0.093 0-0.123 0.031-0.123 0.123v0.354c0 0.077 0.046 0.139 0.107 0.139h0.416c0.43 0 0.584 0.246 0.584 0.431 0 0.632-0.955 2.954-1.201 3.678-0.154 0.462-1.138 3.018-1.508 3.879v0.031h-0.031c-0.246-0.831-1.077-3.263-1.293-3.848-0.307-0.892-0.892-2.709-1-3.263-0.046-0.216-0.047-0.401-0.047-0.524 0-0.23 0.247-0.384 0.647-0.384h0.74c0.092 0 0.123-0.047 0.123-0.155v-0.338c0-0.076-0.031-0.123-0.154-0.123s-0.832 0.047-2.28 0.047c-1.601 0-2.122-0.047-2.277-0.047zm19.981 0c-0.078 0-0.092 0.03-0.092 0.108v0.4c0 0.078 0.029 0.108 0.092 0.108h0.584c0.462 0 0.616 0.122 0.677 0.539 0.032 0.215 0.061 2.123 0.061 3.384v1.51 3.664c0 0.57-0.06 0.662-0.768 0.662h-0.525c-0.123 0-0.152 0.031-0.152 0.123v0.37c0 0.092 0.03 0.123 0.123 0.123 0.276 0 0.83-0.047 1.97-0.047 5.142 0 6.341 0.047 6.494 0.047 0.185 0 0.294-0.093 0.34-0.231l0.739-2.31c0.03-0.077 0.015-0.121-0.032-0.153l-0.246-0.152c-0.061-0.031-0.108-0.017-0.17 0.06-0.292 0.369-1.152 1.385-1.429 1.631-0.4 0.339-0.987 0.494-1.264 0.524-0.308 0.031-1.017 0.06-1.293 0.06-0.585 0-0.954-0.061-1.201-0.123-0.339-0.092-0.615-0.399-0.615-1.199 0-0.277-0.03-1.786-0.045-2.617l-0.018-0.924c0.494 0 1.233 0.031 1.787 0.092 0.339 0.031 0.631 0.246 0.77 0.554 0.076 0.184 0.183 0.524 0.246 0.77 0.031 0.093 0.062 0.124 0.123 0.109l0.34-0.062c0.092-0.016 0.123-0.032 0.123-0.109-0.032-0.339-0.092-1.077-0.092-1.692 0-0.401 0-1.416 0.031-1.662 0.014-0.092-0.031-0.125-0.094-0.125l-0.4-0.029c-0.062 0-0.123 0.03-0.123 0.123 0 0.277-0.154 0.661-0.246 0.861-0.185 0.37-0.37 0.492-0.709 0.555-0.184 0.046-1.293 0.078-1.756 0.078l0.031-4.451 2.342 0.062c0.431 0.015 0.846 0.216 1.17 0.401 0.37 0.215 1.63 1.63 1.691 1.722 0.047 0.078 0.094 0.093 0.139 0.078l0.277-0.123c0.062-0.031 0.079-0.077 0.047-0.17-0.062-0.152-0.647-2.247-0.709-2.447-0.015-0.062-0.046-0.092-0.123-0.092-0.076 0-0.369 0.016-0.615 0.016-0.677 0-4.217 0.031-4.894 0.031h-0.432c-1.261 0.015-1.817-0.047-2.154-0.047zm18.937 0c-0.07 0-0.1 0.03-0.1 0.108v0.416c0 0.061 0.03 0.092 0.1 0.092h0.6c0.28 0 0.5 0.247 0.5 0.769v4.049c0 1.446 0 2.894-0.04 4.434 0 0.415-0.24 0.507-0.58 0.507h-0.52c-0.06 0-0.09 0.046-0.09 0.123v0.354c0 0.092 0.03 0.141 0.12 0.141 0.15 0 0.52-0.049 2.03-0.049 1.6 0 1.91 0.049 2.11 0.049 0.12 0 0.17-0.032 0.17-0.141v-0.369c0-0.063-0.03-0.108-0.13-0.108h-0.76c-0.25 0-0.36-0.278-0.4-0.586-0.04-0.231-0.07-1.953-0.07-2.877v-0.832c0.17-0.015 0.44-0.031 0.5-0.031 0.64 0 1 0.417 1.38 0.955 0.25 0.339 0.68 1.048 0.83 1.325 0.14 0.246 0.74 1.352 1.02 1.785 0.2 0.322 0.49 0.739 0.68 0.879 0.33-0.017 0.92-0.049 1.35-0.049 0.99 0 1.39 0.049 1.51 0.049 0.09 0 0.12-0.049 0.12-0.157v-0.324c0-0.061-0.03-0.107-0.12-0.107-0.37 0-0.8-0.03-1.09-0.291-0.23-0.217-1.22-1.601-1.31-1.754-0.13-0.185-1.08-1.633-1.27-1.879-0.21-0.276-0.49-0.553-0.92-0.707v-0.063c1.69-0.277 2.86-1.079 2.86-3.017 0-0.585-0.27-1.23-0.83-1.723-0.61-0.555-1.57-0.971-2.8-0.971-0.46 0-1.88 0.047-2.74 0.047-1.51 0-2-0.047-2.11-0.047zm36.02 0c-0.06 0-0.09 0.03-0.09 0.108v0.4c0 0.079 0.03 0.108 0.12 0.108h0.8c0.43 0 0.59 0.153 0.64 0.523 0.01 0.2 0.04 2.971 0.04 3.34v1.078c0 0.831-0.03 4.156-0.06 4.371-0.06 0.416-0.4 0.447-0.71 0.447h-0.61c-0.09 0-0.13 0.031-0.13 0.092v0.416c0 0.076 0.04 0.108 0.13 0.108 0.15 0 0.83-0.045 2.37-0.045 1.44 0 2.06 0.045 2.24 0.045 0.1 0 0.16-0.032 0.16-0.123v-0.385c0-0.076-0.06-0.108-0.12-0.108h-0.65c-0.37 0-0.62-0.062-0.62-0.554 0-0.169-0.03-3.71-0.03-3.864v-1.201c0-0.185 0.03-3.569 0.03-3.724 0-0.292 0.25-0.416 0.59-0.416h0.58c0.06 0 0.12-0.03 0.12-0.123v-0.354c0-0.076-0.03-0.139-0.12-0.139-0.21 0-0.71 0.047-2.18 0.047-1.51 0-2.31-0.047-2.5-0.047zm34.28 0c-0.09 0-0.12 0.03-0.12 0.092v0.416c0 0.078 0.03 0.108 0.12 0.108h0.28c0.24 0 0.58 0.123 0.77 0.339 0.43 0.539 2.92 4.971 3.17 5.432v0.74c0 1.447-0.03 2.649-0.05 2.864-0.01 0.231-0.13 0.384-0.53 0.384h-0.64c-0.07 0-0.1 0.062-0.1 0.123v0.354c0 0.077 0.03 0.141 0.1 0.141 0.14 0 0.63-0.049 2.14-0.049 1.39 0 2 0.049 2.17 0.049 0.08 0 0.11-0.049 0.11-0.157v-0.353c0-0.063-0.03-0.108-0.11-0.108h-0.5c-0.31 0-0.56-0.031-0.61-0.523-0.01-0.169-0.04-1.185-0.04-1.77v-1.879c0.58-1.016 3.14-4.956 3.39-5.232 0.24-0.262 0.61-0.355 0.83-0.355h0.34c0.09 0 0.12-0.062 0.12-0.155v-0.353c0-0.078-0.03-0.108-0.12-0.108-0.16 0-0.5 0.047-1.48 0.047-1.08 0-1.73-0.047-1.88-0.047-0.06 0-0.09 0.03-0.09 0.108v0.385c0 0.076 0.03 0.123 0.12 0.123h0.4c0.46 0 0.56 0.277 0.53 0.554-0.04 0.385-2.02 3.587-2.55 4.45-0.41-0.863-2.26-4.281-2.29-4.557-0.03-0.324 0.09-0.447 0.43-0.447h0.4c0.1 0 0.12-0.062 0.12-0.155v-0.353c0-0.078-0.02-0.108-0.12-0.108-0.15 0-0.71 0.047-2.28 0.047-1.16 0-1.9-0.047-2.03-0.047zm-66.56 0.555c0.77 0 1.48 0.168 2.04 0.662 0.38 0.354 0.67 1.015 0.67 1.723 0 0.707-0.49 2.648-2.89 2.648-0.19 0-0.37-0.032-0.59-0.062l0.04-4.434c0-0.185 0.06-0.369 0.18-0.445 0.12-0.078 0.31-0.092 0.55-0.092z" transform="matrix(.8 0 0 -.8 173.95 469.48)" fill="#3e8ede"/></g></svg>
