<?xml version="1.0" encoding="utf-8"?>
<!-- Generator: Adobe Illustrator 25.0.1, SVG Export Plug-In . SVG Version: 6.00 Build 0)  -->
<svg version="1.1" id="Layer_1" xmlns="http://www.w3.org/2000/svg" xmlns:xlink="http://www.w3.org/1999/xlink" x="0px" y="0px"
	 viewBox="0 0 924 221" style="enable-background:new 0 0 924 221;" xml:space="preserve">
<style type="text/css">
	.st0{clip-path:url(#SVGID_2_);fill:#092040;}
	.st1{clip-path:url(#SVGID_4_);fill:#092040;}
	.st2{clip-path:url(#SVGID_6_);fill:#092040;}
	.st3{clip-path:url(#SVGID_8_);fill:#092040;}
	.st4{clip-path:url(#SVGID_10_);fill:#092040;}
	.st5{clip-path:url(#SVGID_12_);fill:#092040;}
	.st6{clip-path:url(#SVGID_14_);fill:#092040;}
	.st7{clip-path:url(#SVGID_16_);fill:#092040;}
	.st8{clip-path:url(#SVGID_18_);fill:#092040;}
	.st9{clip-path:url(#SVGID_20_);fill:#092040;}
	.st10{clip-path:url(#SVGID_22_);fill:#092040;}
	.st11{clip-path:url(#SVGID_24_);fill:#092040;}
	.st12{clip-path:url(#SVGID_26_);fill:#092040;}
	.st13{clip-path:url(#SVGID_28_);fill:#092040;}
	.st14{clip-path:url(#SVGID_30_);fill:#092040;}
	.st15{clip-path:url(#SVGID_32_);fill:#092040;}
	.st16{clip-path:url(#SVGID_34_);fill:#092040;}
	.st17{clip-path:url(#SVGID_36_);fill:#092040;}
	.st18{clip-path:url(#SVGID_38_);fill:#092040;}
	.st19{clip-path:url(#SVGID_40_);fill:#092040;}
	.st20{clip-path:url(#SVGID_42_);fill:#092040;}
	.st21{clip-path:url(#SVGID_44_);fill:#092040;}
	.st22{clip-path:url(#SVGID_46_);fill:#092040;}
	.st23{clip-path:url(#SVGID_48_);fill:#092040;}
	.st24{clip-path:url(#SVGID_50_);fill:#092040;}
	.st25{clip-path:url(#SVGID_52_);fill:#092040;}
	.st26{clip-path:url(#SVGID_54_);fill:#092040;}
	.st27{clip-path:url(#SVGID_56_);fill:#FFFFFF;}
	.st28{clip-path:url(#SVGID_58_);fill:#092040;}
	.st29{clip-path:url(#SVGID_60_);fill:#FFFFFF;}
	.st30{clip-path:url(#SVGID_62_);fill:#FFFFFF;}
	.st31{clip-path:url(#SVGID_64_);fill:#FFFFFF;}
	.st32{clip-path:url(#SVGID_66_);fill:#FFFFFF;}
	.st33{clip-path:url(#SVGID_68_);fill:#FFFFFF;}
	.st34{clip-path:url(#SVGID_70_);fill:#FFFFFF;}
	.st35{clip-path:url(#SVGID_72_);fill:#FFFFFF;}
	.st36{clip-path:url(#SVGID_74_);fill:#FFFFFF;}
	.st37{clip-path:url(#SVGID_76_);fill:#FFFFFF;}
	.st38{clip-path:url(#SVGID_78_);fill:#FFFFFF;}
	.st39{clip-path:url(#SVGID_80_);fill:#FFFFFF;}
	.st40{clip-path:url(#SVGID_82_);fill:#FFFFFF;}
	.st41{clip-path:url(#SVGID_84_);fill:#FFFFFF;}
	.st42{clip-path:url(#SVGID_86_);fill:#FFFFFF;}
	.st43{clip-path:url(#SVGID_88_);fill:#FFFFFF;}
	.st44{clip-path:url(#SVGID_90_);fill:#FFFFFF;}
	.st45{clip-path:url(#SVGID_92_);fill:#FFFFFF;}
	.st46{clip-path:url(#SVGID_94_);fill:#FFFFFF;}
	.st47{clip-path:url(#SVGID_96_);fill:#FFFFFF;}
	.st48{clip-path:url(#SVGID_98_);fill:#FFFFFF;}
	.st49{clip-path:url(#SVGID_100_);fill:#FFFFFF;}
	.st50{clip-path:url(#SVGID_102_);fill:#FFFFFF;}
	.st51{clip-path:url(#SVGID_104_);fill:#FFFFFF;}
	.st52{clip-path:url(#SVGID_106_);fill:#FFFFFF;}
	.st53{clip-path:url(#SVGID_108_);fill:#FFFFFF;}
	.st54{clip-path:url(#SVGID_110_);fill:#FFFFFF;}
	.st55{clip-path:url(#SVGID_112_);fill:#FFFFFF;}
	.st56{clip-path:url(#SVGID_114_);fill:#FFFFFF;}
	.st57{clip-path:url(#SVGID_116_);fill:#FFFFFF;}
	.st58{clip-path:url(#SVGID_118_);fill:#FFFFFF;}
	.st59{clip-path:url(#SVGID_120_);fill:#FFFFFF;}
	.st60{clip-path:url(#SVGID_122_);fill:#FFFFFF;}
	.st61{clip-path:url(#SVGID_124_);fill:#FFFFFF;}
	.st62{clip-path:url(#SVGID_126_);fill:#FFFFFF;}
	.st63{clip-path:url(#SVGID_128_);fill:#FFFFFF;}
	.st64{clip-path:url(#SVGID_130_);fill:#FFFFFF;}
	.st65{clip-path:url(#SVGID_132_);fill:#FFFFFF;}
	.st66{clip-path:url(#SVGID_134_);fill:#FFFFFF;}
	.st67{clip-path:url(#SVGID_136_);fill:#FFFFFF;}
	.st68{clip-path:url(#SVGID_138_);fill:#FFFFFF;}
	.st69{clip-path:url(#SVGID_140_);fill:#FFFFFF;}
	.st70{clip-path:url(#SVGID_142_);fill:#DD1E34;}
	.st71{clip-path:url(#SVGID_144_);fill:#DD1E34;}
	.st72{clip-path:url(#SVGID_146_);fill:#DD1E34;}
	.st73{clip-path:url(#SVGID_148_);fill:#DD1E34;}
	.st74{clip-path:url(#SVGID_150_);fill:#DD1E34;}
	.st75{clip-path:url(#SVGID_152_);fill:#092040;}
	.st76{clip-path:url(#SVGID_154_);fill:#092040;}
	.st77{clip-path:url(#SVGID_156_);fill:#092040;}
	.st78{clip-path:url(#SVGID_158_);fill:#092040;}
	.st79{clip-path:url(#SVGID_160_);fill:#092040;}
	.st80{clip-path:url(#SVGID_162_);fill:#092040;}
	.st81{clip-path:url(#SVGID_164_);fill:#092040;}
	.st82{clip-path:url(#SVGID_166_);fill:#092040;}
	.st83{clip-path:url(#SVGID_168_);fill:#092040;}
	.st84{clip-path:url(#SVGID_170_);fill:#092040;}
	.st85{clip-path:url(#SVGID_172_);fill:#092040;}
	.st86{clip-path:url(#SVGID_174_);fill:#092040;}
	.st87{clip-path:url(#SVGID_176_);fill:#092040;}
	.st88{clip-path:url(#SVGID_178_);fill:#092040;}
	.st89{clip-path:url(#SVGID_180_);fill:#092040;}
	.st90{clip-path:url(#SVGID_182_);fill:#092040;}
	.st91{clip-path:url(#SVGID_184_);fill:#092040;}
	.st92{clip-path:url(#SVGID_186_);fill:#092040;}
	.st93{clip-path:url(#SVGID_188_);fill:#092040;}
	.st94{clip-path:url(#SVGID_190_);fill:#092040;}
	.st95{clip-path:url(#SVGID_192_);fill:#092040;}
	.st96{clip-path:url(#SVGID_194_);fill:#092040;}
	.st97{clip-path:url(#SVGID_196_);fill:#092040;}
	.st98{clip-path:url(#SVGID_198_);fill:#092040;}
</style>
<g>
	<defs>
		<rect id="SVGID_1_" width="924" height="221"/>
	</defs>
	<clipPath id="SVGID_2_">
		<use xlink:href="#SVGID_1_"  style="overflow:visible;"/>
	</clipPath>
	<path class="st0" d="M16.4,88.3c1.9,0.4,2.5,0.2,2.8-1.2l0.4,0.1l-1.3,5.6L18,92.7c0.3-1.2,0.1-1.9-2.1-2.4L3.6,87.5l-0.6,2.3
		C2.6,92,3,93.1,4.6,93.7l-0.1,0.5l-3.7-0.8L1,92.9c0.3-0.2,0.5-0.3,0.6-0.8c0.2-0.3,0.4-0.8,0.5-1.5l1.9-8.4c0.3-1.4,0.3-2,0-2.7
		L4.2,79l3.6,0.8l-0.1,0.3c-1.4,0-2.5,0.4-3,2.9l-0.6,2.5L16.4,88.3L16.4,88.3z"/>
</g>
<g>
	<defs>
		<rect id="SVGID_3_" width="924" height="221"/>
	</defs>
	<clipPath id="SVGID_4_">
		<use xlink:href="#SVGID_3_"  style="overflow:visible;"/>
	</clipPath>
	<path class="st1" d="M17.3,70l4.3,2.1c1.8,0.8,2.5,0.7,3.2-0.6l0.4,0.2l-2.6,5.4l-0.5-0.3c0.6-1.1,0.4-1.9-1.6-2.8l-9.2-4.4
		c-1.8-0.8-2.5-0.8-3.2,0.5l-0.3-0.2l2.6-5.3l0.3,0.2c-0.6,1.1-0.3,1.9,1.6,2.8l4.2,2l3.9-8l-4.2-2c-1.8-0.9-2.5-0.7-3.1,0.5
		l-0.5-0.3l2.5-5.3l0.4,0.2c-0.6,1.3-0.2,2,1.6,2.9l9.2,4.4c1.8,0.8,2.5,0.7,3.2-0.6l0.4,0.2l-2.5,5.4L27,66.9
		c0.6-1.1,0.4-1.8-1.6-2.8l-4.2-2L17.3,70L17.3,70z"/>
</g>
<g>
	<defs>
		<rect id="SVGID_5_" width="924" height="221"/>
	</defs>
	<clipPath id="SVGID_6_">
		<use xlink:href="#SVGID_5_"  style="overflow:visible;"/>
	</clipPath>
	<path class="st2" d="M36.6,43.1l-0.3,0.4c-1.3-0.7-1.6-0.6-2.7,0.7l-2.6,3.2l4.5,3.7c0.6,0.5,1,0.5,1.6-0.2l1.8-2.1
		c1.6-1.8,1.8-2.4,0.8-4.5l0.3-0.4l1.9,2.5l-7.6,9.1l-0.3-0.3c0.8-1,0.8-1.6-0.8-3l-7.9-6.6c-1.6-1.3-2.3-1.3-3.2-0.2L21.9,45
		l7.6-9.1l2.1,1.8l-0.1,0.2c-1.6-0.9-2.1-0.6-3.2,0.8l-3,3.7l5.3,4.4l2.9-3.6c0.7-0.8,0.9-1.3-0.1-2.4l0.3-0.3L36.6,43.1z"/>
</g>
<g>
	<defs>
		<rect id="SVGID_7_" width="924" height="221"/>
	</defs>
	<clipPath id="SVGID_8_">
		<use xlink:href="#SVGID_7_"  style="overflow:visible;"/>
	</clipPath>
	<path class="st3" d="M67.3,24.7c-0.4,2.3-1.6,4-3.4,5c-3.6,1.9-6.3,0.3-7.7-2.2l-4-7c-1.1-1.9-1.8-1.9-2.9-1.3l-0.2-0.5l5.2-2.9
		l0.2,0.4c-1.1,0.6-1.3,1.3-0.3,3.2l4.1,7.2c1.2,2.2,3.4,3.1,5.8,1.7c1.6-0.8,2.6-2.5,2.8-4.5L62,15.2c-0.9-1.7-1.6-2.1-2.8-1.5
		l-0.2-0.4l5-2.8l0.3,0.4c-1.2,0.7-1.3,1.5-0.3,3.2l5,8.9c1.1,1.9,1.8,1.9,2.9,1.3l0.2,0.5l-3.6,1.9l-1-1.9L67.3,24.7z"/>
</g>
<g>
	<defs>
		<rect id="SVGID_9_" width="924" height="221"/>
	</defs>
	<clipPath id="SVGID_10_">
		<use xlink:href="#SVGID_9_"  style="overflow:visible;"/>
	</clipPath>
	<path class="st4" d="M93.3,18.3l-0.5,0.1L78.1,7.4H78l2.9,11.1c0.4,1.6,1.2,2.1,2.6,1.6l0.1,0.5l-4.8,1.2l-0.1-0.4
		c1.3-0.3,1.9-0.9,1.3-3.2l-2.4-9.3c-0.4-1.8-1.2-2.6-3.1-2.3l-0.2-0.4l4.1-1.1l13.1,9.8h0.1l-2.4-9.2c-0.6-2-1.2-2.5-2.6-2.1
		l-0.1-0.5l4.8-1.2l0.1,0.4c-1.6,0.3-1.9,1.2-1.4,3l3.3,13.1L93.3,18.3z"/>
</g>
<g>
	<defs>
		<rect id="SVGID_11_" width="924" height="221"/>
	</defs>
	<clipPath id="SVGID_12_">
		<use xlink:href="#SVGID_11_"  style="overflow:visible;"/>
	</clipPath>
	<path class="st5" d="M106.7,13.8c0.1,1.9,0.6,2.5,1.9,2.5v0.5l-5.8,0.3l-0.1-0.5c1.3-0.1,1.8-0.6,1.7-2.7l-0.5-10.2
		c-0.2-2.1-0.6-2.6-2-2.5l-0.1-0.6l5.8-0.3l0.1,0.5c-1.3,0.1-1.8,0.7-1.7,2.7L106.7,13.8L106.7,13.8z"/>
</g>
<g>
	<defs>
		<rect id="SVGID_13_" width="924" height="221"/>
	</defs>
	<clipPath id="SVGID_14_">
		<use xlink:href="#SVGID_13_"  style="overflow:visible;"/>
	</clipPath>
	<path class="st6" d="M123.2,18l-0.4-0.1l-3.2-13.8c-0.5-2-0.8-2.9-2.3-3.2l0.1-0.5l5.8,0.8L123,1.7c-1.1-0.1-1.8,0.3-1.5,1.7
		l2.5,11l5.2-9.6c0.6-1.3,0.5-2.2-1-2.5l0.1-0.5l4.7,0.6L133,3c-1.2-0.1-2.3,0.6-3.4,2.8L123.2,18L123.2,18z"/>
</g>
<g>
	<defs>
		<rect id="SVGID_15_" width="924" height="221"/>
	</defs>
	<clipPath id="SVGID_16_">
		<use xlink:href="#SVGID_15_"  style="overflow:visible;"/>
	</clipPath>
	<path class="st7" d="M149,18.3l-0.4-0.1c0.1-1.5-0.1-1.7-1.6-2.3l-3.8-1.4l-2,5.5c-0.3,0.8-0.1,1.1,0.7,1.5l2.7,1
		c2.3,0.8,2.9,0.9,4.5-0.8l0.4,0.1l-1.7,2.6l-11.1-4l0.1-0.4c1.2,0.4,1.9,0.3,2.6-1.8l3.6-9.6c0.6-1.9,0.4-2.6-0.9-3.1l0.2-0.5
		l11.1,4l-1,2.6l-0.3-0.1c0.3-1.8-0.2-2.1-1.9-2.7l-4.4-1.6l-2.4,6.6l4.3,1.6c1.1,0.3,1.6,0.3,2.2-0.8l0.4,0.1L149,18.3L149,18.3z"
		/>
</g>
<g>
	<defs>
		<rect id="SVGID_17_" width="924" height="221"/>
	</defs>
	<clipPath id="SVGID_18_">
		<use xlink:href="#SVGID_17_"  style="overflow:visible;"/>
	</clipPath>
	<path class="st8" d="M167.6,17.2l1.5,1c2.1,1.3,2.6,3.6,1.4,5.3c-1.1,1.6-2.9,2.5-5.3,1.1l-1.8-1.2L167.6,17.2L167.6,17.2z
		 M163.1,24l1.1,0.6c2.5,1.6,1.1,5.4,1.6,10.1l2.8,1.8l0.3-0.4c-2.1-1.7-0.1-6.8-1.6-10.1c2.4,0.6,4.1,0,5-1.6
		c1.2-1.8,0.8-4.5-2.2-6.6l-5.6-3.7l-0.3,0.6c1.2,0.7,1.4,1.3,0.2,3.1l-5.6,8.5c-1.2,1.8-1.9,1.8-2.9,1.1l-0.3,0.4l4.9,3.2l0.3-0.4
		c-1.1-0.7-1.2-1.6-0.1-3.2L163.1,24L163.1,24z"/>
</g>
<g>
	<defs>
		<rect id="SVGID_19_" width="924" height="221"/>
	</defs>
	<clipPath id="SVGID_20_">
		<use xlink:href="#SVGID_19_"  style="overflow:visible;"/>
	</clipPath>
	<path class="st9" d="M189.2,38.8l-0.3-0.3c1.5-1.9,1-3.8-0.2-5c-1.2-1.2-2.8-1.5-3.8-0.3c-2.2,2.1,0.2,5.7,0.2,8.9
		c0,1.6-0.6,2.5-1.3,3.3c-1.9,1.8-4.9,1.8-6.6-0.1c-1.2-1.3-1.6-2.9-2-3.3c-0.2-0.2-0.5-0.2-0.8,0l-0.3-0.3l3.1-3.1l0.3,0.4
		c-2.1,2.1-1.1,4.5-0.1,5.6c1.3,1.4,3.1,1.6,4.4,0.3c2-2-0.1-6.1-0.1-8.6c0-1.4,0.6-2.5,1.5-3.4c1.8-1.8,4.3-1.7,6.2,0.2
		c1.2,1.2,1.3,2.3,1.7,2.7c0.2,0.2,0.3,0.2,0.6,0l0.3,0.3L189.2,38.8L189.2,38.8z"/>
</g>
<g>
	<defs>
		<rect id="SVGID_21_" width="924" height="221"/>
	</defs>
	<clipPath id="SVGID_22_">
		<use xlink:href="#SVGID_21_"  style="overflow:visible;"/>
	</clipPath>
	<path class="st10" d="M190.6,56.4c-1.6,1.1-1.9,1.9-1.1,3l-0.3,0.3l-3.4-4.9l0.3-0.3c0.8,1.1,1.5,1.2,3.2,0.1l8.4-5.8
		c1.7-1.2,1.9-1.9,1.1-3l0.3-0.3l3.4,4.9l-0.3,0.3c-0.8-1.1-1.6-1.2-3.2-0.1L190.6,56.4L190.6,56.4z"/>
</g>
<g>
	<defs>
		<rect id="SVGID_23_" width="924" height="221"/>
	</defs>
	<clipPath id="SVGID_24_">
		<use xlink:href="#SVGID_23_"  style="overflow:visible;"/>
	</clipPath>
	<path class="st11" d="M198.8,71.3c-1.8,0.8-2.1,1.3-1.6,2.7l-0.4,0.3l-2.4-5.3l0.4-0.2c0.5,1.1,1.1,1.6,3.1,0.6l11.3-5.2l-1-2.1
		c-0.9-2-1.9-2.6-3.6-2l-0.2-0.5L208,58l0.2,0.4c0,0.3-0.1,0.6,0,1c0,0.3,0.2,0.8,0.5,1.5l3.6,7.8c0.6,1.2,1.1,1.8,1.6,2.1l0.3,0.4
		l-3.4,1.6l-0.1-0.3c1.1-0.8,1.8-1.8,0.7-4.1l-1.1-2.3L198.8,71.3L198.8,71.3z"/>
</g>
<g>
	<defs>
		<rect id="SVGID_25_" width="924" height="221"/>
	</defs>
	<clipPath id="SVGID_26_">
		<use xlink:href="#SVGID_25_"  style="overflow:visible;"/>
	</clipPath>
	<path class="st12" d="M205.2,91.1c-1.9,0.5-2.5,1-2.2,2.3l-0.4,0.2l-1.3-5.8l0.4-0.2c0.3,1.2,0.7,1.9,2.9,1.4l5.1-1.1l4.6-4.5
		c1.6-1.5,1.8-2,1.6-3.2l0.4-0.2l1.3,6.3l-0.4,0.1c-0.3-1.8-1-1.8-1.9-1l-4.2,4.2l4.5,1.7c1.4,0.5,2.6,0.3,2.4-1.1l0.4-0.1l0.9,4.4
		l-0.4,0.1c-0.3-1.2-0.8-1.6-2.4-2.2l-6.5-2.4L205.2,91.1L205.2,91.1z"/>
</g>
<g>
	<defs>
		<rect id="SVGID_27_" width="924" height="221"/>
	</defs>
	<clipPath id="SVGID_28_">
		<use xlink:href="#SVGID_27_"  style="overflow:visible;"/>
	</clipPath>
	<path class="st13" d="M11,132.7c4.5-1.3,8.2,0.1,9.3,3.9c0.9,3.2-1.1,6.7-6.1,8.1c-3.8,1.1-8.1,0.1-9.3-3.9
		C4,137.2,6.5,134,11,132.7 M10.3,130.2c-4.6,1.3-7.3,6.1-5.9,10.8c1.3,4.7,6.1,7.3,10.8,6c4.5-1.3,7.1-6.1,5.8-10.8
		C19.5,131.5,15,128.9,10.3,130.2"/>
</g>
<g>
	<defs>
		<rect id="SVGID_29_" width="924" height="221"/>
	</defs>
	<clipPath id="SVGID_30_">
		<use xlink:href="#SVGID_29_"  style="overflow:visible;"/>
	</clipPath>
	<path class="st14" d="M16.9,162c-1.8,1-2,1.8-1.3,2.9l-0.5,0.2l-2.9-5.2l0.5-0.2c0.7,1.2,1.4,1.3,3.2,0.3l8.9-5.1
		c1.8-1,2-1.6,1.3-2.9l0.5-0.2l5.6,9.8l-2.5,1.5l-0.2-0.3c1.6-1.3,1.4-1.8,0.6-3.3l-2-3.6l-6,3.2l2.1,3.8c0.6,1.1,1.3,1.1,2.6,0.6
		l0.2,0.3l-4,2.4l-0.2-0.3c1-0.6,1.3-1.5,0.7-2.5l-2.1-3.7L16.9,162L16.9,162z"/>
</g>
<g>
	<defs>
		<rect id="SVGID_31_" width="924" height="221"/>
	</defs>
	<clipPath id="SVGID_32_">
		<use xlink:href="#SVGID_31_"  style="overflow:visible;"/>
	</clipPath>
	<path class="st15" d="M48.3,193.6l-0.4-0.3c0.6-1.3,0.6-1.6-0.8-2.7l-3.1-2.6l-3.8,4.5c-0.5,0.6-0.5,1,0.2,1.6l2.2,1.7
		c1.9,1.6,2.4,1.8,4.5,0.8l0.3,0.3l-2.5,1.9l-9.2-7.5l0.3-0.3c1,0.8,1.7,0.8,3-0.8l6.5-7.9c1.3-1.6,1.3-2.4,0.3-3.2l0.3-0.3l9.1,7.5
		l-1.8,2.1l-0.2-0.2c0.8-1.6,0.5-2.1-0.8-3.2l-3.7-2.9l-4.3,5.3l3.6,2.9c0.8,0.6,1.3,0.8,2.4-0.2l0.3,0.3L48.3,193.6L48.3,193.6z"/>
</g>
<g>
	<defs>
		<rect id="SVGID_33_" width="924" height="221"/>
	</defs>
	<clipPath id="SVGID_34_">
		<use xlink:href="#SVGID_33_"  style="overflow:visible;"/>
	</clipPath>
	<path class="st16" d="M66.9,194.1l2.8,1.3c4.7,2.1,4.9,6.5,3.2,10.1c-1.9,4-5.3,5.6-8.9,3.9l-1.6-0.7c-1.3-0.6-1.7-1.3-0.6-3.6
		L66.9,194.1L66.9,194.1z M59.6,204.7c-0.9,1.9-1.6,2.1-2.9,1.6l-0.2,0.4l7,3.2c5.8,2.7,9.8,0.3,11.5-3.4c1.8-3.9,0.8-8.9-4.9-11.5
		l-6.8-3.2l-0.3,0.4c1.3,0.6,1.4,1.3,0.6,3.1L59.6,204.7L59.6,204.7z"/>
</g>
<g>
	<defs>
		<rect id="SVGID_35_" width="924" height="221"/>
	</defs>
	<clipPath id="SVGID_36_">
		<use xlink:href="#SVGID_35_"  style="overflow:visible;"/>
	</clipPath>
	<path class="st17" d="M88.4,215.1c-0.4,1.9-0.1,2.7,1.3,2.9l-0.2,0.5l-5.8-1.3l0.1-0.5c1.2,0.3,1.9-0.1,2.4-2.1l2.2-10
		c0.4-2,0.1-2.6-1.3-2.9l0.2-0.5l5.8,1.2l-0.1,0.4c-1.4-0.3-2,0.3-2.4,2.1L88.4,215.1L88.4,215.1z"/>
</g>
<g>
	<defs>
		<rect id="SVGID_37_" width="924" height="221"/>
	</defs>
	<clipPath id="SVGID_38_">
		<use xlink:href="#SVGID_37_"  style="overflow:visible;"/>
	</clipPath>
	<path class="st18" d="M118,220.3h-0.5l-11.7-14.1h-0.1l0.1,11.5c0,1.6,0.7,2.3,2.2,2.2v0.5l-4.9,0.1v-0.5c1.3,0,2-0.4,1.9-2.8
		l-0.1-9.6c-0.1-1.8-0.6-2.9-2.5-3V204l4.2-0.1l10.4,12.6h0.1l-0.1-9.6c0-2.1-0.6-2.7-2-2.7v-0.5h4.9v0.4c-1.6,0-2.1,0.7-2.1,2.6
		L118,220.3L118,220.3z"/>
</g>
<g>
	<defs>
		<rect id="SVGID_39_" width="924" height="221"/>
	</defs>
	<clipPath id="SVGID_40_">
		<use xlink:href="#SVGID_39_"  style="overflow:visible;"/>
	</clipPath>
	<path class="st19" d="M135.2,208.6l-1.9-6.7l1.6-0.4c2.5-0.7,4.1,0.3,4.7,2.4c0.6,1.9-0.5,3.7-2.8,4.3L135.2,208.6L135.2,208.6z
		 M134.6,214.7c0.6,2,0.2,2.6-1.1,3l0.1,0.4l7.3-2c2.9-0.8,4.6-2.9,4-5.2c-0.6-2.1-2.8-3.6-5.3-3.3c1.9-1.3,2.7-2.7,2.2-4.4
		c-0.6-2-2.8-3.4-6.5-2.3l-5.9,1.6l0.1,0.5c1.3-0.3,1.9,0,2.5,2L134.6,214.7L134.6,214.7z M135.3,209.2l1.5-0.4
		c2.8-0.8,5,0.3,5.6,2.6c0.6,2.3-0.6,3.8-2.2,4.2l-1.3,0.3c-1.2,0.3-1.7-0.1-2.4-2.2L135.3,209.2z"/>
</g>
<g>
	<defs>
		<rect id="SVGID_41_" width="924" height="221"/>
	</defs>
	<clipPath id="SVGID_42_">
		<use xlink:href="#SVGID_41_"  style="overflow:visible;"/>
	</clipPath>
	<path class="st20" d="M168.5,201.3c-0.4,2.4-1.5,4-3.4,5.1c-3.5,2-6.2,0.3-7.6-2l-4.1-7c-1.1-1.9-1.8-1.9-2.9-1.3l-0.2-0.4l5.2-2.9
		l0.2,0.4c-1.1,0.7-1.3,1.3-0.3,3.2l4.2,7.1c1.2,2.2,3.3,3,5.7,1.6c1.6-1,2.6-2.6,2.7-4.7l-4.9-8.6c-1-1.6-1.6-1.9-2.8-1.3l-0.3-0.5
		l5-2.9l0.2,0.5c-1.2,0.7-1.3,1.5-0.3,3.2l5.2,8.8c1.1,1.9,1.8,1.9,2.9,1.3l0.3,0.4l-3.5,2L168.5,201.3L168.5,201.3z"/>
</g>
<g>
	<defs>
		<rect id="SVGID_43_" width="924" height="221"/>
	</defs>
	<clipPath id="SVGID_44_">
		<use xlink:href="#SVGID_43_"  style="overflow:visible;"/>
	</clipPath>
	<path class="st21" d="M175.1,179.1l1.2-1.2c1.8-1.8,4-1.9,5.6-0.3c1.3,1.3,1.9,3.4-0.1,5.4l-1.4,1.4L175.1,179.1z M180.9,184.9
		l0.9-1c2.1-2.1,5.4-0.1,10.3,0.3l2.3-2.4l-0.3-0.4c-2.1,1.8-6.6-1.3-10.2-0.4c1.2-2.2,0.8-4-0.5-5.2c-1.6-1.6-4.3-1.8-6.9,0.8
		l-4.7,4.8l0.3,0.3c1-0.9,1.6-1,3.1,0.5l7.3,7.2c1.6,1.6,1.5,2.3,0.6,3.2l0.3,0.3l4.1-4.2l-0.3-0.3c-1,1-1.7,0.8-3.2-0.5
		L180.9,184.9L180.9,184.9z"/>
</g>
<g>
	<defs>
		<rect id="SVGID_45_" width="924" height="221"/>
	</defs>
	<clipPath id="SVGID_46_">
		<use xlink:href="#SVGID_45_"  style="overflow:visible;"/>
	</clipPath>
	<path class="st22" d="M207.8,162c-0.3,0.9-1.6,3.6-2,4.1c-3.7,6.2-8.7,5.9-11.9,4c-4.9-3-5.4-8.4-3.4-11.9c1.2-1.9,2.3-2.3,2.9-3.4
		c0.3-0.4,0.3-0.7,0-1.1l0.3-0.4l4.1,2.5l-0.2,0.3c-2.9-1.2-5.4,0.5-6.6,2.4c-1.7,2.9-0.5,6.5,3.3,8.9c4.1,2.5,8.6,1.9,10.6-1.4
		c0.6-1,1.2-2.5,0-3.2l-1.6-0.9c-1.6-1.1-2.5-1.1-3.2,0.1l-0.3,0.6l-0.4-0.3l3.5-5.6l0.4,0.2c-0.8,1.3-0.3,2.1,0.8,2.9L207.8,162
		L207.8,162z"/>
</g>
<g>
	<defs>
		<rect id="SVGID_47_" width="924" height="221"/>
	</defs>
	<clipPath id="SVGID_48_">
		<use xlink:href="#SVGID_47_"  style="overflow:visible;"/>
	</clipPath>
	<path class="st23" d="M207.3,143.1l4.5,1.3c1.9,0.5,2.6,0.3,3-1.2l0.4,0.1l-1.6,5.7l-0.4-0.1c0.3-1.2,0.1-1.9-1.9-2.5l-9.8-2.8
		c-1.9-0.5-2.6-0.3-3,1.1l-0.4-0.1l1.6-5.7l0.4,0.1c-0.3,1.3-0.1,1.9,1.9,2.5l4.5,1.3l2.5-8.6l-4.4-1.3c-2-0.5-2.6-0.3-3,1.1
		L201,134l1.6-5.6l0.4,0.1c-0.3,1.3,0.1,1.9,1.9,2.5l9.8,2.8c1.9,0.6,2.6,0.3,3-1.1l0.6,0.2l-1.6,5.6l-0.5-0.1
		c0.3-1.2,0.1-1.9-1.9-2.5l-4.6-1.3l-2.6,8.4L207.3,143.1z"/>
</g>
<g>
	<defs>
		<rect id="SVGID_49_" width="924" height="221"/>
	</defs>
	<clipPath id="SVGID_50_">
		<use xlink:href="#SVGID_49_"  style="overflow:visible;"/>
	</clipPath>
	<path class="st24" d="M9.5,112c0,0.8-0.6,1.5-1.5,1.4c-0.8,0-1.5-0.6-1.5-1.5c0-0.7,0.6-1.5,1.5-1.5C8.9,110.5,9.5,111.2,9.5,112"
		/>
</g>
<g>
	<defs>
		<rect id="SVGID_51_" width="924" height="221"/>
	</defs>
	<clipPath id="SVGID_52_">
		<use xlink:href="#SVGID_51_"  style="overflow:visible;"/>
	</clipPath>
	<path class="st25" d="M214.2,112c0,0.8-0.6,1.5-1.5,1.4c-0.8,0-1.5-0.6-1.5-1.5c0-0.8,0.6-1.5,1.5-1.5
		C213.6,110.6,214.2,111.2,214.2,112"/>
</g>
<g>
	<defs>
		<rect id="SVGID_53_" width="924" height="221"/>
	</defs>
	<clipPath id="SVGID_54_">
		<use xlink:href="#SVGID_53_"  style="overflow:visible;"/>
	</clipPath>
	<path class="st26" d="M152.4,186.3c1.1-0.6,2.2-1.3,3.3-2.1l2.8-1.7l2.5-1.9l2.7-2l0.6-0.6l0.6-0.3c0.8-0.6,1.6-1.3,2.3-1.9
		l1.6-1.7l1.9-1.6c0.3-0.2,0.3-0.5,0.6-0.7c0.5-0.5,1-1,1.5-1.5l1-1.2c1.1-1.1,2.2-2.3,3.1-3.5l2.3-2.8c0.5-0.7,1.1-1.4,1.6-2.1
		l0.8-0.8l2.5-3.4c0.2-0.3,0.3-0.8,0.6-1.2c0.2-0.3,0.3-0.6,0.6-0.8c0.1-0.3,0.3-0.6,0.4-1l1.6-2.9c0.4-0.6,0.8-1.5,1.3-2.1
		c0.3-0.8,0.5-1.6,0.9-2.3c0.3-0.8,0.8-1.6,1.1-2.4c1.3-3.4,2.5-6.8,3.6-10.4c0-0.4,0.1-0.8,0.2-1.3c0.3-1.2,0.6-2.6,0.8-3.9
		l0.2-2.1c0.2-1.2,0.4-2.3,0.6-3.4l0.2-2.7l0.3-1.1l0.1-2.3l0.2-1.2v-1.6c0.2-3.5,0.3-7.1,0.1-10.5c-0.1-1.8-0.5-3.6-0.7-5.2
		c-0.2-1.9-0.3-3.6-0.6-5.4c-1-4.8-2.4-9.4-4.1-13.9c-0.2-0.6-0.6-1.2-0.8-1.9c-0.6-1.3-1.2-2.5-1.8-3.8l-0.6-1.1
		c-0.6-1.1-0.8-2.3-1.5-3.4c-0.4-0.6-0.8-1.2-1.2-1.9l-1-2c-1.2-1.9-2.5-3.8-3.7-5.7l-1.4-1.6l-1.6-2c-0.5-0.5-1.1-1-1.5-1.6
		c-0.3-0.3-0.4-0.7-0.7-1c-0.3-0.4-0.8-0.8-1.2-1.3l-0.7-0.6c-0.6-0.6-1.2-1.3-1.8-2l-1.6-1.6l-1.6-1.6l-2.2-1.7l-2.3-1.9
		c-0.5-0.4-1.1-0.6-1.6-1l-1.9-1.4c-0.5-0.3-1-0.7-1.4-1.1l-1.1-0.6l-1.4-1c-1.6-1-3.2-1.7-4.8-2.5c-0.6-0.3-1.2-0.7-1.8-1.1
		c-1.1-0.5-2-1.1-3-1.6l-2.5-1.1c-0.5-0.2-0.9-0.4-1.3-0.6l-1-0.4c-0.6-0.1-1.1-0.3-1.7-0.6c-1.6-0.6-3.2-1-4.9-1.5
		c-0.8-0.2-1.6-0.6-2.4-0.8c-1.7-0.5-3.5-0.8-5.2-1.1c-1.2-0.3-2.4-0.6-3.5-0.8l-2.3-0.3c-1.3-0.3-2.6-0.5-4-0.6l-1.6-0.1l-1.1-0.1
		l-2-0.1c-1.6-0.1-3.2-0.2-4.9-0.2c-0.6,0.2-1.5,0.1-2.1,0.1h-2.4c-0.2,0-0.4,0-0.7,0.1l-1.8,0.1l-0.9,0.2l-0.9,0.1
		c-0.3,0-0.6-0.1-0.8,0.1c-0.1,0.1-0.3,0.1-0.6,0.1c-0.3,0-0.8,0-1.1,0.1c-0.8,0-2,0.1-2.6,0.4c-0.2,0.1-0.3,0.1-0.6,0.1
		c-0.5,0-1.2,0-1.6,0.3c-1.3,0-2.5,0.6-3.7,0.8c-0.6,0.1-1.4,0.2-1.9,0.6c-0.6,0-1.2,0.2-1.6,0.4c-0.8,0-1.5,0.5-2.3,0.8
		c-0.4,0.1-1,0.1-1.3,0.4c-0.8,0-1.6,0.5-2.3,0.7l-1.5,0.6c-2.6,1.1-5.2,2.3-7.6,3.6c-0.4,0.3-0.8,0.6-1.2,0.8
		c-2.9,1.7-5.8,3.3-8.4,5.5c-0.8,0.6-1.6,1.1-2.4,1.7c-0.5,0.3-0.9,0.7-1.3,1.1c-0.7,0.6-1.6,1.1-2.3,1.7c-1.5,1.2-2.9,2.7-4.3,4
		c-0.8,0.7-1.8,1.6-2.6,2.3c-0.3,0.4-0.6,0.7-0.8,1c-0.4,0.5-0.8,0.8-1.2,1.2c-0.6,0.6-1.1,1.4-1.6,2c-0.6,0.5-1.1,1-1.6,1.6
		l-0.6,0.8c-0.9,1.1-1.8,2-2.5,3.1l-1.6,2.6c-0.8,1-1.6,2.3-2.3,3.2c-0.1,0.4-0.3,0.7-0.5,1.1l-1.6,2.6c-0.4,0.9-0.8,1.9-1.2,2.8
		l-0.4,0.8c-0.4,0.8-0.8,1.6-1.3,2.5c-0.2,0.5-0.4,1.1-0.6,1.6s-0.5,1-0.7,1.6l-0.6,1.9c-0.3,0.6-0.5,1.3-0.8,1.9
		c-1.3,4.2-2.4,8.4-3.2,12.7l-0.2,2.5c-0.1,1-0.4,2-0.5,2.9c-0.1,0.7-0.1,1.6-0.2,2.3c-0.1,0.6-0.1,1.2-0.1,1.8
		c-0.1,3.6-0.1,7,0.1,10.4c0.1,1.6,0.3,3.3,0.5,5l0.1,2.1c0.2,2.2,0.6,4.4,1,6.6c0.1,0.6,0.3,1.1,0.4,1.7c0.3,1.7,0.8,3.4,1.3,5.1
		l0.4,1.2c0,0.3,0.2,0.8,0.3,1.2l1.9,5.5c0.4,0.7,0.6,1.3,1,2c0.3,0.4,0.3,1,0.5,1.4c0.5,1.2,1.2,2.3,1.8,3.3c0.4,0.9,1,1.8,1.5,2.8
		c0,0.3,0.1,0.6,0.3,1c0.1,0.2,0.3,0.3,0.5,0.6c0.2,0.3,0.3,0.8,0.5,1.2c0.4,0.8,1,1.6,1.6,2.3l1,1.3c0.4,0.6,1,1.2,1.4,1.7l1,1.5
		c0.6,0.7,1.2,1.5,1.9,2.2c0.5,0.6,1,1.3,1.5,2c0.6,0.7,1.3,1.3,1.9,2c0.5,0.6,1,1.3,1.6,1.9c0.8,0.7,1.6,1.6,2.5,2.4l1.3,1.3
		c0.7,0.6,1.6,1,2.2,1.6l1.9,1.9l1.4,1.1c0.6,0.5,1.1,1.1,1.7,1.6l2.3,1.6c0.6,0.3,1.1,0.4,1.6,0.7c0.6,0.4,1.2,0.8,1.8,1.3l1.8,1
		c2.2,1.3,4.5,2.5,6.8,3.7c1.1,0.5,2.1,1.1,3.1,1.5c1.1,0.4,2.1,0.8,3,1.2c0.3,0.2,0.7,0.3,1.1,0.3c1,0.3,1.9,0.8,2.9,1.1l0.8,0.2
		c0.8,0.3,1.7,0.7,2.6,1l3.2,0.6c1.6,0.3,3.3,0.8,4.9,1.1c0.6,0.1,1.2,0.1,1.8,0.1c0.8,0.1,1.6,0.3,2.5,0.3l1.9,0.1l1.2,0.2
		c0.4,0,0.8,0.1,1.3,0.1c1,0.1,1.9,0.3,2.9,0.4c0.5,0.1,1,0.1,1.6,0.1l0.9-0.1c0.9,0,1.9,0.1,2.9,0.1c0.5,0,1.1-0.1,1.6,0
		c1.2,0.1,2.2-0.1,3.2-0.3h1.5c0.6-0.1,1.3-0.3,1.9-0.3c2.4-0.2,4.6-0.5,6.9-0.9c0.8-0.2,1.6-0.3,2.3-0.6l2.9-0.6
		c0.5-0.1,0.9-0.3,1.4-0.6c0.7-0.2,1.5-0.4,2.3-0.7l1-0.3l1.6-0.4c1.2-0.3,2.3-0.7,3.5-1.2l2-1c0.6-0.3,1.4-0.6,2-0.8l0.6-0.3
		c0.6-0.4,1.4-0.6,2-1l2.3-1.4c0.4-0.3,0.8-0.5,1.2-0.6"/>
</g>
<g>
	<defs>
		<rect id="SVGID_55_" width="924" height="221"/>
	</defs>
	<clipPath id="SVGID_56_">
		<use xlink:href="#SVGID_55_"  style="overflow:visible;"/>
	</clipPath>
	<path class="st27" d="M109.6,189.8L109.6,189.8L109.6,189.8c-0.2-0.1-0.3-0.2-0.3-0.3l-0.8-1.4l-1.8-2.1c-1.8-1.8-4-3.2-6.2-4.2
		l-1.4-0.5c-0.6-0.2-1-0.6-1.6-0.7c-0.5-0.2-1.1-0.2-1.6-0.3c-0.6-0.2-1.1-0.3-1.7-0.4l-3.5-0.8c-1.1-0.1-2.3-0.3-3.4-0.4
		c-0.9,0-1.8,0-2.6-0.1c-4.1-0.4-8.2-0.8-12.1-1.5c-1.4-0.2-2.7-0.2-4.1-0.4c-1.3-0.2-2.6-0.6-3.9-1.1c-0.7-0.2-1.4-0.3-2-0.6
		c-0.6-0.3-1.3-0.6-1.9-0.8c-0.5-0.3-1-0.5-1.4-0.6c-0.3-0.3-0.6-0.5-1-0.6c-0.1-0.1-0.3-0.2-0.4-0.3c-1.1-0.8-1.9-2-2.8-3.1
		c-0.6-0.8-1-1.8-1.3-2.8c-0.1-0.5-0.3-1-0.4-1.5c-0.6-2.3-0.6-4.5-0.6-7c0-0.5,0-1-0.1-1.5c0.1-1.8,0.2-3.7,0.2-5.5l-0.1-1.2
		l0.1-5.5c0-1.2,0.1-2.4,0.1-3.6c-0.1-4.9,0.1-10,0.1-15l-0.1-2.1l0.1-2.3l-0.1-1.1l0.3-3.4c0-0.9-0.1-1.8-0.1-2.6
		c0-0.6,0.1-1.2,0.1-1.9c-0.1-0.6-0.1-1.1-0.1-1.6c0.1-0.5,0.1-1,0.1-1.5l-0.1-3c0-0.6,0.2-1.2,0.1-1.8c-0.1-0.7-0.1-1.3-0.1-2
		c0-0.8,0.1-1.7,0.2-2.5c0.1-0.8-0.1-1.6-0.1-2.4l0.1-5.3l0.1-1.1l-0.1-2.3l0.2-1.9c0.1-3.1,0.1-6.4,0.2-9.5v-3.2
		c-0.1-0.8-0.1-1.5-0.1-2.3c0.1-0.5,0.1-1.1,0.1-1.6l-0.1-8.1c0-1,0.1-1.9,0.1-2.8l-0.1-3.3l0.1-2.2c0-0.6-0.1-1.5,0.1-1.9
		c0-0.2,0.2-0.2,0.3-0.2c1.5-0.2,2.8-0.3,4-0.2c1.5,0.2,2.9,0,4.4,0h4c0.8,0,1.6-0.1,2.4-0.1c1.6,0,2.9,0.1,4.4,0h7.1
		c0.8,0,1.6,0,2.3-0.1c0.6,0,1.2,0.1,1.9,0.1h2.4c1.2,0,2.6,0,3.9,0.1l1.7,0.1c1.8,0,3.6-0.1,5.3-0.1l3.6,0.1c1,0,1.9-0.2,3-0.2
		l2.3,0.1l2-0.1l2.4,0.2c0.6-0.1,1.2-0.1,1.8-0.1l3.6,0.1c0.5-0.1,1.1-0.1,1.6-0.2c3.2-0.1,6.3,0,9.5-0.1l2.1-0.1
		c1.5-0.1,2.9,0,4.4-0.1c0.1,0.1,0.5,0.1,0.7,0.1c1.2,0.1,2.6,0,4,0.1c0.6,0,1,0.1,1.6,0.1c0.6-0.1,1.2-0.1,1.8-0.1
		c0.9,0.1,2,0.1,2.9,0.1c0.6,0,1.3-0.1,2-0.1l1.5,0.1L151,52l1.5,0.2l1.2-0.1c0.5,0.1,0.9,0.1,1.3,0.1l1.3-0.1l2.3,0.1
		c1.2-0.1,2.5,0.1,3.8,0.1l1.8-0.1c0.4,0.1,0.8,0.1,1.2,0.1c0.3,0,0.8-0.1,1.2,0.1l0.1,0.1c0.3,0.4,0.1,1.1,0.1,1.7
		c0,1.6-0.1,3.3,0,5.1c0.1,1.1,0.1,2.3,0.1,3.3l-0.1,1.1c0.1,0.8,0.1,1.6,0.1,2.3l-0.1,2.3l0.3,3l-0.1,1.1c-0.1,0.6,0.1,1.3,0.1,1.9
		l-0.1,1.9l-0.1,2.4l-0.1,1.9l0.2,2.9c-0.2,0.3-0.2,0.6-0.2,1c-0.1,0.8-0.1,1.6-0.1,2.4c0,1.4,0.1,2.9,0.1,4.3l-0.1,0.9
		c0.1,0.6,0.1,1.3,0.1,1.9c-0.1,0.6-0.1,1.5-0.1,2.4c0,0.6,0.1,1.1,0.1,1.7l-0.1,0.9c0.1,0.4,0.1,0.8,0.1,1.2
		c-0.1,1.6-0.1,2.9-0.1,4.5c0.1,0.7,0.1,1.5,0.1,2.3l0.1,0.9l-0.1,1.6l0.1,1l-0.1,1.6c0,0.8,0.2,1.6,0.1,2.4
		c-0.1,2.2-0.2,4.3-0.2,6.5c0,0.9,0.1,1.7,0.1,2.5c-0.1,0.5-0.1,1-0.1,1.5c0,1.1,0,2.1-0.1,3.1l-0.1,1.7c0.1,2.1,0.1,4.2,0.1,6.3
		c0,1.5-0.2,3-0.2,4.5l0.1,2.4c0,0.3-0.1,0.6-0.1,0.9v1.7l0.1,4c0,1.6,0,3.2-0.1,4.9l-0.1,1.3l0.1,0.9c-0.1,1-0.1,1.9-0.2,2.9
		c-0.1,0.7,0.1,1.6,0.1,2.4c-0.1,0.5-0.2,1.1-0.3,1.6c0,0.6-0.1,1.1-0.2,1.6c-0.2,1-0.8,2.3-1.3,3.1c-0.4,0.7-1.1,1.1-1.7,1.6
		c-0.3,0.3-0.7,0.6-1.1,0.8c-0.6,0.6-1.3,1.1-2,1.6c-0.4,0.2-1,0.3-1.4,0.6c-1,0.3-1.9,0.8-2.9,1.2c-0.8,0.3-1.8,0.6-2.7,0.9
		l-0.7,0.2c-0.5,0-1.1,0.2-1.6,0.4c-0.4,0-0.8,0.1-1.2,0.2c-0.6,0-1.1,0.2-1.6,0.3c-0.1,0.1-0.3,0.2-0.5,0.2c-0.3,0-0.6,0.1-0.8,0.1
		c-0.5,0-1.6,0.2-2,0.4c-0.4,0-1-0.1-1.3,0c-0.3,0-0.6,0.1-0.8,0.2c-0.4,0-0.8-0.1-1.2,0.1h-0.6c-0.3,0-0.6,0-0.9,0.2
		c-0.3,0-0.6,0.1-0.8,0.1c-0.6,0-1.3-0.1-1.8,0.1l-0.6,0.1c-0.6,0-1.1-0.2-1.6,0.1c-0.3,0-0.6-0.1-0.9,0.1h-0.4
		c-0.5,0-1.1,0-1.6,0.1c-0.3,0.1-0.5,0.1-0.6,0.1l-0.5,0.1c-0.1,0.1-0.3,0.1-0.4,0.1h-0.7c0,0-0.6,0-0.9,0.2l-0.6,0.1
		c-0.3,0-0.7,0-1,0.1c-0.3,0-0.6,0-0.9,0.2c-0.3,0-0.6,0.1-0.8,0.1c-0.2,0-0.5,0-0.6,0.1l-0.5,0.1c-0.3,0-0.9,0.1-1.2,0.3
		c-0.3,0-0.5,0-0.7,0.1c-0.8,0-1.5,0.3-2.1,0.6c-0.6,0.2-1.1,0.3-1.6,0.6c-1.1,0-2.1,0.9-2.8,1.6c-0.6,0.6-1.5,0.8-2.1,1.4
		c-1.7,2-2.8,4.2-3.6,6.4"/>
</g>
<g>
	<defs>
		<rect id="SVGID_57_" width="924" height="221"/>
	</defs>
	<clipPath id="SVGID_58_">
		<use xlink:href="#SVGID_57_"  style="overflow:visible;"/>
	</clipPath>
	<path class="st28" d="M118,179.1c0.4-0.2,0.9-0.3,1.4-0.6c0.9-0.3,1.9-0.4,2.9-0.6c1.8-0.3,3.6-0.8,5.3-1.3h1.3
		c0.7-0.2,1.4-0.3,2.1-0.4l2.9-0.1c1.1-0.1,2.3-0.3,3.4-0.4l3.1-0.2c0.9-0.1,1.8-0.3,2.8-0.4c0.3-0.1,0.6-0.1,0.9-0.1
		c1.4-0.2,2.8-0.6,4.1-0.8c0.4-0.2,0.9-0.2,1.3-0.3c1.3-0.3,2.6-0.8,3.8-1.3c1.1-0.3,2.1-0.6,3-1.1c0.8-0.3,1.6-1,2.4-1.5
		c1.4-0.9,2.9-1.9,3.9-3.4c0.3-0.6,0.8-1.7,0.8-2.5c0.1-0.3,0.1-0.8,0.1-1.1c0.3-1.6,0.2-3.5,0.2-5.2c0.1-0.6,0.1-1.2,0.1-1.8
		c-0.1-0.3-0.1-0.6-0.1-1v-2l-0.1-0.8v-1.4c0-0.4,0.1-0.8,0.1-1.3c0-0.5-0.1-0.8-0.1-1.3c0-0.6,0.1-1,0.1-1.6c0.1-1.9,0-4,0.1-5.9
		l-0.1-1.5l0.1-5.2c0.1-4.8,0.1-9.8,0.1-14.6c-0.1-0.5-0.1-1-0.1-1.5c-0.1-0.1-0.1-0.3-0.1-0.4c0.1-0.3,0.1-0.8,0.1-1.2
		c-0.1-0.3-0.1-0.6-0.1-0.8c0-0.3,0.1-0.8,0.1-1.2c0-0.8-0.3-1.6-0.3-2.5c0-0.6,0.1-1.2,0.1-1.7c0-0.3,0-0.6-0.1-0.8l0.1-0.8l-0.1-1
		l0.1-1.1c0-0.3-0.1-0.6-0.1-1l0.1-6.2c0-0.5,0.1-0.9,0.1-1.3s-0.1-0.8-0.1-1.2l0.1-0.7l0.1-2l-0.1-3.2l-0.1-1.1
		c0-0.8,0.1-1.6,0.1-2.4l-0.1-1.9c0.1-4.9-0.1-9.5,0-14.4c0.1-2.6,0.1-5.3,0.1-8c0.1-1.5-0.1-3-0.1-4.4c0-1.4,0-2.7,0.1-4.1
		c0-0.1-0.7-0.1-0.8,0l-4.2-0.1c-0.9-0.1-1.8-0.1-2.8-0.1c-0.3,0-0.6-0.1-0.8,0.1l-1,0.1l-1.6-0.2l-5.3-0.1c-0.5,0-1.8-0.1-2.1,0
		h-2.6c-0.7-0.1-1.7-0.4-2.4-0.1c-0.2,0.1-0.4,0.1-0.6,0.1c-0.6,0-1.3,0-1.9-0.1c-1-0.1-2-0.2-3-0.2c-0.8,0.2-1.8-0.1-2.6,0.1
		c-0.2,0.1-0.3,0.1-0.6,0.1H129c-0.4,0-1-0.1-1.2,0.1c-0.2,0-0.6-0.1-0.8,0.1c-0.6,0-1.2-0.1-1.8-0.1l-4.7-0.1
		c-0.6,0-1.4-0.1-1.9,0.1c0,0.1-0.1,0.1-0.3,0.1c-0.2,0.1-0.4,0.1-0.7,0.1c-0.8,0-2.3-0.4-3.1-0.1c-0.1,0.1-0.2,0.1-0.4,0.1
		c-0.3,0-0.7,0-1,0.1l-6.7-0.1h-1.8c-0.3,0-0.7-0.1-0.9,0c-0.6,0-1.1,0-1.7-0.1c-0.8-0.1-2.5-0.3-3.2-0.1h-1.6
		c-0.3-0.1-0.7-0.1-1.1,0c-0.4,0-1.1-0.1-1.5,0.1c-0.9,0-1.7-0.1-2.6-0.1c-0.3,0-0.6-0.1-0.9,0.1c-0.6,0-1.3-0.1-1.8,0.1h-2.5
		c-0.4,0-1-0.1-1.3,0.1c-1,0-2.1,0-3.2,0.1c-0.6-0.1-2-0.3-2.6-0.1c-0.6,0-1.9-0.2-2.4-0.1c-1.5,0-2.8-0.1-4.1-0.2
		c-0.5-0.1-1.3-0.2-1.8,0c-0.3,0-0.6-0.1-0.8,0.1c-0.6,0-1.3-0.1-1.8,0.1c-0.4,0-1.2-0.1-1.6,0.1c-1.8,0-3.7-0.1-5.6-0.2
		c-0.6,0-1.3-0.1-1.8,0.1c-0.7,0-2.2-0.1-2.7,0.1c-0.3,0-1.1-0.2-1.3,0.1c-0.5,0.6-0.2,2.6-0.2,3.2v5.2l-0.2,5.8
		c0,0.6-0.1,0.9-0.1,1.5l0.1,1.5L55,72.8c0.2,1.1,0.2,2.2,0.2,3.1c-0.1,1.7-0.1,3.6-0.1,5.3c0.1,0.7,0.1,1.4,0.1,2.1
		c0.1,0.2,0.1,0.5,0.1,0.7c-0.1,0.4-0.1,0.8-0.1,1.3c0.1,3.1-0.1,6-0.1,9.1l0.1,4c-0.1,0.6-0.1,1.2-0.1,1.9l0.1,2.9l-0.1,6
		c0.1,0.7,0.1,1.4,0.1,2.1l-0.1,2.7l0.1,10.9c0,0.9-0.1,1.6-0.1,2.6v2.9c0.1,0.4,0.1,0.8,0.1,1.3c-0.1,3.2-0.2,6.3-0.2,9.6
		c0,1.5-0.1,2.8-0.2,4.2v1.9l0.1,0.7l-0.1,0.8c-0.1,0.7-0.1,1.5-0.1,2.2c0,0.8,0,1.9,0.1,2.8c0,0.4,0.1,0.8,0.1,1.2
		c0,0.4-0.2,0.7-0.2,1.1c0,0.6,0.1,0.9,0.1,1.5c-0.1,3.9,0.1,7.7,1.8,10.6c1.2,2,3.5,3.3,5.5,4.2c1.4,0.6,2.9,1.3,4.5,1.7
		c1.1,0.3,2.3,0.4,3.5,0.6l2.8,0.5c0.9,0,1.8,0.1,2.7,0.2c1.9,0.2,3.9,0.6,5.8,0.8c0.9,0.1,1.9,0.1,2.8,0.1c0.3,0.1,0.8,0.1,1.2,0.3
		h2.1l2.4,0.3c0.3,0.1,0.8,0.1,1.2,0.1c0.3,0.1,0.7,0.1,1.1,0.3l2.9,0.4l1,0.3c0.6,0.2,1.2,0.3,1.9,0.6c1,0.3,1.9,0.6,2.9,1l2,1.1
		l1.1,0.7c0.8,0.4,1.6,0.8,2.2,1.3c0.8,0.7,1.5,1.6,2.2,2.4c0.3,0.3,0.4,0.6,0.7,0.8c0,0.1,0.1,0.1,0.1,0.1c0-0.1,0.3-0.3,0.5-0.5
		l0.4-0.6c1.6-2.4,4.1-4.2,6.6-5.5C117.2,179.3,117.6,179.1,118,179.1"/>
</g>
<g>
	<defs>
		<rect id="SVGID_59_" width="924" height="221"/>
	</defs>
	<clipPath id="SVGID_60_">
		<use xlink:href="#SVGID_59_"  style="overflow:visible;"/>
	</clipPath>
	<path class="st29" d="M118.4,63.9h-0.2v-0.7c0.1-0.8,0.7-1.1,1.1-1.7C120.1,62.2,118.9,63.3,118.4,63.9"/>
</g>
<g>
	<defs>
		<rect id="SVGID_61_" width="924" height="221"/>
	</defs>
	<clipPath id="SVGID_62_">
		<use xlink:href="#SVGID_61_"  style="overflow:visible;"/>
	</clipPath>
	<path class="st30" d="M122.4,57.5c0.3-0.3,0.5-0.8,0.8-1.1l0.7-0.7c0.6,0.1,1.1,0.1,1.6,0.1V56c-0.8,0-2.9,2.7-3.5,3.4
		c-0.2,0.3-0.5,1-0.8,1.1c-0.2,0.1-0.5,0-0.6-0.1c-0.6-0.3-0.1-0.8,0.1-1.3c0-0.2,0.1-0.5,0.3-0.6c0.2-0.2,0.4-0.3,0.6-0.3
		C121.7,58,122,57.7,122.4,57.5"/>
</g>
<g>
	<defs>
		<rect id="SVGID_63_" width="924" height="221"/>
	</defs>
	<clipPath id="SVGID_64_">
		<use xlink:href="#SVGID_63_"  style="overflow:visible;"/>
	</clipPath>
	<path class="st31" d="M117.2,59.3c0.1-0.3,0.1-0.8,0.3-1.2c0.2-0.4,0.7-0.6,1.2-0.9c0.4-0.3,0.4-0.7,0.6-1.1c0.3-0.3,0.6-0.4,1-0.6
		h1c0,0.3-0.5,0.8-0.7,1.1c-0.2,0.5-0.4,0.9-0.7,1.3c-0.3,0.4-0.6,0.8-0.8,1.2c-0.3,0.3-0.3,0.6-0.6,1c-0.2,0.1-0.3,0.3-0.6,0.4
		c-0.1,0.2-0.3,0.3-0.5,0.5l-0.5,0.5c-0.3,0.4-0.3,1-0.7,1.3c-0.3,0.3-1.1,0.4-1.6,0.3h-0.2c0-0.3,1-1.8,1.2-2
		c0.2-0.2,0.5-0.2,0.7-0.4c0.1-0.2,0.1-0.5,0.3-0.7C116.8,59.8,117.1,59.7,117.2,59.3"/>
</g>
<g>
	<defs>
		<rect id="SVGID_65_" width="924" height="221"/>
	</defs>
	<clipPath id="SVGID_66_">
		<use xlink:href="#SVGID_65_"  style="overflow:visible;"/>
	</clipPath>
	<path class="st32" d="M111.5,58.3c0-0.3,0.4-0.6,0.5-1c0.1-0.4-0.1-0.8,0.3-1.2c0.3-0.4,2.3,0,2.9-0.4h1.2v0.1
		c-0.1,0-0.1,0.1-0.1,0.1c-0.6,0.8-0.8,1.8-1.3,2.7l-0.5,1l-0.4,1.1c-0.3,0.7-1.3,1.9-2.2,2.1c-0.1,0,0-0.7-0.1-0.9
		c-0.1-0.3-0.2-0.6-0.1-1c0.1-0.4,0.3-0.7,0.3-1.1C111.7,59.4,111.5,58.8,111.5,58.3"/>
</g>
<g transform="translate(-.26 -.13)">
	<g>
		<defs>
			<rect id="SVGID_67_" x="0.3" y="0.1" width="924" height="221"/>
		</defs>
		<clipPath id="SVGID_68_">
			<use xlink:href="#SVGID_67_"  style="overflow:visible;"/>
		</clipPath>
		<path class="st33" d="M105.8,55.9c0.3-0.3,1.3-0.2,1.8-0.3c0.5,0.1,1.7,0.1,2.3,0.1l0.1,1c0.1,0.3,0.1,0.5,0.1,0.8l-0.1,0.8
			c-0.1,1.2-0.2,2.4-0.2,3.6l0.1,2.1h-0.1V64c-1,0-2-2.9-2.5-3.6c-0.3-0.4-0.6-0.6-0.8-1C105.9,58.7,104.9,56.7,105.8,55.9"/>
	</g>
</g>
<g transform="translate(-.26 -.13)">
	<g>
		<defs>
			<rect id="SVGID_69_" x="0.3" y="0.1" width="924" height="221"/>
		</defs>
		<clipPath id="SVGID_70_">
			<use xlink:href="#SVGID_69_"  style="overflow:visible;"/>
		</clipPath>
		<path class="st34" d="M99.6,56.4c0.1-0.5,1.3-0.5,1.8-0.8c0.4,0,1.1-0.1,1.3,0.1c1.1,0.6,1.5,2.1,1.9,3.1l1,1.9l0.6,1
			c0.1,0.3,0.2,0.6,0.2,1.1c0,0.3,0.1,0.8-0.2,1c-0.2,0.1-0.6,0.1-0.8-0.1c-0.3-0.1-5.8-6.9-5.8-7.3L99.6,56.4"/>
	</g>
</g>
<g transform="translate(-.26 -.13)">
	<g>
		<defs>
			<rect id="SVGID_71_" x="0.3" y="0.1" width="924" height="221"/>
		</defs>
		<clipPath id="SVGID_72_">
			<use xlink:href="#SVGID_71_"  style="overflow:visible;"/>
		</clipPath>
		<path class="st35" d="M96.7,55.7c0.6,0.1,0.8,0.3,1.3,0.6c0.6,0.6,1.1,1.3,1.6,1.9c0.2,0.4,0.3,0.7,0.6,1.1
			c0.4,0.4,0.8,0.7,1.2,1.2c0.4,0.4,0.7,0.8,1,1.3l0.3,0.5l0.7,0.6c0.5,0.5,1,1.1,1.2,1.7c-0.1,0-0.1,0.1-0.1,0.2
			c-0.4,0-0.9-0.1-1.2-0.3l-1.5-1.5c-0.3-0.3-0.7-0.4-1-0.8c-0.6-0.7-0.9-1.6-1.6-2.2c-0.3-0.3-0.8-0.4-1.2-0.8L98,59.3
			c-0.3-0.4-0.6-1-0.8-1.4c-0.3-0.5-1-0.8-1.3-1.3v-0.2C95.7,56,96.3,55.8,96.7,55.7"/>
	</g>
</g>
<g transform="translate(-.26 -.13)">
	<g>
		<defs>
			<rect id="SVGID_73_" x="0.3" y="0.1" width="924" height="221"/>
		</defs>
		<clipPath id="SVGID_74_">
			<use xlink:href="#SVGID_73_"  style="overflow:visible;"/>
		</clipPath>
		<path class="st36" d="M113.6,71.5c0.2,0.1,0.4,0.1,0.6,0.1c0.6,0.2,1.2,1.2,1,1.9c-0.1,0.3-0.6,0.6-0.8,1
			c-0.3,0.1-0.6,0.4-0.9,0.4c-0.4-0.1-0.3-1-0.1-1.2c0.1-0.4,0.5-0.5,0.5-0.9C113.9,72.2,113.5,71.9,113.6,71.5"/>
	</g>
</g>
<g transform="translate(-.26 -.13)">
	<g>
		<defs>
			<rect id="SVGID_75_" x="0.3" y="0.1" width="924" height="221"/>
		</defs>
		<clipPath id="SVGID_76_">
			<use xlink:href="#SVGID_75_"  style="overflow:visible;"/>
		</clipPath>
		<path class="st37" d="M114.6,68.3c-0.3,0.1-0.6,0.6-0.8,0.6c-0.4,0-0.6-0.6-1-1c-0.3-0.3-1.1-0.5-0.9-1.1c0.1-0.3,0.3-0.3,0.4-0.4
			v-0.1c0.5,0.2,0.8,0.4,1.3,0.6c0.5,0.2,1,0.3,1.6,0.6c0.1,0.1,0.1,0.1,0.1,0.3C115.2,68.1,114.9,68.3,114.6,68.3"/>
	</g>
</g>
<g transform="translate(-.26 -.13)">
	<g>
		<defs>
			<rect id="SVGID_77_" x="0.3" y="0.1" width="924" height="221"/>
		</defs>
		<clipPath id="SVGID_78_">
			<use xlink:href="#SVGID_77_"  style="overflow:visible;"/>
		</clipPath>
		<path class="st38" d="M113.7,77.7c-0.1,0.6-1.3,0.8-1.8,0.5c-0.6-0.3,0.6-1.2,0.8-1.4C113,76.9,113.7,77.3,113.7,77.7"/>
	</g>
</g>
<g transform="translate(-.26 -.13)">
	<g>
		<defs>
			<rect id="SVGID_79_" x="0.3" y="0.1" width="924" height="221"/>
		</defs>
		<clipPath id="SVGID_80_">
			<use xlink:href="#SVGID_79_"  style="overflow:visible;"/>
		</clipPath>
		<path class="st39" d="M110.3,77.2c-0.2,0.1-0.3-0.1-0.4-0.2c-0.2-0.1-0.3-0.1-0.6-0.3c-0.3-0.4-0.3-0.8-0.3-1.5c0-0.3,0-0.7,0.1-1
			c0.1-0.2,0.3-0.3,0.6-0.5c0.3,0,0.4,0.1,0.6,0.2c0.2,0.1,1.8,1.6,1.8,1.8C112.1,76.4,110.8,77.2,110.3,77.2"/>
	</g>
</g>
<g transform="translate(-.26 -.13)">
	<g>
		<defs>
			<rect id="SVGID_81_" x="0.3" y="0.1" width="924" height="221"/>
		</defs>
		<clipPath id="SVGID_82_">
			<use xlink:href="#SVGID_81_"  style="overflow:visible;"/>
		</clipPath>
		<path class="st40" d="M119.2,72.4c0,0.6-0.3,1.1-0.8,1.3c0,0.2-0.3,0-0.3,0C118.1,73.1,118.8,72.8,119.2,72.4L119.2,72.4
			L119.2,72.4z"/>
	</g>
</g>
<g transform="translate(-.26 -.13)">
	<g>
		<defs>
			<rect id="SVGID_83_" x="0.3" y="0.1" width="924" height="221"/>
		</defs>
		<clipPath id="SVGID_84_">
			<use xlink:href="#SVGID_83_"  style="overflow:visible;"/>
		</clipPath>
		<path class="st41" d="M117.8,71.5c-0.2,0.1-0.3,0.3-0.6,0.3c-0.3,0-0.3-0.2-0.4-0.4c-0.1-0.2-0.1-2.6,0.1-2.9
			c0.1-0.3,0.5-0.5,0.7-0.6c0.6,0.2,0.6,0.5,0.7,1C118.5,69.8,118.8,70.7,117.8,71.5"/>
	</g>
</g>
<g transform="translate(-.26 -.13)">
	<g>
		<defs>
			<rect id="SVGID_85_" x="0.3" y="0.1" width="924" height="221"/>
		</defs>
		<clipPath id="SVGID_86_">
			<use xlink:href="#SVGID_85_"  style="overflow:visible;"/>
		</clipPath>
		<path class="st42" d="M116.9,75.8C117,75.8,117,75.9,116.9,75.8c0,0.4-1,1-1.3,0.7c-0.4-0.4,0.2-0.8,0.4-1.1
			C116.4,75.5,116.7,75.5,116.9,75.8"/>
	</g>
</g>
<g transform="translate(-.26 -.13)">
	<g>
		<defs>
			<rect id="SVGID_87_" x="0.3" y="0.1" width="924" height="221"/>
		</defs>
		<clipPath id="SVGID_88_">
			<use xlink:href="#SVGID_87_"  style="overflow:visible;"/>
		</clipPath>
		<path class="st43" d="M110,67.9h0.8c0.4,0.2,1.9,1.4,1.8,2c-0.1,0.6-0.6,0.8-1.1,1.2c-0.4,0.3-0.8,0.8-1.5,0.9
			c-0.6,0.1-1.3-2.5-1.3-2.9C108.8,68.9,109.7,68,110,67.9L110,67.9"/>
	</g>
</g>
<g transform="translate(-.26 -.13)">
	<g>
		<defs>
			<rect id="SVGID_89_" x="0.3" y="0.1" width="924" height="221"/>
		</defs>
		<clipPath id="SVGID_90_">
			<use xlink:href="#SVGID_89_"  style="overflow:visible;"/>
		</clipPath>
		<path class="st44" d="M108.2,74c-0.3,0.3-0.7,0.7-1,0.7c-0.3,0.1-0.4-0.2-0.7-0.3c-0.5-0.5-0.8-1.4-0.7-2.1l0.3-0.6
			c0.3-0.6,0.2-0.7,0.6-1.2c0.6,0.3,2.6,1.6,2.4,2.5C108.9,73.4,108.5,73.8,108.2,74"/>
	</g>
</g>
<g transform="translate(-.26 -.13)">
	<g>
		<defs>
			<rect id="SVGID_91_" x="0.3" y="0.1" width="924" height="221"/>
		</defs>
		<clipPath id="SVGID_92_">
			<use xlink:href="#SVGID_91_"  style="overflow:visible;"/>
		</clipPath>
		<path class="st45" d="M108.5,78.1L108.5,78.1c-0.1,0.1-0.4,0.1-0.4,0.1c-1.2-0.2-2.4-0.6-1.5-1.9c0.2,0,0.3,0,0.4,0.1
			c0.3,0.3,0.3,0.5,0.6,0.7C107.9,77.6,108.4,77.7,108.5,78.1"/>
	</g>
</g>
<g transform="translate(-.26 -.13)">
	<g>
		<defs>
			<rect id="SVGID_93_" x="0.3" y="0.1" width="924" height="221"/>
		</defs>
		<clipPath id="SVGID_94_">
			<use xlink:href="#SVGID_93_"  style="overflow:visible;"/>
		</clipPath>
		<path class="st46" d="M103.3,68.5c0,0,0.6-0.6,0.8-0.8v-0.1c1,0.6,1.7,1.7,0.7,2.8c-0.2,0.2-0.5,0.4-0.8,0.5
			c-0.8,0.1-0.5-1-0.6-1.4C103.5,69.1,103.4,68.8,103.3,68.5"/>
	</g>
</g>
<g transform="translate(-.26 -.13)">
	<g>
		<defs>
			<rect id="SVGID_95_" x="0.3" y="0.1" width="924" height="221"/>
		</defs>
		<clipPath id="SVGID_96_">
			<use xlink:href="#SVGID_95_"  style="overflow:visible;"/>
		</clipPath>
		<path class="st47" d="M105,67.1v-0.2c0.1-0.1,0.3-0.1,0.4-0.1c1-0.1,1.6-0.3,2.3-0.7c0.2,0.1,0.6,0.1,0.8,0.3
			c0.5,0.6-1.5,2-2.1,1.9C105.9,68.2,105.5,67.4,105,67.1"/>
	</g>
</g>
<g transform="translate(-.26 -.13)">
	<g>
		<defs>
			<rect id="SVGID_97_" x="0.3" y="0.1" width="924" height="221"/>
		</defs>
		<clipPath id="SVGID_98_">
			<use xlink:href="#SVGID_97_"  style="overflow:visible;"/>
		</clipPath>
		<path class="st48" d="M103.8,73.4c0.1,0,0.3,0,0.4,0.1c0.3,0.2,1.7,1.5,1.7,1.9c0.1,0.4-1.1,1.2-1.5,1.2c-0.3,0.1-0.3-0.2-0.4-0.4
			C103.7,75.3,103.6,74.3,103.8,73.4"/>
	</g>
</g>
<g transform="translate(-.26 -.13)">
	<g>
		<defs>
			<rect id="SVGID_99_" x="0.3" y="0.1" width="924" height="221"/>
		</defs>
		<clipPath id="SVGID_100_">
			<use xlink:href="#SVGID_99_"  style="overflow:visible;"/>
		</clipPath>
		<path class="st49" d="M102.3,72.5c-0.7,0.2-0.6-1.2-0.6-1.7C102.4,71,103.5,72.3,102.3,72.5"/>
	</g>
</g>
<g transform="translate(-.26 -.13)">
	<g>
		<defs>
			<rect id="SVGID_101_" x="0.3" y="0.1" width="924" height="221"/>
		</defs>
		<clipPath id="SVGID_102_">
			<use xlink:href="#SVGID_101_"  style="overflow:visible;"/>
		</clipPath>
		<path class="st50" d="M111.7,151.2c0-0.2,1.6-2.6,1.9-2.9c0.1-0.1,0.3-0.3,0.4-0.3v-0.1h1.1c0,0.4-1.8,3.1-2.3,3.2
			C112.5,151.3,112.1,151.3,111.7,151.2L111.7,151.2L111.7,151.2z"/>
	</g>
</g>
<g transform="translate(-.26 -.13)">
	<g>
		<defs>
			<rect id="SVGID_103_" x="0.3" y="0.1" width="924" height="221"/>
		</defs>
		<clipPath id="SVGID_104_">
			<use xlink:href="#SVGID_103_"  style="overflow:visible;"/>
		</clipPath>
		<path class="st51" d="M100.2,151c-0.4,0.2-1.1,0.1-1.6,0.1c0-0.7,2.8-2.7,3.4-3.2h1.1C103.1,148.4,100.7,150.8,100.2,151"/>
	</g>
</g>
<g transform="translate(-.26 -.13)">
	<g>
		<defs>
			<rect id="SVGID_105_" x="0.3" y="0.1" width="924" height="221"/>
		</defs>
		<clipPath id="SVGID_106_">
			<use xlink:href="#SVGID_105_"  style="overflow:visible;"/>
		</clipPath>
		<path class="st52" d="M120.8,165.9c-0.5,0.2-1.1-0.2-1.4-0.6c-0.3-0.3-0.3-0.8-0.6-1.3c-0.2-0.6-0.4-1.5-0.8-2.1
			c-0.2-0.4-0.6-1.1-0.5-1.7c0.1-0.3,0.3-0.5,0.6-0.7c0.2,0.1,0.3,0.1,0.5,0.3l0.3,0.6l0.6,2.1c0.3,0.8,0.6,1.7,1,2.5
			C120.7,165.3,121.1,165.8,120.8,165.9"/>
	</g>
</g>
<g transform="translate(-.26 -.13)">
	<g>
		<defs>
			<rect id="SVGID_107_" x="0.3" y="0.1" width="924" height="221"/>
		</defs>
		<clipPath id="SVGID_108_">
			<use xlink:href="#SVGID_107_"  style="overflow:visible;"/>
		</clipPath>
		<path class="st53" d="M118.3,147.8c0.3,0.6,2.5,2.9,2.4,3.4c-0.1,0.1-0.1,0.1-0.3,0.1h-5.4v-0.1h-0.1c0-0.3,0.2-0.5,0.3-0.7
			c0.3-0.7,1.7-2.6,1.6-3.3c0-0.2-0.2-0.4-0.4-0.4c-0.9-0.3-2-0.1-3-0.1c-0.6,0-1.7-0.3-2.2,0c-1,0-4.4-0.5-4.9,0.3
			c-0.1,0.2,0.1,0.4,0.1,0.6c0.3,0.8,1.1,1.6,1.6,2.3c0.3,0.4,0.6,0.8,0.8,1.3v0.1c-0.1,0.1-0.1,0.1-0.2,0.1
			c-2.1-0.1-4.2-0.1-6.4-0.1v-0.1c0.1,0,3.1-3.7,3.5-4.1c0-0.1-0.1-0.1-0.1-0.1c-0.3-0.1-0.8-0.1-1.1-0.1l-1.9-0.1
			c-1.7-0.1-3.7,0-5.4-0.2c0-0.2,2.6-2.7,3-3c2.2-2.3,4.4-4.5,6.8-6.8c0.7-0.7,1.5-1.6,2.4-2.4c0.3-0.2,0.5-0.5,0.8-0.6v-0.1
			c0.5,0.3,1,0.8,1.3,1.2c0.7,0.7,1.3,1.4,2,2.1c0.4,0.3,0.8,0.8,1.3,1.2c1.9,2,4,4,6,5.9c0.8,0.8,1.9,1.7,2.5,2.6l-0.4,0.1h-1.9
			c-0.2,0-0.5-0.1-0.7,0c-0.9,0-1.9-0.1-2.6,0.2C117.6,147.3,118,147.6,118.3,147.8"/>
	</g>
</g>
<g transform="translate(-.26 -.13)">
	<g>
		<defs>
			<rect id="SVGID_109_" x="0.3" y="0.1" width="924" height="221"/>
		</defs>
		<clipPath id="SVGID_110_">
			<use xlink:href="#SVGID_109_"  style="overflow:visible;"/>
		</clipPath>
		<path class="st54" d="M96.8,156.4c0.3-0.6,6.2-0.1,7.1-0.1c1.6,0,2.9-0.2,4.3-0.2c2,0,4.1,0.1,6.1,0.1l3.2-0.1
			c2.4-0.1,4.9,0.1,7.2,0.1v-0.1c0.1,0,0.1-0.7,0.1-0.8l0.1-4.7c0-1.1-0.1-2.2,0.1-3.2c1.2,0.6,1.1,2.2,1.1,3.6l0.1,2.7l-0.1,1.5
			c0,0.7,0.2,1.6-0.1,2.2v0.1H126c0-0.1-0.4,0-0.6,0h-3.6c-0.5,0-1.2-0.1-1.7,0.1c-0.4,0-1.1-0.1-1.5,0.1c-1.3,0-2.7,0-4.1-0.1
			c-0.6,0-1.5-0.3-2,0c-1.1,0-2-0.1-3-0.1c-0.2,0-0.5-0.1-0.7,0.1c-0.6,0-1.8-0.3-2.3,0c-0.3,0-0.7-0.1-1,0h-2.9
			c-0.5-0.1-1.2-0.1-1.8-0.1h-0.6c-0.2,0.1-0.4,0.1-0.7,0.1c-1.1,0-2,0.3-2.5-0.7C96.9,156.7,96.8,156.5,96.8,156.4"/>
	</g>
</g>
<g transform="translate(-.26 -.13)">
	<g>
		<defs>
			<rect id="SVGID_111_" x="0.3" y="0.1" width="924" height="221"/>
		</defs>
		<clipPath id="SVGID_112_">
			<use xlink:href="#SVGID_111_"  style="overflow:visible;"/>
		</clipPath>
		<path class="st55" d="M125.7,175.3c-0.3,0.3-1,0.3-1.3,0.4l-0.1-5.8c0.1-0.6-0.1-1.2,0.1-1.7c0.1-0.2,0.1-0.3,0.3-0.3
			c0.3,0,0.7,0,1,0.1c0.1,0,0.1,0.8,0.1,1c-0.1,0.4,0.1,0.8,0.1,1.3c0,0.6-0.1,1.2-0.1,1.9C125.9,172.9,126.1,174.8,125.7,175.3"/>
	</g>
</g>
<g transform="translate(-.26 -.13)">
	<g>
		<defs>
			<rect id="SVGID_113_" x="0.3" y="0.1" width="924" height="221"/>
		</defs>
		<clipPath id="SVGID_114_">
			<use xlink:href="#SVGID_113_"  style="overflow:visible;"/>
		</clipPath>
		<path class="st56" d="M148.4,172.8c-0.3,0-0.6,0.1-0.8,0.1c-0.3,0-1.1,0.2-1.5,0.3c-0.7,0-1.3,0.3-1.9,0.4l-1.3,0.2
			c-0.3,0-0.6,0-0.9,0.1c-0.2,0.1-0.3,0.1-0.6,0.1c-0.2,0-0.3,0.1-0.5,0.2c-0.4,0-1-0.1-1.3,0.1c-0.2,0.1-0.3,0.1-0.6,0.1
			c-0.7,0-1.6-0.1-2.2,0.2c-0.3,0-0.6-0.1-0.8,0.1c-0.3,0-0.6-0.1-0.9-0.1c0,0.1-0.9,0.3-1.1,0.3c-0.5,0-1.2,0-1.6,0.1
			c-0.2,0.1-0.4,0.1-0.6,0.1c-0.5,0-1.1-0.1-1.6,0.1c-0.3,0-0.7,0-1,0.1c-0.5,0-1.8,0.1-2-0.1c-0.5-0.3-0.2-5.2-0.2-6.2l-0.1-1.3
			c0-0.5,0.1-2-0.7-1.8c-0.4,0-1.5-0.1-1.8,0.1c-0.5,0-1.8,0.1-2.1-0.2c-0.5-0.5-0.7-2.3-1-3c-0.4-1.1-1.1-2.1-1.2-3.3
			c0-0.1,0-0.3,0.1-0.4c0.2-0.3,1.2-0.2,1.6-0.2c0.8,0,4.9,0.1,5.3-0.6c0.2-0.3,0.1-1.6,0.1-2c0.1-0.7,0.1-1.5,0.1-2.2
			c0.1-1.1-0.2-2.5,0.1-3.5c2.6,2.9,5.5,5.4,8.2,8.1c0.3,0.3,0.5,0.6,0.7,1c0.6,0.6,1.4,1.2,2.1,1.9c1.8,1.8,3.6,3.8,5.3,5.6
			l4.2,4.1c0.3,0.3,0.7,0.6,0.8,0.8C149,172.6,148.6,172.7,148.4,172.8"/>
	</g>
</g>
<g transform="translate(-.26 -.13)">
	<g>
		<defs>
			<rect id="SVGID_115_" x="0.3" y="0.1" width="924" height="221"/>
		</defs>
		<clipPath id="SVGID_116_">
			<use xlink:href="#SVGID_115_"  style="overflow:visible;"/>
		</clipPath>
		<path class="st57" d="M143.4,101l1.3-1.5c0.5-0.6,1-0.9,1.5-1.3c0.6-0.7,1.3-1.4,1.9-2.1c0.8-0.6,1.5-1.5,2.3-2.1l4.4-4.5
			c2.3-2.1,4.5-4.3,6.6-6.5c0.6-0.6,1.3-1.2,1.7-1.8c0.3,0.5,0.1,1.9,0.1,2.6c0.1,1.6,0,3.4,0.1,5.2l0.1,2.6
			c-0.1,0.9-0.1,1.8-0.1,2.8l0.1,1.6l-0.1,0.8c0.1,0.3,0.1,0.6,0.1,0.9l-0.1,0.7c-0.1,1.4-0.1,2.8-0.1,4.2l0.2,2.1l-0.1,1.2
			c0,0.9,0,1.8-0.1,2.7c-0.1,0.3-0.1,0.6-0.1,0.9c0,0.6,0.1,1.2,0.1,1.8c-0.1,0.8-0.3,1.6-0.3,2.5l0.2,3.1c-0.1,0.6-0.2,1.3-0.2,1.9
			c0.1,0.2,0.1,0.4,0.1,0.6l-0.1,2.1l0.1,1.5c0,0.3-0.1,0.7-0.2,1.1c-0.1,0.7,0,1.5,0.1,2.1c0.1,1.1,0.1,2.5,0,3.5l-0.1,0.8
			c-0.1,0.6,0.1,1.2,0.1,1.8l-0.1,1.1l0.1,1.1c-0.1,0.5-0.1,1.1-0.1,1.6s0.3,3.2-0.1,3.2c-0.3,0-2.7-2.6-3.1-3l-9.1-9.2
			c-0.5-0.5-0.8-1.1-1.3-1.5l-1.3-1.2l-0.6-0.7c-2.9-2.9-5.8-5.8-8.8-8.6c-0.6-0.5-4.3-4.3-4.3-4.5l0.1-0.2c0.3-0.7,1.5-1.6,2-2
			c0.6-0.6,1.1-1.3,1.7-1.9l1.7-1.6l0.6-0.5c0.4-0.5,1-1,1.4-1.5c0.5-0.6,0.9-1.1,1.4-1.6"/>
	</g>
</g>
<g transform="translate(-.26 -.13)">
	<g>
		<defs>
			<rect id="SVGID_117_" x="0.3" y="0.1" width="924" height="221"/>
		</defs>
		<clipPath id="SVGID_118_">
			<use xlink:href="#SVGID_117_"  style="overflow:visible;"/>
		</clipPath>
		<path class="st58" d="M126.1,58.8c0.3-0.2,0.5-0.2,0.7-0.5c0.1-0.2,0.3-0.4,0.4-0.7c0.4-0.6,0.8-1.1,1.3-1.6l0.6-0.5
			c0.3-0.3,0.9-0.1,1.3-0.1c0.8,0,1.6-0.1,2.4-0.1c0.4-0.1,0.7-0.1,1.1-0.2c0.6,0,1.2,0,1.8,0.1c0.6,0.1,1.3,0.2,2,0.2
			c0.6,0,1.1-0.2,1.8-0.2l0.6,0.1c0.7,0.1,1.6,0.1,2.3-0.1v0.1h0.1c0,0.1,0,0.1-0.1,0.1l-0.1,0.1c-0.7,1-1.8,1.8-2.6,2.6l-4.9,4.8
			c-0.3,0.3-0.8,0.6-1.1,1c-1.5,1.5-2.8,3.1-4.3,4.5l-1.6,1.5c-0.3,0.3-0.6,0.6-0.9,0.8c-0.3,0.3-0.7,0.8-1,1.2
			c-0.9,1-1.9,1.9-2.8,2.8c-0.4,0.6-0.9,1.1-1.3,1.6c-1,1-2,2-3,2.9c-1.7,1.7-3.4,3.4-5.2,5c-0.5,0.6-1,1.2-1.6,1.6v0.1h-0.1v-0.1
			h-0.1c0.1-0.2,0.1-0.4,0.1-0.7l-0.1-1.6l0.2-0.8c0.1-0.6-0.1-1,0.1-1.4c0.1-0.3,0.5-0.3,0.7-0.6c0.4-0.4,0.6-1,1.2-1.3
			c0.6-0.4,1.3-0.5,1.8-0.8l1.1-0.7c0.8-0.6,1.8-1,2.3-1.8l0.5-1l0.6-0.8c0.1-0.3,0.1-0.8,0.3-1.3c0.1-0.5,0.4-1,0.4-1.7l-0.2-1.8
			c-0.1-0.8-0.5-1.4-1-2c-0.2-0.2-0.4-0.4-0.6-0.8c-0.1,0,0-0.2,0.1-0.3c0.1-0.1,0.2-0.3,0.3-0.5c0.6-0.8,1.1-1.6,1.9-2.2
			c0.4-0.3,0.5-0.7,0.8-1.1c0.3-0.4,0.8-0.6,1.3-1.1c0.2-0.3,0.3-0.6,0.5-0.8c0.2-0.3,0.3-0.6,0.5-0.8c0.2-0.3,0.6-0.3,0.8-0.6
			L126.1,58.8"/>
	</g>
</g>
<g transform="translate(-.26 -.13)">
	<g>
		<defs>
			<rect id="SVGID_119_" x="0.3" y="0.1" width="924" height="221"/>
		</defs>
		<clipPath id="SVGID_120_">
			<use xlink:href="#SVGID_119_"  style="overflow:visible;"/>
		</clipPath>
		<path class="st59" d="M82.2,55.6c0.7,0,1.7,0.1,2.3-0.1c0.6,0.1,1.1,0.1,1.8,0.1h3.2c0.3,0.1,0.6,0.2,0.8,0.2
			c0.6,0,1.3-0.3,1.8-0.2c0.7,0.2,1.3,1,1.8,1.5c0.8,0.8,1.6,1.6,2.5,2.4c0.6,0.6,1.1,1.3,1.6,1.8c0.7,0.7,1.4,1.2,2.1,1.9
			c0.4,0.4,0.6,0.8,1.1,1.2c0.2,0.2,0.4,0.3,0.7,0.6c0.4,0.3,0.8,0.8,1.1,1.3c-0.2,0-0.6,0.6-0.8,0.7c-0.6,0.6-1.1,1.3-1.3,2.2
			c-0.1,0.3-0.2,0.7-0.2,1.1c-0.1,0.6-0.3,1.1-0.2,1.8l0.3,1.2l0.5,1.3c0.2,0.4,0.3,1,0.6,1.3c0.2,0.3,0.6,0.4,0.9,0.6
			c0.3,0.2,0.4,0.6,0.7,0.8c0.3,0.1,0.5,0.3,0.8,0.3c0.3,0.3,0.8,0.6,1.2,0.8c0.6,0.3,1.1,0.6,1.6,1l0.8,1.2c0.3,0.3,0.7,0.6,0.9,1
			l0.3,1c0,0.3-0.1,0.6,0,0.9c0.1,0.7,0.4,1.6,0.3,2.3c-0.6,0-1.9-1.6-2.3-1.9l-2.8-2.6c-0.7-0.7-1.3-1.5-2-2.2
			c-1.3-1.4-2.8-2.7-4.1-4.1c-0.7-0.8-1.5-1.5-2.2-2.2l-0.9-1.1c-2.5-2.4-5-4.8-7.4-7.2l-1.9-2.1c-1.4-1.4-2.7-2.9-4.2-4.2
			c-0.7-0.7-2.3-1.6-2.6-2.6L82.2,55.6"/>
	</g>
</g>
<g transform="translate(-.26 -.13)">
	<g>
		<defs>
			<rect id="SVGID_121_" x="0.3" y="0.1" width="924" height="221"/>
		</defs>
		<clipPath id="SVGID_122_">
			<use xlink:href="#SVGID_121_"  style="overflow:visible;"/>
		</clipPath>
		<path class="st60" d="M66.2,130.1c-1.1,1.1-2,2.3-3.1,3.3l-4.9,4.7c-0.5,0.6-1.2,1.1-1.6,1.7h-0.1c0,0.1-0.2-0.3-0.2-0.3
			c0-0.6,0-1.2-0.1-1.6l0.1-5c0-1.3,0.1-2.7,0-4l-0.1-1.4c0.1-1.3,0.1-2.6,0.1-4l-0.1-1.7l0.1-2.5l-0.1-1.6c0-1.4,0-2.9,0.1-4.3
			c-0.1-0.4-0.1-0.8-0.1-1.3c0.1-0.5,0.1-1,0.1-1.6c0.1-1.2,0-2.4,0.1-3.5c0-1,0.1-1.8,0.1-2.7c0-1.9-0.1-3.7-0.1-5.6l0.2-2.7
			l-0.1-1.5c0-1.9,0.1-3.9,0.1-5.8c-0.1-0.4-0.1-0.8-0.1-1.2c0.1-0.5,0.1-1,0.1-1.5c0-0.6-0.1-1.1-0.1-1.7c0.1-0.3,0.1-0.6,0.2-1
			l-0.1-2.8c0.8,0.3,1.3,1.1,1.9,1.7c1.3,1.3,2.6,2.5,4,3.8c0.4,0.5,0.9,1,1.3,1.5c1,0.9,2,1.9,2.9,2.9l0.9,1
			c0.6,0.6,1.3,1.1,1.9,1.8c0.3,0.3,0.5,0.6,0.7,0.8c1.6,1.5,3.1,2.8,4.6,4.2c1.5,1.5,2.9,2.9,4.4,4.5c0.9,0.8,6.7,6.3,6.4,7.1
			l-0.3,0.5c-0.7,1.2-2.3,2.5-3.3,3.5c-0.3,0.3-0.6,0.8-1,1.1l-2.5,2.5l-3.6,3.6l-2.4,2.4c-0.2,0.2-0.3,0.4-0.6,0.7L66.2,130.1"/>
	</g>
</g>
<g transform="translate(-.26 -.13)">
	<g>
		<defs>
			<rect id="SVGID_123_" x="0.3" y="0.1" width="924" height="221"/>
		</defs>
		<clipPath id="SVGID_124_">
			<use xlink:href="#SVGID_123_"  style="overflow:visible;"/>
		</clipPath>
		<path class="st61" d="M98.4,166.1c-0.6,0-2.8-0.2-3.2,0.1c-0.1,0.1-0.1,0.3-0.2,0.4v6.1c0,0.8,0.1,2.1-0.1,3
			c-0.1,0.2-0.1,0.4-0.3,0.6v0.1c-0.6,0-1.2-0.3-1.8-0.3c-0.6-0.1-1.1,0-1.6,0c-0.3,0-0.8-0.1-1.2-0.1l-2.4-0.2
			c-0.3-0.1-0.7-0.1-1,0.1c-1.8,0-3.5-0.3-5.2-0.6c-0.8,0-1.6,0-2.3-0.2l-1.9-0.3c-0.3,0-0.5-0.1-0.8-0.2c-0.3-0.1-0.7-0.1-1.2-0.1
			l-2.8-0.5c-0.7-0.1-1.6-0.1-2.2-0.4H70v-0.2c0.1,0,0.1,0.1,0.1-0.1c0.4-0.6,1.2-1.3,1.8-1.9l1.6-1.6c0.8-0.7,1.7-1.5,2.5-2.3
			l1.2-1.2c0.3-0.3,0.7-0.8,1-1.1c2-1.9,4.2-4,6.3-6.1c1.3-1.3,2.4-2.6,3.7-3.9c1.8-1.7,3.6-3.4,5.3-5.2l1.5-1.6
			c0.3,0.5,0.1,2.2,0.1,2.9c-0.1,1-0.1,2-0.1,3c0,0.6-0.1,1.3,0.1,1.9c0.2,0.5,0.6,1,0.8,1.5c0.2,0.3,0.3,0.6,0.6,0.8
			c0.4,0.3,1.9,0.3,2.5,0.3c1.1-0.1,2.2-0.1,3.3-0.1c0,0.7-0.4,1.6-0.7,2.3c-0.4,1.1-0.9,2.3-1.3,3.5c-0.2,0.4-0.3,1-0.6,1.3
			c-0.3,0.3-0.6,0.1-0.9,0.3C98.7,166.1,98.6,166.2,98.4,166.1"/>
	</g>
</g>
<g transform="translate(-.26 -.13)">
	<g>
		<defs>
			<rect id="SVGID_125_" x="0.3" y="0.1" width="924" height="221"/>
		</defs>
		<clipPath id="SVGID_126_">
			<use xlink:href="#SVGID_125_"  style="overflow:visible;"/>
		</clipPath>
		<path class="st62" d="M103.5,179.6c-0.8-0.1-1.5-0.6-2.2-0.9c-0.6-0.3-1.2-0.4-1.7-0.6h-0.1V178h0.1c0-0.1-0.1-0.1,0.1-0.1
			c1.1,0,6.4,0.2,6.8-0.3c0.3-0.2,0.3-1.2,0.3-1.6c0-2.4-0.3-5.7,1.9-6.9c0.4-0.2,0.7-0.2,1.1-0.3c0.6,0,2.1,0.2,2,1.1
			c0,0.2-0.3,0.2-0.4,0.2c-1.5,0.2-1.8,1-2.4,2.1c-0.5,0.9-0.4,2.5-0.4,3.8c-0.1,1.2-0.1,2.3-0.1,3.6c0,0.1-0.7,0-1,0
			c-0.4,0-0.7,0.2-1.1,0.2L103.5,179.6"/>
	</g>
</g>
<g transform="translate(-.26 -.13)">
	<g>
		<defs>
			<rect id="SVGID_127_" x="0.3" y="0.1" width="924" height="221"/>
		</defs>
		<clipPath id="SVGID_128_">
			<use xlink:href="#SVGID_127_"  style="overflow:visible;"/>
		</clipPath>
		<path class="st63" d="M112,181.1c-0.3,0.3-0.6,0.6-0.8,1c-0.6,0.7-1.3,1.3-1.8,2.1h-0.1c-0.4-0.6-0.9-1.1-1.4-1.6
			c-0.4-0.5-1.3-1-1.9-1.2v-0.1H106v-0.1h0.1c0-0.1,0.1-0.1,0.2-0.1c0.3-0.1,0.6-0.1,0.9-0.1c0.8-0.1,1.8-0.1,2.6-0.1
			c0.1-0.1,0.1-0.3,0.1-0.4c0.1-0.3,0.1-0.8,0.2-1.1l-0.1-1.1c0.1-0.3,0.1-0.7,0.1-1.1c0-0.8-0.1-1.6-0.1-2.4
			c0.1-0.4,0.3-0.8,0.3-1.3c0.1-0.5,0.2-1.1,0.6-1.5c0.3-0.4,0.8-0.3,1.3-0.5c0.2,0.1,0.3,0.1,0.4,0.3c0.1,0.5,0.1,1.2,0.1,1.7
			c0.1,1.3,0.1,2.6,0.1,4c0.1,0.3,0.3,0.5,0.3,0.8c0.3,0.4,0.4,0.8,0.6,1.3h0.1c-0.3,0.6-1.1,1.1-1.6,1.5"/>
	</g>
</g>
<g transform="translate(-.26 -.13)">
	<g>
		<defs>
			<rect id="SVGID_129_" x="0.3" y="0.1" width="924" height="221"/>
		</defs>
		<clipPath id="SVGID_130_">
			<use xlink:href="#SVGID_129_"  style="overflow:visible;"/>
		</clipPath>
		<path class="st64" d="M115,179.1c-0.4-0.3-0.6-1-0.6-1.5c0.3,0,0.7,0.1,1.1-0.1l2.5,0.1v0.1c-0.3,0-0.6,0.2-0.8,0.3L115,179.1
			L115,179.1"/>
	</g>
</g>
<g transform="translate(-.26 -.13)">
	<g>
		<defs>
			<rect id="SVGID_131_" x="0.3" y="0.1" width="924" height="221"/>
		</defs>
		<clipPath id="SVGID_132_">
			<use xlink:href="#SVGID_131_"  style="overflow:visible;"/>
		</clipPath>
		<path class="st65" d="M88.8,117c0-0.7,0.1-1.4,0.1-2.1l-0.1-2.4c0-1.3,0.1-2.5,0.1-3.8l-0.1-2.3c0.1-0.6,0.1-1.2,0.1-1.8l-0.1-1.8
			c0-1,0.3-1.8,0.3-2.7c-0.1-0.6-0.1-1.1-0.2-1.6c0.1-0.3,0.1-0.6,0.1-1c0.1-1.1,0.2-2.1,0.2-3.2c0-0.8-0.1-2,0.1-2.6
			c0.2-0.7,2.3-3,2.9-3.3v-0.1c0.2,0.6,0.1,1.3,0,1.9c0,0.7-0.1,1.5,0,2.3c0,0.5,0,1,0.1,1.6v2.9l-0.1,1.3c0.1,0.5,0.1,1,0.1,1.5
			c-0.1,1.3-0.1,2.9-0.1,4.2c0.1,1.5-0.1,3-0.1,4.5c0,0.5,0,1.1,0.1,1.6c0,1.2,0,2.3,0.1,3.4l-0.1,1.6v2.6c0,1.1,0.2,2.9-0.1,3.8
			c-0.1,0.3-0.4,0.4-0.6,0.7l-0.7,1.1c-0.2,0.2-0.5,0.4-0.7,0.7c-0.3,0.5-0.5,1-0.8,1.5v0.1H89c0-1.4-0.2-2.9-0.2-4.4
			c0-0.8,0.1-1.8,0.2-2.5C88.9,118,88.7,117.4,88.8,117"/>
	</g>
</g>
<g transform="translate(-.26 -.13)">
	<g>
		<defs>
			<rect id="SVGID_133_" x="0.3" y="0.1" width="924" height="221"/>
		</defs>
		<clipPath id="SVGID_134_">
			<use xlink:href="#SVGID_133_"  style="overflow:visible;"/>
		</clipPath>
		<path class="st66" d="M90.3,126.3c0.3-0.9,0.7-1.2,1.4-1.8c0.3-0.4,0.6-0.8,1.2-1.1c1.9-1.3,4.9-1.3,7.3-0.8
			c0.4,0.1,0.9,0.3,1.3,0.3c1.6,0.3,2.9,0.5,4.2,1.2c0.9,0.5,1.6,1.2,2.4,1.8c0.2,0.1,0.4,0.3,0.6,0.3c0.3,0.3,0.7,0.9,1.2,0.9
			c0.7,0,1.1-0.9,1.7-1.3c0.6-0.4,1.1-0.8,1.8-1.2c1.8-0.8,3.6-1.8,5.5-2.3c0.7-0.1,1.4-0.3,2.1-0.5c0.4-0.1,0.8-0.1,1.2-0.2
			l1.8,0.1c1,0.1,2,0.6,2.8,1.2l1.1,1.1c0.6,0.6,1.1,1.2,1.3,2h-0.1c0,0.1-0.6,0.1-0.8,0.1c-1.6,0-3.2,0-4.8-0.1
			c-0.6,0-1.3-0.1-1.8,0.1c-0.6,0-1.3-0.3-1.8-0.1c-0.1,0.1-0.3,0.1-0.5,0.1c-0.6,0-1.3-0.1-1.8,0.1c-0.3,0-0.6,0.1-0.8,0.2
			c-0.5,0-1.6-0.1-1.9,0.1c-0.1,0.1-0.3,0.1-0.6,0.1c-0.2,0.1-0.4,0.1-0.7,0.1c-0.3,0-0.8,0.1-1.1,0.3c-0.1,0-0.1,0.4-0.1,0.5
			c0.1,1.3-1,2.5-2.3,2.5c-1.1,0-1.9-0.8-2.2-1.8c-0.1-0.3,0-0.8-0.3-1.1c-0.1-0.1-0.3-0.2-0.4-0.1h-2c-1.2,0-2.3-0.1-3.6-0.2
			c-0.4,0-0.8-0.1-1.1,0.1l-2.7-0.1c-0.4,0-1-0.1-1.3,0.1c-1.3,0-2.7-0.1-4-0.1c-0.4,0-1.1-0.1-1.6,0.1c-0.4,0-0.8,0-1.1-0.1
			C90,127,90.2,126.7,90.3,126.3"/>
	</g>
</g>
<g transform="translate(-.26 -.13)">
	<g>
		<defs>
			<rect id="SVGID_135_" x="0.3" y="0.1" width="924" height="221"/>
		</defs>
		<clipPath id="SVGID_136_">
			<use xlink:href="#SVGID_135_"  style="overflow:visible;"/>
		</clipPath>
		<path class="st67" d="M131.4,96.3c0-0.7-0.1-1.5-0.2-2.1l-0.1-1.1c0-0.1,0.1-0.8-0.1-0.8h-0.2c-0.1,1.5-0.1,3.1-0.1,4.7
			c0,0.6-0.3,1.1-0.3,1.6v0.9c-0.1,0.3-0.1,0.6-0.1,0.8c-0.3,0-0.6-0.1-0.7-0.4c-0.1-0.5,0.1-1,0.1-1.4l-0.1-1
			c0-1.8,0.1-3.7,0.1-5.4c-0.1-0.3-0.1-0.6-0.1-0.9c-0.1-0.1-0.1-0.3-0.1-0.4h-0.2v0.1h-0.1c-0.1,1.2-0.2,2.4-0.3,3.7
			c0,0.2-0.1,0.4-0.1,0.7h-0.2c-0.3-1-0.3-2.3-0.3-3.5c0-0.6,0.1-1.3-0.1-1.9c-0.2,0.4-0.2,0.8-0.3,1.3v2c0,0.7,0.1,1.4,0.1,2.1
			c-0.3,4.3-0.2,8.6-0.2,13c-0.1,0.9-0.1,1.8-0.1,2.6c-0.1,0.8-0.2,1.6-0.2,2.4c0,1.1,0.1,2.3,0.1,3.4c-0.1,1-0.1,2.3-0.1,3.3
			c0,0.1,0.1,0.6,0.3,0.6v0.1h0.1v-0.1h0.1c0.2-0.6,0.1-1.3,0.1-2.1c0.1-1.2,0.2-2.4,0.1-3.6c0-0.8-0.2-1.8,0.1-2.5
			c0.1-0.1,0.1-0.1,0.3-0.1c0.3,0.1,0.3,0.6,0.3,0.8c0.1,0.9-0.1,1.8-0.1,2.8v2.3c0,0.8-0.1,1.7,0.1,2.5c0.1,0.5-0.1,0.9,0.1,1.3
			c0.1,0.2,0.1,0.8,0.4,0.8c0.1-1.3,0.1-2.7,0.1-4v-1.8c0-0.6,0.1-1.2,0.1-1.8l0.2-1.2c0-0.6-0.2-1.1-0.2-1.6
			c-0.1-0.8-0.1-1.7-0.1-2.6c0-0.4,0-0.9,0.2-1.3c0.1-0.2,0.3-0.3,0.3-0.4h0.1c0.3,0.2,0.4,0.5,0.5,0.8c0.1,0.9,0.1,2,0,3
			c-0.1,0.3-0.1,0.6-0.1,1c0,0.8,0.3,1.7,0.3,2.6c-0.1,0.3-0.1,0.7-0.1,1.1c0,1.6,0,2.9-0.1,4.4c0,1.1,0.1,2.3,0.2,3.3v0.6h0.3
			c0.3-0.6,0.2-1.5,0.2-2.3c0.1-0.8,0.1-1.8,0.1-2.7c-0.1-0.6-0.1-1.2-0.3-1.8c0-0.6,0.3-1.2,0.3-1.8c0.1-1-0.1-1.7-0.1-2.7
			c0.1-1,0.2-1.9,0.2-2.9v-2.3l-0.1-1c0-0.5,0.2-0.8,0.2-1.3l-0.1-2.4l0.1-3.6c0.3-1.7,0.3-2.9,0.3-4.1 M128.9,108
			c-0.1,0-0.4,0.6-0.4,0.3c-0.1-0.2-0.1-0.6-0.1-0.8c-0.1-0.7,0-1.5-0.1-2.2v-2.9c0-0.7-0.1-1.5,0.2-2.1c0.2,0.1,0.4,0.3,0.4,0.6
			c0.2,0.8,0.1,1.8,0.1,2.7C129,104.7,129.3,106.9,128.9,108 M129.1,96.9c-0.6-0.1-0.7-0.5-0.4-1C129,96.1,129.3,96.8,129.1,96.9
			 M130.2,106.1h-0.2c-0.3-0.6-0.1-1.2-0.1-1.9c0-0.9-0.2-1.8,0.2-2.6c0.2,0.1,0.4,0.1,0.6,0.3C130.8,102.6,130.8,106.3,130.2,106.1
			"/>
	</g>
</g>
<g transform="translate(-.26 -.13)">
	<g>
		<defs>
			<rect id="SVGID_137_" x="0.3" y="0.1" width="924" height="221"/>
		</defs>
		<clipPath id="SVGID_138_">
			<use xlink:href="#SVGID_137_"  style="overflow:visible;"/>
		</clipPath>
		<path class="st68" d="M126.7,104.4l-0.1-1.3c0-1.9,0.1-3.9,0.1-5.7l-0.1-1.8c0-1.5,0-2.9-0.1-4.2l-0.2-1.3c-0.1-0.5,0-1,0-1.5
			c0-0.2,0.1-0.7-0.1-0.7c-0.3-0.2-0.8-0.1-1.2-0.2c-0.5-0.1-1-0.1-1.6-0.1c-0.6,0.2-1.3,0.1-1.9,0.3c-2.8,0.5-5.4,0.9-7.8,2.1
			c-0.6,0.3-1.2,0.6-1.7,1.2c-0.3,0.4-0.3,0.9-0.4,1.5c-0.2,1.3-0.2,2.7-0.2,4.1c-0.1,0.7-0.1,1.4-0.1,2.1c0,1.1,0,2-0.1,3.1
			l-0.1,1.2l-0.1,2.9c-0.1,1.5,0.1,2.9,0.1,4.3c0.1,1.3-0.1,2.8-0.1,4.1c0.1,0.4,0.1,0.8,0.1,1.2c-0.1,0.2-0.1,0.4-0.1,0.7
			c0,0.6,0.1,1.3,0.1,1.9c0,1.9-0.1,4.3,0.7,5.7c0.1,0.1,0.3,0.4,0.3,0.2c0.8-0.3,1.5-1,2.4-1.4c0.7-0.4,1.5-0.6,2.1-1
			c0.8-0.5,1.3-0.8,2.4-0.8c0.3-0.2,1.3-0.3,1.7-0.3c0.2-0.1,0.3-0.1,0.6-0.1l0.5-0.1c0.8-0.4,2.7-0.1,3.5,0.1l1.2,0.3
			c0.2-1.2,0-2.5-0.1-3.6l0.1-1.9l-0.1-2.4l0.1-1.2c0.1-1,0-1.9,0.1-2.8c0.1-0.6,0.1-1.1,0.1-1.7
			C126.7,106.5,126.7,105.5,126.7,104.4 M112.7,107.3c1.8-1.7,4.2-2.6,6.4-3.5c0.7-0.3,1.6-0.8,2.4-0.8c0.3-0.2,0.9-0.6,1.2-0.6
			v-0.1c0.4,0.1,0.8,0.3,0.8,0.8c0,0.4-0.2,0.8-0.6,1c-0.6,0.4-1.5,0.5-2.2,0.8c-0.8,0.3-1.8,0.6-2.6,0.8c-0.6,0.2-1.2,0.3-1.8,0.6
			c-1.1,0.4-2,1-2.9,1.6c-0.4,0.2-0.7,0.5-1.2,0.6c-0.1,0-0.2,0-0.3-0.1C111.6,108,112.5,107.5,112.7,107.3 M123.2,113.4
			c-0.6,0.4-1.5,0.4-2.1,0.6l-1.9,0.5c-2.3,0.6-4.1,1.5-6.1,2.6c-0.2,0.1-0.8,0.7-1.1,0.3c-0.2-0.3,0.3-0.6,0.4-0.8
			c0.8-0.6,1.6-1.1,2.3-1.6c0.9-0.6,1.8-1.1,2.8-1.5c0.3-0.2,0.6-0.3,1-0.6c1.2-0.5,2.5-0.8,3.8-1.2c0.3,0,0.7,0,1.1,0.1
			C123.9,112.1,123.8,113.1,123.2,113.4 M123.4,94.9c-0.3,0.2-0.7,0.3-1.1,0.3c-0.8,0.3-1.7,0.6-2.5,0.8c-1.2,0.3-2.4,0.7-3.5,1.3
			l-2.3,1.3c-0.1,0.1-1.2,0.6-1.2,0.4h-0.1c0.1-0.8,1.1-1.3,1.6-1.7c0.3-0.2,0.6-0.4,0.9-0.6c0.8-0.5,1.6-1,2.4-1.3
			c0.8-0.5,1.8-0.6,2.7-1l1-0.4c0.4-0.1,0.7-0.3,1.2-0.4c0.3,0,0.7-0.1,1,0.1C124.1,93.8,123.8,94.6,123.4,94.9"/>
	</g>
</g>
<g transform="translate(-.26 -.13)">
	<g>
		<defs>
			<rect id="SVGID_139_" x="0.3" y="0.1" width="924" height="221"/>
		</defs>
		<clipPath id="SVGID_140_">
			<use xlink:href="#SVGID_139_"  style="overflow:visible;"/>
		</clipPath>
		<path class="st69" d="M109.3,94.3c-0.1-1.1,0.1-2.3-0.6-3.1c-1.2-1.6-2.8-2.2-4.5-2.8c-0.5-0.2-1-0.3-1.4-0.5l-1.6-0.3
			c-0.8-0.2-1.7-0.3-2.6-0.4l-3.6-0.1c-0.4,0.1-1,0.1-1.2,0.4c-0.2,0.3-0.1,1.7-0.1,2.3c0,2-0.1,4.1-0.1,6.2c0,1.2,0,2.5-0.1,3.8
			l-0.2,3.1c0,0.7,0.3,1.4,0.3,2.2l-0.1,4.8c-0.1,0.6-0.1,1.3-0.1,1.9c-0.1,1.4,0.1,2.6,0.1,4c-0.1,0.6-0.1,1.3-0.1,1.9
			c0,0.6,0.2,1.2,0.2,1.8c0,0.7-0.1,1.3-0.1,2h0.8c0.2-0.1,0.5-0.1,0.7-0.1c0.2-0.2,0.5-0.2,0.8-0.2c0.2-0.1,0.3-0.1,0.6-0.1
			c0.7-0.3,2.7,0.1,3.4,0.2c0.9,0.1,1.8,0.1,2.7,0.3c1.1,0.2,2.7,0.8,3.6,1.3c0.3,0.2,2.2,1.6,2.4,1.6v-0.1c0.5-0.8,0.4-1.6,0.6-2.5
			c0.1-1.1,0.2-2.3,0.2-3.5c0.1-1.7,0.1-3.6,0.1-5.3l-0.1-2.3l0.1-6.4C109.4,101.2,109.6,97.6,109.3,94.3 M106.6,117.3
			c-1.3-0.6-2.7-1.2-4.1-1.6l-1.5-0.3l-2.3-0.5c-0.8-0.1-1.7-0.1-2.5-0.3l-0.3-0.1c-0.6-0.3-0.6-1.7,0.3-1.7v-0.1
			c0.6,0,1.1,0.1,1.6,0.3c0.6,0.1,1.1,0.1,1.6,0.3l1.3,0.5c1.4,0.4,2.6,0.8,3.9,1.5c0.3,0.2,0.6,0.3,1,0.3c0.6,0.3,1.7,1.1,2.3,1.7
			c0.2,0.2,0.5,0.3,0.5,0.7C107.7,118.2,107.2,117.6,106.6,117.3 M108.4,109l-0.1,0.1v0.1c-0.6,0.1-2.7-1.7-3.3-1.9
			c-0.8-0.4-1.6-0.6-2.3-1c-1.1-0.5-2.1-0.9-3.3-1.1l-1.3-0.2c-0.6-0.1-1.6,0.1-2.1-0.3c-0.6-0.4-0.3-1.6,0.5-1.6v-0.1
			c3.4,0.2,6.2,1.8,8.9,3.3c0.7,0.4,2.6,1.6,3,2.3C108.4,108.6,108.5,109.1,108.4,109 M108.7,99.6c-0.1,0.2-0.3,0.2-0.6,0.2
			c-0.4-0.1-0.8-0.5-1.2-0.6c-0.5-0.3-0.9-0.5-1.4-0.8c-2.4-1.2-5-1.9-7.6-2.6c-0.7-0.2-1.7-0.1-2.3-0.6c-0.6-0.3-0.6-1.1-0.1-1.4
			c1.2,0,2,0.3,3,0.6l0.8,0.2c0.6,0.1,1.3,0.4,1.9,0.7c0.5,0.2,1,0.3,1.6,0.6c0.3,0.2,0.5,0.3,0.7,0.5c0.7,0.3,1.5,0.7,2.2,1.1
			C106.5,97.5,109,99,108.7,99.6"/>
	</g>
</g>
<g transform="translate(-.26 -.13)">
	<g>
		<defs>
			<rect id="SVGID_141_" x="0.3" y="0.1" width="924" height="221"/>
		</defs>
		<clipPath id="SVGID_142_">
			<use xlink:href="#SVGID_141_"  style="overflow:visible;"/>
		</clipPath>
		<path class="st70" d="M104.6,27.8c-1.1,0.1-2.3,0.3-3.5,0.4c-1,0.1-1.9,0.3-3,0.3c-2.4,0.5-4.7,1-7,1.4c-3.3,0.7-6.4,2-9.4,3.3
			c-5.7,2.3-11,5.1-16.2,8.4c-1.2,0.8-9.7,6.8-9.7,7.8l4.1,0.3c3.4,0.2,6.8,0.1,10.1,0.1l6.2,0.3c0.8-0.4,2.1-0.3,3.1-0.3
			c2.8,0,5.5,0.2,8.2,0.2c1.3-0.6,3.6-0.1,5.1-0.1h13.6l15.2,0.3c9.4-0.1,18.7-0.3,28.1-0.3c0.7-0.3,1.8,0,2.5,0
			c1.6,0.1,3.3,0.1,4.9,0.1c0.9,0,1.7,0,2.6-0.1c1.6,0.1,3.3,0.2,5.1,0.1l1.8,0.1c1.1,0-0.9-1.6-1.3-2c-1.2-1.3-2.4-2.3-3.9-3.2
			l-2.5-1.9c-1.7-1.2-3.5-2.3-5.2-3.5c-10.7-6.4-21.1-10.3-34.3-11.7c-1.9,0-3.9,0-5.8-0.1C110.5,27.9,107.4,27.8,104.6,27.8"/>
	</g>
</g>
<g transform="translate(-.26 -.13)">
	<g>
		<defs>
			<rect id="SVGID_143_" x="0.3" y="0.1" width="924" height="221"/>
		</defs>
		<clipPath id="SVGID_144_">
			<use xlink:href="#SVGID_143_"  style="overflow:visible;"/>
		</clipPath>
		<path class="st71" d="M51.2,53.6c-1.2,1.2-2.9,2.9-4.1,4.1l-7.3,9.7c-5.1,8.5-8.1,17.5-10.4,27.5c-0.3,1.6-0.3,3.2-0.5,4.9
			c-0.8,8.2-1,17.5,0.3,25.6c0.3,1.3,0.6,2.7,1,4c0.4,2.2,0.7,4.2,1.5,6.3c0.7,1.7,1.3,3.4,2.1,5.2c0.8,2.5,2.1,4.8,3.2,7
			c2.9,5.5,6.2,10.7,10.1,15.7c0.6,0.7,2,2.8,3,2.8v-0.2c0.8-1.6,0.2-6.2,0.2-8c0-3.1,0-6.3-0.1-9.4c0-2.9-0.1-5.8,0.1-8.7
			c0.3-6.3,0.1-12.6,0.1-19c0.1-5.3,0.3-10.9,0.3-16.3c0-5.2-0.3-10.8,0.2-15.8c0-0.6,0-1.1-0.1-1.7v-4.7c0.1-2.2,0.2-4.4,0.3-6.6
			c-0.3-4.5-0.3-9.3-0.4-14C50.9,58.6,51.4,55.4,51.2,53.6"/>
	</g>
</g>
<g transform="translate(-.26 -.13)">
	<g>
		<defs>
			<rect id="SVGID_145_" x="0.3" y="0.1" width="924" height="221"/>
		</defs>
		<clipPath id="SVGID_146_">
			<use xlink:href="#SVGID_145_"  style="overflow:visible;"/>
		</clipPath>
		<path class="st72" d="M170.7,54c-0.3,3.2,0.3,8.2,0.2,11.5c-0.1,7.3-0.1,14.5-0.1,21.9v35.2c0,6.6-0.3,13.2,0,19.9v8.2
			c0,5,0.5,10.2-0.5,15c-0.1,0.3-0.7,2.5-0.2,2.5c1.6,0,9.6-11.3,10.7-13.2c0.7-1.5,1.5-2.9,2.4-4.4l1.3-2.9c1.5-2.7,3.2-6,4.3-9.1
			c2.1-6.2,3.5-12.7,4.4-19.6c0.3-2.3,0.2-4.4,0.3-6.8c0-1.3,0.1-2.6,0.1-3.8c-0.1-6.8-0.9-13.9-2.7-20c-1.8-6-4.4-11.8-7.4-17.1
			c-1.1-1.9-2.3-3.6-3.5-5.4C178.3,63.4,171.7,53.3,170.7,54"/>
	</g>
</g>
<g transform="translate(-.26 -.13)">
	<g>
		<defs>
			<rect id="SVGID_147_" x="0.3" y="0.1" width="924" height="221"/>
		</defs>
		<clipPath id="SVGID_148_">
			<use xlink:href="#SVGID_147_"  style="overflow:visible;"/>
		</clipPath>
		<path class="st73" d="M159.8,176.9c-4.6,3.6-14.3,3.9-20.4,4.5c-1.5,0.3-3.1,0.5-4.7,0.6c-7.7,0.4-17.8,1.1-20.5,9
			c-0.3,0.8-0.3,1-0.6,1.9c-0.1,0.8,3.5,0.1,5,0.1c0.4-0.2,1.2-0.2,1.8-0.2l1.1-0.2c1-0.5,2.3-0.6,3.5-0.6c0.8-0.4,1.8-0.4,2.7-0.4
			c1-0.6,3.5-0.9,4.8-0.9c2.2-0.7,4.4-1.5,6.5-2.3c6.2-2.5,12.6-5,17.9-9.2C157.6,178.6,158.5,178.4,159.8,176.9"/>
	</g>
</g>
<g transform="translate(-.26 -.13)">
	<g>
		<defs>
			<rect id="SVGID_149_" x="0.3" y="0.1" width="924" height="221"/>
		</defs>
		<clipPath id="SVGID_150_">
			<use xlink:href="#SVGID_149_"  style="overflow:visible;"/>
		</clipPath>
		<path class="st74" d="M64.3,178.4c1.3,1.6,3.3,2,5,3.2c1,0.7,2.4,1.5,3.4,2.2c3.7,1.8,6.5,3.2,10.3,4.5c4.2,1.3,8.3,2.7,12.8,3.5
			c1.6,0.3,11.8,2.2,12.3,1.2c0.6-1.6-2.8-5.4-4-6.4c-1.1-0.9-2.4-1.6-3.6-2.2c-1.2-0.6-2.6-1-3.8-1.3c-1.7-0.5-3.3-1-5.2-1.3
			c-1.6-0.3-3.4-0.3-5.2-0.4c-1.6-0.3-3.1-0.6-4.7-0.8c-2-0.3-4.1-0.3-6.2-0.5C71.6,179.5,68.2,178.6,64.3,178.4"/>
	</g>
</g>
<g transform="translate(-.26 -.13)">
	<g>
		<defs>
			<rect id="SVGID_151_" x="0.3" y="0.1" width="924" height="221"/>
		</defs>
		<clipPath id="SVGID_152_">
			<use xlink:href="#SVGID_151_"  style="overflow:visible;"/>
		</clipPath>
		<path class="st75" d="M309.1,49.8h-7.9v40c0,3.1,0.3,5.3,1.1,6.4c0.8,1.1,2.3,1.6,4.4,1.6v1.6h-18.4v-1.5c2.3,0,3.9-0.6,4.6-1.9
			c0.7-1.3,1.2-3.3,1.2-6.3V49.8h-7.5c-3.6,0-6.2,0.6-7.9,1.7c-1.6,1.1-2.5,3-2.8,5.7h-1.6V45.3h1.5c1.4,1.3,4,1.9,7.8,1.9h27.3
			c3.9,0,6.7-0.6,8.2-1.9h1.6v11.9h-1.1c-0.6-2.9-1.8-4.9-3.5-5.8C314.8,50.3,312.4,49.8,309.1,49.8"/>
	</g>
</g>
<g transform="translate(-.26 -.13)">
	<g>
		<defs>
			<rect id="SVGID_153_" x="0.3" y="0.1" width="924" height="221"/>
		</defs>
		<clipPath id="SVGID_154_">
			<use xlink:href="#SVGID_153_"  style="overflow:visible;"/>
		</clipPath>
		<path class="st76" d="M368.6,89.5V74.5h-28.3v15.1c0,3.1,0.4,5.2,1.3,6.4c0.9,1.2,2.4,1.8,4.7,1.8v1.5h-18.8v-1.6
			c2.3,0,3.8-0.6,4.7-1.8c0.8-1.2,1.3-3.4,1.3-6.4V57c0-3.2-0.5-5.3-1.3-6.5c-0.8-1.2-2.4-1.8-4.5-1.8v-1.6h18.8v1.6
			c-2.3,0-3.9,0.6-4.8,1.9c-0.8,1.2-1.3,3.3-1.3,6.4v14.8h28.4V57.1c0-3.2-0.4-5.3-1.2-6.5c-0.8-1.1-2.3-1.8-4.5-1.8v-1.5h18.6v1.5
			c-2.2,0-3.7,0.6-4.5,1.8c-0.9,1.2-1.3,3.4-1.3,6.5v32.5c0,3.1,0.4,5.3,1.3,6.4c0.8,1.2,2.4,1.8,4.5,1.8v1.6h-18.7v-1.6
			c2.3,0,3.9-0.6,4.6-1.7C368.2,94.8,368.6,92.7,368.6,89.5"/>
	</g>
</g>
<g transform="translate(-.26 -.13)">
	<g>
		<defs>
			<rect id="SVGID_155_" x="0.3" y="0.1" width="924" height="221"/>
		</defs>
		<clipPath id="SVGID_156_">
			<use xlink:href="#SVGID_155_"  style="overflow:visible;"/>
		</clipPath>
		<path class="st77" d="M422,66.9h1.6v12.6H422c-0.6-2.2-1.3-3.6-2-4.1c-0.8-0.6-2.5-0.8-5.2-0.8h-13v18.6c0,1.3,0.3,2.2,0.9,2.8
			c0.6,0.6,1.6,0.8,2.9,0.8h9.1c3.2,0,5.5-0.3,6.8-0.6c1.2-0.3,2.3-1.1,3.1-1.9c0.8-1,1.8-2.6,2.8-4.8h1.6l-2.4,9.8H389v-1.6
			c2.3,0,3.9-0.6,4.7-1.8c0.8-1.2,1.2-3.3,1.2-6.4V57c0-3.2-0.4-5.3-1.2-6.5c-0.8-1.2-2.4-1.8-4.6-1.8v-1.5h37.5v8.7h-1
			c-0.6-2.4-1.3-4.1-2.3-4.9c-1-0.8-3.1-1.2-6.4-1.2h-15v22.3h14.5c1.9,0,3.3-0.4,4-1.1C421.1,70.2,421.6,68.9,422,66.9"/>
	</g>
</g>
<g transform="translate(-.26 -.13)">
	<g>
		<defs>
			<rect id="SVGID_157_" x="0.3" y="0.1" width="924" height="221"/>
		</defs>
		<clipPath id="SVGID_158_">
			<use xlink:href="#SVGID_157_"  style="overflow:visible;"/>
		</clipPath>
		<path class="st78" d="M496.1,88.4V57.1c0-3-0.4-5.2-1.2-6.4c-0.8-1.2-2.3-1.8-4.4-1.9v-1.6h18.4v1.5c-2.2,0-3.7,0.6-4.5,1.8
			c-0.9,1.2-1.3,3.4-1.3,6.5v32.5c0,3,0.4,5.2,1.3,6.4c0.8,1.2,2.4,1.8,4.5,1.8v1.6H496v-7.3c-4.9,5.7-10.7,8.5-17.3,8.5
			c-5.5,0-9.9-1.6-13-4.9c-3.1-3.2-4.7-7.7-4.7-13.1V57.1c0-3.1-0.4-5.3-1.2-6.5c-0.8-1.2-2.4-1.8-4.8-1.8v-1.5h18.8v1.5
			c-2.3,0-4,0.6-4.8,1.8c-0.8,1.2-1.2,3.3-1.2,6.4v26.4c0,4.3,1.2,7.6,3.6,10.1c2.3,2.4,5.5,3.6,9.7,3.6
			C487.4,97,492.4,94.2,496.1,88.4"/>
	</g>
</g>
<g transform="translate(-.26 -.13)">
	<g>
		<defs>
			<rect id="SVGID_159_" x="0.3" y="0.1" width="924" height="221"/>
		</defs>
		<clipPath id="SVGID_160_">
			<use xlink:href="#SVGID_159_"  style="overflow:visible;"/>
		</clipPath>
		<path class="st79" d="M555.6,48.8v-1.6h15.7v1.6c-2.5,0-4.2,0.6-5.2,1.8s-1.5,3.3-1.5,6.4v42.3H563l-36.9-45.3v36.6
			c0,2.6,0.6,4.4,1.6,5.5c1.1,1.1,2.8,1.7,5.3,1.7v1.5h-15.8v-1.6c2.5,0,4.2-0.6,5.2-1.9c0.8-1.4,1.3-3.6,1.3-7V58.4
			c0-3.3-0.6-5.6-1.8-7.1c-1.1-1.5-3.2-2.3-5.9-2.5v-1.6h13.3l32.7,40.5V57.3c0-3.2-0.4-5.4-1.3-6.7
			C559.7,49.3,558.1,48.7,555.6,48.8"/>
	</g>
</g>
<g transform="translate(-.26 -.13)">
	<g>
		<defs>
			<rect id="SVGID_161_" x="0.3" y="0.1" width="924" height="221"/>
		</defs>
		<clipPath id="SVGID_162_">
			<use xlink:href="#SVGID_161_"  style="overflow:visible;"/>
		</clipPath>
		<path class="st80" d="M597.5,47.3v1.6c-2.2,0-3.7,0.6-4.5,1.8c-0.9,1.2-1.3,3.3-1.3,6.5v32.4c0,3.1,0.4,5.3,1.3,6.5
			c0.8,1.2,2.4,1.7,4.5,1.7v1.5h-18.7v-1.6c2.3,0,3.8-0.6,4.6-1.7c0.8-1.2,1.3-3.4,1.3-6.5V57c0-3.2-0.5-5.3-1.2-6.5
			c-0.8-1.2-2.4-1.8-4.7-1.8v-1.5L597.5,47.3L597.5,47.3z"/>
	</g>
</g>
<g transform="translate(-.26 -.13)">
	<g>
		<defs>
			<rect id="SVGID_163_" x="0.3" y="0.1" width="924" height="221"/>
		</defs>
		<clipPath id="SVGID_164_">
			<use xlink:href="#SVGID_163_"  style="overflow:visible;"/>
		</clipPath>
		<path class="st81" d="M654.9,47.3v1.6c-3.8,0-7,3.4-9.4,10.1l-15.4,41h-1.5l-16.1-42.2c-1.6-3.9-2.8-6.4-3.9-7.4
			c-1.1-1.1-2.7-1.6-4.7-1.6v-1.5h18.9v1.6c-3,0-4.5,1.2-4.5,3.6c0,0.7,0.3,1.6,0.6,2.6l12.7,33.5l12.2-32.4
			c0.5-1.3,0.8-2.6,0.8-3.6c0-2.5-1.6-3.8-4.7-3.8v-1.5L654.9,47.3z"/>
	</g>
</g>
<g transform="translate(-.26 -.13)">
	<g>
		<defs>
			<rect id="SVGID_165_" x="0.3" y="0.1" width="924" height="221"/>
		</defs>
		<clipPath id="SVGID_166_">
			<use xlink:href="#SVGID_165_"  style="overflow:visible;"/>
		</clipPath>
		<path class="st82" d="M693,66.9h1.6v12.6H693c-0.6-2.2-1.3-3.6-2-4.1c-0.8-0.6-2.5-0.8-5.2-0.8h-13v18.6c0,1.3,0.3,2.2,0.9,2.8
			c0.6,0.6,1.6,0.8,2.9,0.8h9.1c3.2,0,5.5-0.3,6.8-0.6s2.3-1.1,3.2-1.9c0.8-1,1.8-2.6,2.8-4.8h1.6l-2.4,9.8H660v-1.6
			c2.3,0,3.9-0.6,4.7-1.8c0.8-1.2,1.2-3.3,1.2-6.4V57c0-3.2-0.4-5.3-1.3-6.5c-0.8-1.2-2.4-1.8-4.6-1.8v-1.5h37.5v8.7h-1
			c-0.6-2.4-1.3-4.1-2.3-4.9c-1-0.8-3.1-1.2-6.4-1.2h-15v22.3h14.5c1.9,0,3.3-0.4,4-1.1C692.1,70.2,692.6,68.9,693,66.9"/>
	</g>
</g>
<g transform="translate(-.26 -.13)">
	<g>
		<defs>
			<rect id="SVGID_167_" x="0.3" y="0.1" width="924" height="221"/>
		</defs>
		<clipPath id="SVGID_168_">
			<use xlink:href="#SVGID_167_"  style="overflow:visible;"/>
		</clipPath>
		<path class="st83" d="M723.7,75.2h-4.2v14.3c0,3.1,0.4,5.3,1.3,6.5c0.8,1.2,2.4,1.8,4.6,1.8v1.6h-18.7v-1.6c2.3,0,3.9-0.6,4.7-1.8
			c0.8-1.2,1.2-3.4,1.2-6.4V56.9c0-3.1-0.4-5.2-1.2-6.4c-0.8-1.2-2.4-1.8-4.7-1.8v-1.6h21.4c5.3,0,9.4,1.3,12.6,3.9
			c3.2,2.5,4.7,5.8,4.7,9.8c0,6.4-3.6,10.6-10.8,12.7c1.5,1,3.1,2.4,4.5,4.1c1.5,1.8,3.5,4.7,5.8,8.8c2.7,4.5,4.9,7.6,6.4,8.9
			c1.6,1.4,3.1,2.2,4.8,2.3v1.5h-10.6c-2.2-2.6-4.9-6.5-8-11.7c-3.3-5.3-5.9-8.8-7.8-10.2C728,76.1,725.9,75.3,723.7,75.2
			 M724.9,49.3h-5.4v23.8h6.4c3.8,0,6.9-1.1,9-3.3c2.2-2.2,3.2-5.1,3.2-8.7c0-3.6-1.2-6.4-3.6-8.6C732.1,50.4,728.9,49.3,724.9,49.3
			"/>
	</g>
</g>
<g transform="translate(-.26 -.13)">
	<g>
		<defs>
			<rect id="SVGID_169_" x="0.3" y="0.1" width="924" height="221"/>
		</defs>
		<clipPath id="SVGID_170_">
			<use xlink:href="#SVGID_169_"  style="overflow:visible;"/>
		</clipPath>
		<path class="st84" d="M787.1,46.5h1.5v12.2H787c-0.3-3.4-1.6-6-3.7-7.9c-2.1-1.9-4.7-2.8-7.9-2.8c-2.8,0-5.1,0.7-6.8,2.1
			c-1.6,1.4-2.5,3.3-2.5,5.7c0,2.2,0.7,4.2,2.1,6c1.4,1.8,4.5,4.1,9.2,7c5.5,3.3,9.2,6.2,11.1,8.6c1.9,2.5,2.8,5.3,2.8,8.4
			c0,4.1-1.5,7.7-4.4,10.5c-2.9,2.9-6.4,4.4-10.4,4.4c-2.4,0-5.3-0.6-9-1.9c-1.5-0.6-2.5-0.8-2.9-0.8c-0.8,0-1.5,0.7-1.9,1.9h-1.6
			V85.8h1.6c0.1,3.9,1.3,7,3.8,9.3c2.5,2.3,5.4,3.6,8.8,3.6c3.2,0,5.7-0.9,7.6-2.6c1.9-1.6,2.9-3.9,2.9-6.7c0-2.1-0.8-4.1-2.4-6.1
			c-1.6-1.9-4.9-4.4-9.8-7.5c-4-2.5-6.8-4.4-8.1-5.9c-1.3-1.5-2.4-3-3-4.8c-0.7-1.6-1.1-3.6-1.1-5.6c0-4,1.3-7.3,4-9.7
			c2.6-2.5,6-3.7,10.2-3.7c2.3,0,4.8,0.4,7.6,1.3c1.3,0.5,2.2,0.6,2.7,0.6c0.4,0,0.7,0,0.8-0.3C786.6,47.6,786.8,47.2,787.1,46.5"/>
	</g>
</g>
<g transform="translate(-.26 -.13)">
	<g>
		<defs>
			<rect id="SVGID_171_" x="0.3" y="0.1" width="924" height="221"/>
		</defs>
		<clipPath id="SVGID_172_">
			<use xlink:href="#SVGID_171_"  style="overflow:visible;"/>
		</clipPath>
		<path class="st85" d="M818.8,47.3v1.6c-2.2,0-3.8,0.6-4.5,1.8c-0.9,1.2-1.3,3.3-1.3,6.5v32.4c0,3.1,0.4,5.3,1.3,6.5
			c0.8,1.2,2.4,1.7,4.5,1.7v1.5H800v-1.6c2.3,0,3.8-0.6,4.6-1.7c0.9-1.2,1.3-3.4,1.3-6.5V57c0-3.2-0.4-5.3-1.2-6.5
			c-0.8-1.2-2.4-1.8-4.7-1.8v-1.5L818.8,47.3L818.8,47.3z"/>
	</g>
</g>
<g transform="translate(-.26 -.13)">
	<g>
		<defs>
			<rect id="SVGID_173_" x="0.3" y="0.1" width="924" height="221"/>
		</defs>
		<clipPath id="SVGID_174_">
			<use xlink:href="#SVGID_173_"  style="overflow:visible;"/>
		</clipPath>
		<path class="st86" d="M860.1,49.8h-7.9v40c0,3.1,0.3,5.3,1.1,6.4c0.8,1.1,2.3,1.6,4.4,1.6v1.6h-18.4v-1.5c2.3,0,3.9-0.6,4.6-1.9
			c0.7-1.3,1.2-3.3,1.2-6.3V49.8h-7.6c-3.6,0-6.2,0.6-7.8,1.7c-1.6,1.1-2.5,3-2.8,5.7h-1.5V45.3h1.5c1.3,1.3,4,1.9,7.8,1.9h27.3
			c4,0,6.7-0.6,8.2-1.9h1.6v11.9h-1.1c-0.6-2.9-1.8-4.9-3.5-5.8C866,50.3,863.5,49.8,860.1,49.8"/>
	</g>
</g>
<g transform="translate(-.26 -.13)">
	<g>
		<defs>
			<rect id="SVGID_175_" x="0.3" y="0.1" width="924" height="221"/>
		</defs>
		<clipPath id="SVGID_176_">
			<use xlink:href="#SVGID_175_"  style="overflow:visible;"/>
		</clipPath>
		<path class="st87" d="M915.9,54.7l-11.7,18.5v16.4c0,3.2,0.4,5.3,1.2,6.5c0.7,1.2,2.3,1.8,4.5,1.8v1.5h-19v-1.6
			c2.6,0,4.3-0.6,5.2-1.9s1.3-3.3,1.3-6.4V73.1l-11.2-17.3c-1.8-2.9-3.3-4.7-4.4-5.6c-1.2-0.8-2.8-1.3-4.9-1.5v-1.5h20.4v1.6
			c-3.6,0-5.4,0.8-5.4,2.5c0,0.7,0.3,1.6,1.1,2.8l10.3,15.8l8.2-13c1.2-1.9,1.8-3.6,1.8-5c0-1.9-1.1-2.9-3.5-2.9v-1.5h14.3v1.6
			c-1.9,0.1-3.4,0.6-4.5,1.3C918.7,50.9,917.4,52.4,915.9,54.7"/>
	</g>
</g>
<g transform="translate(-.26 -.13)">
	<g>
		<defs>
			<rect id="SVGID_177_" x="0.3" y="0.1" width="924" height="221"/>
		</defs>
		<clipPath id="SVGID_178_">
			<use xlink:href="#SVGID_177_"  style="overflow:visible;"/>
		</clipPath>
		<path class="st88" d="M293.2,139.4c2.5,0,4.5,1.1,6.4,3c1.8,2,2.8,4.4,2.8,7.2c0,4.8-1.9,9.7-5.4,14.5c-3.6,4.8-8,7.2-13,7.2
			c-2.8,0-5-1-6.8-2.9c-1.8-2-2.6-4.5-2.6-7.7c0-5.3,1.9-10.3,5.8-14.7C284.2,141.6,288.5,139.4,293.2,139.4 M285.9,168.6
			c2.9,0,5.5-1.8,7.8-5.4c2.1-3.7,3.3-8,3.3-13c0-2.3-0.6-4.2-1.8-5.7c-1.2-1.6-2.7-2.3-4.4-2.3c-2.8,0-5.3,1.8-7.6,5.4
			c-2.3,3.6-3.4,7.9-3.4,12.8c0,2.6,0.6,4.6,1.7,6.1C282.5,167.8,284.1,168.6,285.9,168.6"/>
	</g>
</g>
<g transform="translate(-.26 -.13)">
	<g>
		<defs>
			<rect id="SVGID_179_" x="0.3" y="0.1" width="924" height="221"/>
		</defs>
		<clipPath id="SVGID_180_">
			<use xlink:href="#SVGID_179_"  style="overflow:visible;"/>
		</clipPath>
		<path class="st89" d="M324.8,140.3l-0.3,2.5h-6.2l-5.1,26.5c-1.3,7.2-2.8,12.3-4.4,15.6c-1.6,3.2-3.9,5.8-6.8,7.6
			c-2.9,1.8-6,2.7-9.3,2.7c-4.4,0-8-0.8-10.6-2.5l1.3-6.4h1.6c1,4.7,3.6,7,7.9,7c3.2,0,6.2-1.2,8.6-3.6c2.5-2.4,4.5-7.8,6.2-16.3
			l5.7-30.7H307l0.3-2.5h6.4l2.3-11c1.2-5.8,3.1-9.9,5.8-12.1c2.7-2.2,5.8-3.3,9.6-3.3c1.7,0,3.8,0.4,6.2,1.2l0.3-1.1h1.8L338,122
			h-1.8c-0.3-4.3-2.3-6.5-5.7-6.5c-4.4,0-7.3,3.7-8.9,11.1l-2.9,13.6L324.8,140.3L324.8,140.3z"/>
	</g>
</g>
<g transform="translate(-.26 -.13)">
	<g>
		<defs>
			<rect id="SVGID_181_" x="0.3" y="0.1" width="924" height="221"/>
		</defs>
		<clipPath id="SVGID_182_">
			<use xlink:href="#SVGID_181_"  style="overflow:visible;"/>
		</clipPath>
		<path class="st90" d="M387.5,137.9h1.6v12.6h-1.5c-0.6-2.2-1.3-3.6-2-4.2c-0.7-0.6-2.5-0.8-5.2-0.8h-13v18.7
			c0,1.3,0.3,2.2,0.9,2.8c0.6,0.6,1.6,0.8,2.9,0.8h9.1c3.2,0,5.5-0.2,6.8-0.6c1.3-0.3,2.3-1.1,3.2-1.9c0.9-1,1.8-2.6,2.8-4.8h1.6
			l-2.4,9.7h-37.5v-1.6c2.3,0,3.9-0.6,4.7-1.8c0.8-1.2,1.2-3.3,1.2-6.4V128c0-3.2-0.4-5.3-1.2-6.5c-0.8-1.2-2.4-1.7-4.6-1.7v-1.6
			h37.4v8.6h-1c-0.6-2.5-1.3-4.1-2.3-4.9c-1-0.8-3.1-1.2-6.4-1.2h-15v22.3H382c1.9,0,3.3-0.3,4-1.1
			C386.6,141.3,387.1,139.9,387.5,137.9"/>
	</g>
</g>
<g transform="translate(-.26 -.13)">
	<g>
		<defs>
			<rect id="SVGID_183_" x="0.3" y="0.1" width="924" height="221"/>
		</defs>
		<clipPath id="SVGID_184_">
			<use xlink:href="#SVGID_183_"  style="overflow:visible;"/>
		</clipPath>
		<path class="st91" d="M401.6,170.2v-1.5c2.1,0,3.8-0.6,4.5-1.8c0.8-1.2,1.3-3.4,1.3-6.4V128c0-3.1-0.5-5.3-1.3-6.5
			c-0.8-1.2-2.4-1.8-4.5-1.8v-1.6h24.1c8.9,0,16,2.5,21.4,7.6c5.3,5.1,8,11.5,8,19.3c0,7.7-2.6,13.7-7.7,18.3
			c-5.1,4.5-12.1,6.8-21.1,6.8L401.6,170.2L401.6,170.2z M424.3,120.2h-9.9v38.4c0,3.7,0.4,6.2,1.3,7.6c0.9,1.3,2.7,2,5.4,2h5.4
			c6.4,0,11.4-2,15.1-6.2c3.7-4.1,5.5-9.8,5.5-17c0-7.6-1.9-13.6-6-18.2C437.1,122.5,431.5,120.2,424.3,120.2"/>
	</g>
</g>
<g transform="translate(-.26 -.13)">
	<g>
		<defs>
			<rect id="SVGID_185_" x="0.3" y="0.1" width="924" height="221"/>
		</defs>
		<clipPath id="SVGID_186_">
			<use xlink:href="#SVGID_185_"  style="overflow:visible;"/>
		</clipPath>
		<path class="st92" d="M480.6,118.1v1.6c-2.2,0-3.7,0.6-4.5,1.8c-0.8,1.2-1.3,3.4-1.3,6.5v32.5c0,3.1,0.4,5.3,1.3,6.4
			c0.8,1.2,2.4,1.8,4.5,1.8v1.6h-18.7v-1.6c2.3,0,3.8-0.6,4.6-1.8c0.9-1.2,1.3-3.4,1.3-6.5V128c0-3.2-0.4-5.3-1.2-6.5
			c-0.8-1.2-2.4-1.7-4.7-1.7v-1.6H480.6L480.6,118.1z"/>
	</g>
</g>
<g transform="translate(-.26 -.13)">
	<g>
		<defs>
			<rect id="SVGID_187_" x="0.3" y="0.1" width="924" height="221"/>
		</defs>
		<clipPath id="SVGID_188_">
			<use xlink:href="#SVGID_187_"  style="overflow:visible;"/>
		</clipPath>
		<path class="st93" d="M526.9,119.7v-1.6h15.7v1.5c-2.5,0-4.3,0.6-5.2,1.8c-1,1.2-1.5,3.3-1.5,6.5v42.3h-1.6L497.4,125v36.6
			c0,2.6,0.6,4.4,1.6,5.5s2.8,1.7,5.3,1.7v1.6h-15.8v-1.6c2.5,0,4.2-0.6,5.2-1.9c0.8-1.4,1.3-3.6,1.3-7v-30.5c0-3.2-0.6-5.6-1.8-7.1
			c-1.2-1.5-3.2-2.3-5.9-2.5v-1.6h13.4l32.7,40.5v-30.5c0-3.2-0.5-5.4-1.4-6.7C531,120.3,529.3,119.6,526.9,119.7"/>
	</g>
</g>
<g transform="translate(-.26 -.13)">
	<g>
		<defs>
			<rect id="SVGID_189_" x="0.3" y="0.1" width="924" height="221"/>
		</defs>
		<clipPath id="SVGID_190_">
			<use xlink:href="#SVGID_189_"  style="overflow:visible;"/>
		</clipPath>
		<path class="st94" d="M572.3,170.2h-24v-1.6c2.2,0,3.8-0.6,4.6-1.8c0.8-1.2,1.3-3.4,1.3-6.4V128c0-3.2-0.5-5.3-1.2-6.5
			c-0.8-1.2-2.4-1.7-4.7-1.7v-1.6h19.6c5.6,0,10.1,1.1,13.3,3.4c3.2,2.3,4.9,5.3,4.9,9.2c0,5.5-3.5,9.5-10.5,11.7v0.3
			c4,0.7,7.2,2.5,9.7,5.3c2.5,2.7,3.7,5.8,3.7,9.4c0,3.9-1.6,6.9-4.5,9.3C581.4,169,577.3,170.2,572.3,170.2 M561.2,120.2v22h5.3
			c3.8,0,6.8-1,9-2.9c2.2-2,3.3-4.6,3.3-8c0-3.6-1.1-6.3-3.3-8.2c-2.2-1.9-5.3-2.9-9.2-2.9L561.2,120.2L561.2,120.2z M566,144.1h-5
			v15.3c0,3.4,0.3,5.7,1.1,6.9c0.7,1.2,2.2,1.8,4.3,1.8h4.3c3,0,5.5-1.1,7.4-3c1.9-2,2.9-4.7,2.9-8.1c0-3.9-1.4-7-4.1-9.3
			C574.2,145.4,570.5,144.2,566,144.1"/>
	</g>
</g>
<g transform="translate(-.26 -.13)">
	<g>
		<defs>
			<rect id="SVGID_191_" x="0.3" y="0.1" width="924" height="221"/>
		</defs>
		<clipPath id="SVGID_192_">
			<use xlink:href="#SVGID_191_"  style="overflow:visible;"/>
		</clipPath>
		<path class="st95" d="M635.3,159.3V128c0-3-0.4-5.2-1.2-6.4c-0.7-1.2-2.3-1.9-4.3-1.9v-1.6h18.3v1.6c-2.2,0-3.7,0.6-4.5,1.8
			c-0.9,1.2-1.3,3.4-1.3,6.5v32.6c0,3,0.4,5.2,1.3,6.4c0.8,1.2,2.4,1.8,4.5,1.8v1.6h-12.8v-7.2c-4.9,5.7-10.7,8.5-17.3,8.5
			c-5.5,0-9.9-1.6-13-4.9c-3.1-3.3-4.7-7.6-4.7-13v-25.6c0-3.1-0.4-5.3-1.2-6.5c-0.8-1.2-2.4-1.8-4.8-1.8v-1.6h18.8v1.6
			c-2.3,0-4,0.6-4.7,1.8c-0.8,1.2-1.3,3.3-1.3,6.4v26.4c0,4.3,1.2,7.6,3.6,10.1s5.6,3.6,9.8,3.6C626.7,168,631.6,165,635.3,159.3"/>
	</g>
</g>
<g transform="translate(-.26 -.13)">
	<g>
		<defs>
			<rect id="SVGID_193_" x="0.3" y="0.1" width="924" height="221"/>
		</defs>
		<clipPath id="SVGID_194_">
			<use xlink:href="#SVGID_193_"  style="overflow:visible;"/>
		</clipPath>
		<path class="st96" d="M672.9,146.1h-4.2v14.3c0,3.1,0.4,5.3,1.3,6.5c0.8,1.2,2.4,1.8,4.5,1.8v1.5h-18.7v-1.5
			c2.3,0,3.9-0.6,4.7-1.8c0.8-1.2,1.2-3.3,1.2-6.4v-32.6c0-3.1-0.3-5.2-1.2-6.4c-0.8-1.2-2.4-1.7-4.7-1.7v-1.6h21.4
			c5.3,0,9.4,1.2,12.6,3.9c3.2,2.5,4.7,5.8,4.7,9.7c0,6.4-3.6,10.7-10.8,12.8c1.5,1,3.1,2.4,4.5,4.1c1.5,1.8,3.5,4.7,5.8,8.8
			c2.7,4.5,4.9,7.6,6.4,8.9c1.6,1.4,3.1,2.2,4.8,2.3v1.5h-10.6c-2.2-2.6-4.9-6.5-8-11.7c-3.3-5.3-5.9-8.8-7.8-10.2
			C677.3,146.9,675.1,146.1,672.9,146.1 M674.1,120.2h-5.4v23.8h6.4c3.8,0,6.8-1.1,8.9-3.3c2.2-2.2,3.2-5.1,3.2-8.7
			c0-3.6-1.2-6.4-3.6-8.5C681.3,121.3,678.1,120.2,674.1,120.2"/>
	</g>
</g>
<g transform="translate(-.26 -.13)">
	<g>
		<defs>
			<rect id="SVGID_195_" x="0.3" y="0.1" width="924" height="221"/>
		</defs>
		<clipPath id="SVGID_196_">
			<use xlink:href="#SVGID_195_"  style="overflow:visible;"/>
		</clipPath>
		<path class="st97" d="M757.2,147.7v1.5c-2.3,0-4,0.6-4.9,1.6c-1,1.1-1.5,2.9-1.5,5.4v14c-1.2,0.3-3.5,0.6-6.8,0.8
			c-3.2,0.3-5.9,0.4-7.7,0.4c-9.6,0-17.1-2.4-22.5-7.1c-5.4-4.7-8-11-8-18.7c0-5.4,1.2-10.3,3.5-14.7c2.3-4.4,5.6-7.8,9.9-10.4
			c4.2-2.5,8.7-3.8,13.5-3.8c2.8,0,5.9,0.5,9.3,1.6c2.1,0.6,3.7,0.9,4.9,0.9c1.5,0,2.5-0.6,2.9-1.7h1.6v15.4h-1.5
			c-0.6-4.3-2.6-7.7-5.8-10.2c-3.2-2.5-7.1-3.9-11.4-3.9c-5.5,0-10.1,2.2-13.5,6.6c-3.6,4.4-5.3,10.1-5.3,17c0,7.6,2,13.9,6.2,19
			c4.1,5.1,9.1,7.6,15.3,7.6c5.8,0,8.8-1.9,8.8-5.6v-5.6c0-3.2-0.4-5.4-1.3-6.7c-0.8-1.3-2.3-1.9-4.4-1.9h-1.9v-1.5
			C736.1,147.7,757.1,147.7,757.2,147.7L757.2,147.7z"/>
	</g>
</g>
<g transform="translate(-.26 -.13)">
	<g>
		<defs>
			<rect id="SVGID_197_" x="0.3" y="0.1" width="924" height="221"/>
		</defs>
		<clipPath id="SVGID_198_">
			<use xlink:href="#SVGID_197_"  style="overflow:visible;"/>
		</clipPath>
		<path class="st98" d="M802.6,160.5v-15.1h-28.3v15.1c0,3.1,0.4,5.2,1.3,6.4c0.8,1.2,2.4,1.8,4.7,1.8v1.6h-18.8v-1.6
			c2.3,0,3.8-0.6,4.6-1.8s1.3-3.4,1.3-6.4V128c0-3.2-0.5-5.3-1.3-6.5c-0.8-1.2-2.4-1.7-4.6-1.7v-1.6h18.8v1.5
			c-2.3,0-3.9,0.6-4.7,1.9c-0.8,1.2-1.2,3.3-1.2,6.4v14.8h28.3V128c0-3.2-0.4-5.3-1.2-6.5c-0.8-1.2-2.4-1.8-4.6-1.8v-1.6h18.7v1.6
			c-2.2,0-3.8,0.6-4.5,1.8c-0.7,1.2-1.3,3.4-1.3,6.5v32.5c0,3.1,0.4,5.3,1.3,6.4c0.8,1.1,2.4,1.8,4.5,1.8v1.5h-18.7v-1.5
			c2.3,0,3.9-0.6,4.6-1.8C802.2,165.7,802.6,163.6,802.6,160.5"/>
	</g>
</g>
</svg>
